<svg width="401" height="418" viewBox="0 0 401 418" fill="none" xmlns="http://www.w3.org/2000/svg">
<path d="M350.792 250.761V0H30.2126V250.761C30.2126 250.761 28.8227 295.519 54.0403 331.891C85.8672 377.795 185.144 415.965 190.502 418C195.861 415.965 295.137 377.795 326.963 331.891C352.181 295.519 350.792 250.761 350.792 250.761Z" fill="#1B1A22"/>
<path d="M338.771 129.456H42.46V38.8235H338.771V129.456Z" fill="#0A8800"/>
<path d="M57.4094 38.8235V129.792H51.4727V38.8235H57.4094Z" fill="#13C500"/>
<path d="M71.7923 38.8235V129.792H65.8556V38.8235H71.7923Z" fill="#13C500"/>
<path d="M86.1753 38.8235V129.792H80.2385V38.8235H86.1753Z" fill="#13C500"/>
<path d="M100.558 38.8235V129.792H94.6215V38.8235H100.558Z" fill="#13C500"/>
<path d="M114.941 38.8235V129.792H109.004V38.8235H114.941Z" fill="#13C500"/>
<path d="M129.324 38.8235V129.792H123.387V38.8235H129.324Z" fill="#13C500"/>
<path d="M143.707 38.8235V129.792H137.77V38.8235H143.707Z" fill="#13C500"/>
<path d="M158.09 38.8235V129.792H152.153V38.8235H158.09Z" fill="#13C500"/>
<path d="M172.473 38.8235V129.792H166.536V38.8235H172.473Z" fill="#13C500"/>
<path d="M186.856 38.8235V129.792H180.919V38.8235H186.856Z" fill="#13C500"/>
<path d="M201.239 38.8235V129.792H195.302V38.8235H201.239Z" fill="#13C500"/>
<path d="M215.622 38.8235V129.792H209.685V38.8235H215.622Z" fill="#13C500"/>
<path d="M230.006 38.8235V129.792H224.068V38.8235H230.006Z" fill="#13C500"/>
<path d="M244.387 38.8235V129.792H238.451V38.8235H244.387Z" fill="#13C500"/>
<path d="M258.77 38.8235V129.792H252.834V38.8235H258.77Z" fill="#13C500"/>
<path d="M273.153 38.8235V129.792H267.217V38.8235H273.153Z" fill="#13C500"/>
<path d="M287.536 38.8235V129.792H281.6V38.8235H287.536Z" fill="#13C500"/>
<path d="M301.919 38.8235V129.792H295.983V38.8235H301.919Z" fill="#13C500"/>
<path d="M316.302 38.8235V129.792H310.365V38.8235H316.302Z" fill="#13C500"/>
<path d="M330.685 38.8235V129.792H324.748V38.8235H330.685Z" fill="#13C500"/>
<path d="M290.239 146.523C290.239 200.768 246.265 244.741 192.02 244.741C137.776 244.741 93.8013 200.768 93.8013 146.523C93.8013 92.2787 137.776 48.3044 192.02 48.3044C246.265 48.3044 290.239 92.2787 290.239 146.523Z" fill="white"/>
<path d="M112.112 102.04L127.788 98.0918C127.788 98.0918 110.023 116.356 112.021 140.103C114.021 163.849 112.395 172.618 115.495 177.974C118.594 183.331 128.155 194.529 128.155 194.529C128.155 194.529 144.183 208.122 148.329 208.949C152.474 209.775 174.324 220.262 183.326 222.385C192.328 224.508 213.899 219.206 213.899 219.206L238.711 208.55C238.711 208.55 260.453 192.263 265.136 179.534C269.819 166.804 273.95 156.339 273.95 156.339L286.409 152.245C286.409 152.245 289.35 170.716 274.501 194.529C259.652 218.341 224.919 237.912 224.919 237.912L192.021 244.742L142.268 228.782L111.654 198.666L94.2887 156.339L97.4086 120.074L112.112 102.04Z" fill="#8B959B"/>
<path d="M218.468 241.75C165.421 256.856 109.974 225.991 94.8676 172.944C79.7608 119.898 110.627 64.4514 163.674 49.3446C216.72 34.2378 272.167 65.1036 287.274 118.149C302.381 171.197 271.515 226.643 218.468 241.75ZM165.776 56.7251C116.799 70.6733 88.3011 121.866 102.249 170.842C116.196 219.819 167.389 248.317 216.366 234.369C265.342 220.421 293.84 169.229 279.892 120.252C265.945 71.2761 214.752 42.778 165.776 56.7251Z" fill="#1B1A22"/>
<path d="M165.632 123.239C165.632 123.239 163.387 132.5 163.279 141.646C163.173 150.794 164.489 160.184 164.489 160.184L198.649 172.156C198.649 172.156 207.131 163.23 211.758 157.573C216.385 151.914 220.768 142.54 220.768 142.54C220.768 142.54 216.227 133.594 212.077 126.639C207.926 119.683 201.261 113.092 201.261 113.092C201.261 113.092 190.582 113.693 182.553 115.978C174.524 118.265 165.632 123.239 165.632 123.239Z" fill="black"/>
<path d="M105.437 190.213C105.437 190.213 104.533 180.867 107.382 172.516C109.813 165.393 111.66 160.486 111.66 160.486L136.396 176.825L142.267 206.139C142.267 206.139 137.096 208.265 131.535 209.023C125.973 209.782 120.427 210.594 120.427 210.594L105.437 190.213Z" fill="black"/>
<path d="M125.687 77.7226C125.687 77.7226 139.315 74.5499 142.873 74.6004C146.431 74.6498 149.24 74.5588 149.24 74.5588C149.24 74.5588 142.298 90.0036 140.982 95.3397C139.666 100.677 139.666 100.677 139.666 100.677C139.666 100.677 125.426 107.922 121.584 111.851C117.741 115.78 117.741 115.78 117.741 115.78L98.9993 117.705C98.9993 117.705 103.102 102.542 111.022 92.2243C118.943 81.9079 125.687 77.7226 125.687 77.7226Z" fill="#1B1A22"/>
<path d="M188.534 64.4329C188.534 64.4329 201.918 72.8519 204.467 75.58C207.015 78.3081 209.663 82.6237 209.663 82.6237C209.663 82.6237 224.198 80.1482 231.501 80.9038C238.804 81.6593 241.424 83.3939 241.424 83.3939L235.964 64.2162L214.84 52.3337C214.84 52.3337 205.82 54.194 199.45 56.7167C193.079 59.2394 188.534 64.4329 188.534 64.4329Z" fill="#1B1A22"/>
<path d="M208.374 206.301C208.374 206.301 223.647 208.64 229.641 209.374C235.635 210.107 238.712 208.55 238.712 208.55C238.712 208.55 234.994 221.104 232.098 225.953C229.204 230.802 227.274 232.86 227.274 232.86L197.763 238.75C197.763 238.75 193.979 234.294 191.756 230.902C189.533 227.512 186.135 221.763 186.135 221.763L208.374 206.301Z" fill="black"/>
<path d="M264.487 118.89C264.487 118.89 261.62 130.018 258.991 134.036C256.363 138.055 253.003 143.036 253.003 143.036C253.003 143.036 259.267 160.619 260.857 166.203C262.448 171.786 262.808 177.468 262.808 177.468C262.808 177.468 269.879 175.799 275.651 172.223C281.424 168.646 284.182 165.969 284.182 165.969L287.273 146.918C287.273 146.918 283.711 136.051 277.238 128.337C270.766 120.622 264.487 118.89 264.487 118.89Z" fill="#1B1A22"/>
<path d="M145.029 79.1109C145.029 79.1109 156.36 71.5901 169.72 68.5431C183.08 65.4961 196.427 64.4734 196.427 64.4734L197.424 60.5642C197.424 60.5642 176.969 61.7778 164.472 66.6772C151.976 71.5755 141.275 78.6641 141.275 78.6641L145.029 79.1109Z" fill="#1B1A22"/>
<path d="M137.803 98.0918L171.048 123.48L168.543 126.214L132.429 99.622L137.803 98.0918Z" fill="#1B1A22"/>
<path d="M121.586 111.852C121.586 111.852 117.681 115.637 115.59 127.404C111.175 152.246 117.855 166.399 117.855 166.399L112.817 166.221C112.817 166.221 108.297 154.121 109.661 136.739C111.026 119.358 115.213 113.666 115.213 113.666L121.586 111.852Z" fill="#1B1A22"/>
<path d="M132.733 176.068L169.897 152.245L172.348 155.693L134.661 182.844L132.733 176.068Z" fill="black"/>
<path d="M196.271 168.582L205.905 212.167L212.68 210.237L198.343 165.719L196.271 168.582Z" fill="black"/>
<path d="M216.978 145.509L261.088 147.848L260.792 142.376L214.935 141.887L216.978 145.509Z" fill="black"/>
<path d="M234.928 79.5724C234.928 79.5724 245.423 84.858 256.122 100.256C266.821 115.653 265.491 128.662 265.491 128.662L269.447 127.534C269.447 127.534 268.928 109.749 257.696 96.0253C246.462 82.3016 235.157 75.4185 235.157 75.4185L234.928 79.5724Z" fill="#1B1A22"/>
<path d="M213.897 79.7047L201.218 115.892L196.014 115.359L210.462 77.3987L213.897 79.7047Z" fill="#1B1A22"/>
<path d="M139.851 201.068C139.851 201.068 150.077 210.531 166.845 216.112C183.612 221.693 194.563 221.122 194.563 221.122L195.601 224.768C195.601 224.768 176.918 223.639 163.274 219.189C149.63 214.74 135.607 203.791 135.607 203.791L139.851 201.068Z" fill="black"/>
<path d="M229.639 209.374C229.639 209.374 236.777 208.825 248.567 196.122C260.357 183.419 263.873 168.273 263.873 168.273L271.675 169.53C271.675 169.53 266.6 184.274 255.734 196.664C242.74 211.478 235.318 213.456 235.318 213.456L229.639 209.374Z" fill="black"/>
<path d="M148.33 186.486C148.33 186.486 158.038 198.344 170.01 202.307C186.184 207.66 198.8 204.068 198.8 204.068C198.8 204.068 182.867 203.703 171.139 199.544C159.412 195.385 148.33 186.486 148.33 186.486Z" fill="black"/>
<path d="M145.131 194.529C145.131 194.529 152.928 206.183 168.072 211.468C183.217 216.753 193.463 212.825 193.463 212.825C193.463 212.825 175.173 212.395 163.585 207.189C151.999 201.982 145.131 194.529 145.131 194.529Z" fill="black"/>
<path d="M219.17 196.663C219.17 196.663 232.39 189.866 239.607 179.73C246.822 169.592 250.201 159.283 250.201 159.283C250.201 159.283 249.162 173.37 241.224 183.638C233.288 193.906 219.17 196.663 219.17 196.663Z" fill="black"/>
<path d="M227.234 200.929C227.234 200.929 239.192 194.245 245.673 185.075C252.155 175.904 255.734 166.297 255.734 166.297C255.734 166.297 255.189 178.576 247.874 187.478C240.558 196.381 227.234 200.929 227.234 200.929Z" fill="black"/>
<path d="M128.155 115.652C128.155 115.652 122.294 130.545 123.35 143.126C124.408 155.707 126.674 164.555 126.674 164.555C126.674 164.555 120.174 150.598 119.484 139.302C118.792 128.007 128.155 115.652 128.155 115.652Z" fill="#1B1A22"/>
<path d="M137.153 116.208C137.153 116.208 128.879 125.695 129.464 139.519C130.049 153.342 135.502 164.509 135.502 164.509C135.502 164.509 131.768 149.625 132.672 138.606C133.574 127.586 137.153 116.208 137.153 116.208Z" fill="#1B1A22"/>
<path d="M74.4335 333.79C88.421 348.265 109.901 363.612 137.657 378.866C160.357 391.342 180.955 400.313 189.996 404.08C199.036 400.313 219.634 391.342 242.335 378.866C270.09 363.612 291.57 348.265 305.559 333.79H74.4335Z" fill="#0A8800"/>
<path d="M349.543 206.405L388.254 132.047H324.207L309.039 161.182V132.167H249.039V147.014C242.044 137.991 231.112 132.167 218.838 132.167H132.149H124.22H38.2823C17.1725 132.167 0 149.341 0 170.449V270.318H60.0017V234.282H72.1469V285.055H132.149V270.318H184.221V247.393L210.705 285.055H277.009L266.646 270.318H309.039V247.846L335.206 285.055H400.481L349.543 206.405ZM238.208 229.881C242.387 227.595 246.066 224.504 249.039 220.823V245.28L238.208 229.881Z" fill="#1B1A22"/>
<path d="M344.925 276.749H382.221L339.388 210.615L372.26 147.472H334.965L309.79 195.83H300.734V147.592H264.462V262.014H300.734V225.975H309.221L344.925 276.749Z" fill="#13C500"/>
<path d="M248.732 201.749V173.929C248.732 159.383 236.941 147.592 222.395 147.592H139.641V262.014H175.914V225.975H184.718L220.423 276.749H257.718L222.012 225.975H224.506C237.886 225.975 248.732 215.129 248.732 201.749ZM212.461 187.918V195.83H175.914V177.737H202.278C207.901 177.737 212.461 182.295 212.461 187.918Z" fill="#13C500"/>
<path d="M15.4221 174.014V262.02H51.6948V225.981H87.569V276.755H123.842V147.597H41.8399C27.2496 147.597 15.4221 159.425 15.4221 174.014ZM51.6948 195.835V187.517C51.6948 182.119 56.0711 177.742 61.47 177.742H87.569V195.835H51.6948Z" fill="#13C500"/>
<path d="M341.367 273.19H378.662L335.829 207.054L368.701 143.913H331.407L306.231 192.271H297.175V144.032H260.904V258.454H297.175V222.416H305.661L341.367 273.19Z" fill="white"/>
<path d="M245.174 198.19V170.37C245.174 155.824 233.383 144.032 218.837 144.032H136.083V258.455H172.355V222.417H181.159L216.865 273.191H254.159L218.454 222.417H220.948C234.328 222.417 245.174 211.571 245.174 198.19ZM208.901 184.36V192.272H172.355V174.177H198.72C204.343 174.177 208.901 178.737 208.901 184.36Z" fill="white"/>
<path d="M11.864 170.454V258.459H48.1356V222.421H84.0109V273.196H120.282V144.037H38.2818C23.6915 144.037 11.864 155.864 11.864 170.454ZM48.1356 192.276V183.957C48.1356 178.559 52.5129 174.182 57.9119 174.182H84.0109V192.276H48.1356Z" fill="white"/>
<path d="M81.6736 284.416H97.0509L95.8822 290.711H87.3386L86.1699 297.006H94.7135L93.5437 303.301H85.0012L82.3483 317.69H75.5134L81.6736 284.416Z" fill="white"/>
<path d="M126.591 284.416L122.409 307.078C122.094 308.742 122.138 309.956 122.678 310.72C123.128 311.53 124.117 311.889 125.645 311.889C127.175 311.889 128.253 311.53 129.108 310.72C129.872 309.956 130.367 308.742 130.682 307.078L134.864 284.416H141.699L137.292 308.202C136.752 311.125 135.539 313.688 133.469 315.441C131.401 317.24 128.434 318.319 124.432 318.319C120.431 318.319 117.912 317.24 116.473 315.441C115.079 313.688 114.809 311.125 115.349 308.202L119.756 284.416H126.591Z" fill="white"/>
<path d="M167.868 290.711H162.293L163.461 284.416H181.448L180.278 290.711H174.703L169.711 317.69H162.878L167.868 290.711Z" fill="white"/>
<path d="M204.557 307.214C204.017 310.676 204.871 312.295 207.838 312.295C210.357 312.295 212.02 310.721 212.469 308.337C213.009 305.325 209.547 304.606 206.221 303.211C202.893 301.773 199.655 299.704 200.689 294.084C201.859 287.789 206.49 283.742 212.83 283.742C218.99 283.742 221.867 286.71 221.643 293.274H214.988C215.348 290.846 214.269 289.408 212.065 289.408C209.907 289.408 208.289 291.027 207.928 293.05C207.344 296.197 210.807 296.782 214.134 298.221C217.461 299.659 220.654 301.908 219.485 308.248C218.315 314.498 212.92 318.319 206.58 318.319C198.98 318.319 196.419 314.228 197.722 307.214H204.557Z" fill="white"/>
<path d="M244.261 317.69H237.336L252.579 284.416H258.875L262.156 317.69H255.233L254.693 311.35H247.048L244.261 317.69ZM254.018 294.173L249.881 305.054H254.108L254.018 294.173Z" fill="white"/>
<path d="M289.54 284.416H296.375L291.384 311.395H300.107L298.937 317.69H283.38L289.54 284.416Z" fill="white"/>
<path d="M32.181 259.969C31.9542 258.403 31.7532 256.884 31.5736 255.42C31.7532 256.884 31.9542 258.403 32.181 259.969Z" fill="#1B1A22"/>
<path d="M31.1037 251.194C30.9678 249.845 30.8522 248.555 30.7534 247.332C30.8522 248.555 30.9678 249.845 31.1037 251.194Z" fill="#1B1A22"/>
<path d="M43.2545 301.76C42.7269 300.461 42.2194 299.162 41.7333 297.865C42.2194 299.162 42.7269 300.461 43.2545 301.76Z" fill="#1B1A22"/>
<path d="M31.4023 253.972C31.2934 253.02 31.1935 252.094 31.1036 251.194C31.1935 252.094 31.2934 253.02 31.4023 253.972Z" fill="#1B1A22"/>
<path d="M34.6024 273.411C34.2173 271.632 33.8648 269.884 33.5437 268.173C33.8648 269.884 34.2173 271.632 34.6024 273.411Z" fill="#1B1A22"/>
<path d="M35.4193 277.013C35.1319 275.799 34.8602 274.598 34.6031 273.411C34.8602 274.598 35.1319 275.799 35.4193 277.013Z" fill="#1B1A22"/>
<path d="M38.4551 288.221C37.6759 285.677 36.9697 283.161 36.3309 280.688C36.9697 283.161 37.6759 285.677 38.4551 288.221Z" fill="#1B1A22"/>
<path d="M32.9424 264.806C32.7549 263.701 32.5798 262.616 32.417 261.55C32.5798 262.616 32.7549 263.701 32.9424 264.806Z" fill="#1B1A22"/>
<path d="M41.732 297.866C41.0022 295.923 40.3185 293.984 39.6786 292.057C40.3185 293.984 41.0022 295.923 41.732 297.866Z" fill="#1B1A22"/>
<path d="M30.7535 247.332C30.6873 246.516 30.63 245.73 30.5784 244.975C30.63 245.73 30.6873 246.516 30.7535 247.332Z" fill="#1B1A22"/>
<path d="M46.6845 309.553C46.0682 308.257 45.4743 306.959 44.9028 305.659C45.4743 306.959 46.0682 308.257 46.6845 309.553Z" fill="#1B1A22"/>
<path d="M189.996 336.162L196.791 355.324L217.115 355.866L200.991 368.25L206.756 387.747L189.996 376.239L173.235 387.747L179 368.25L162.876 355.866L183.2 355.324L189.996 336.162Z" fill="#1B1A22"/>
<path d="M140.916 338.704L145.085 350.458L157.552 350.791L147.661 358.388L151.198 370.347L140.916 363.288L130.635 370.347L134.171 358.388L124.281 350.791L136.748 350.458L140.916 338.704Z" fill="white"/>
<path d="M236.124 338.704L240.293 350.458L252.76 350.791L242.869 358.388L246.406 370.347L236.124 363.288L225.843 370.347L229.379 358.388L219.489 350.791L231.955 350.458L236.124 338.704Z" fill="white"/>
<path d="M225.313 143.57H147.786C146.242 143.57 144.979 142.307 144.979 140.764V109.586C144.979 108.042 146.242 106.779 147.786 106.779H225.313C226.856 106.779 228.119 108.042 228.119 109.586V140.764C228.119 142.307 226.856 143.57 225.313 143.57Z" fill="#1B1A22"/>
<path d="M63.1826 28.1034H59.7236L66.1297 12.3005H68.9274L75.1841 28.1034H71.7038L70.5508 25.007H64.3154L63.1826 28.1034ZM67.3904 16.0593L65.1473 22.4653H69.6964L67.3904 16.0593Z" fill="#13C500"/>
<path d="M77.1273 12.2932H80.309V25.2984H85.498V28.0961H77.1273V12.2932Z" fill="#13C500"/>
<path d="M87.4009 12.2932H90.5826V25.2984H95.7716V28.0961H87.4009V12.2932Z" fill="#13C500"/>
<path d="M104.186 12.2932H108.97C111.426 12.2932 112.835 12.6783 113.689 13.2969C114.992 14.2366 115.697 15.8386 115.697 17.59C115.697 18.743 115.376 19.768 114.842 20.5371C114.159 21.5396 113.262 21.9887 112.237 22.2447L115.761 28.0961H112.429L108.179 20.7504H108.799C109.845 20.7504 110.977 20.6864 111.639 20.1733C112.258 19.6614 112.643 18.8283 112.643 17.8673C112.643 16.9063 112.173 16.0306 111.469 15.5827C110.892 15.2189 110.123 15.0909 109.226 15.0909H107.369V28.0961H104.186V12.2932Z" fill="#13C500"/>
<path d="M117.877 12.2932H126.738V15.0909H121.059V18.679H126.632V21.4756H121.059V25.2984H126.738V28.0961H117.877V12.2932Z" fill="#13C500"/>
<path d="M131.608 28.0961H128.148L134.555 12.2932H137.352L143.609 28.0961H140.128L138.975 24.9997H132.739L131.608 28.0961ZM135.814 16.0519L133.572 22.458H138.12L135.814 16.0519Z" fill="#13C500"/>
<path d="M145.49 12.2932H150.508C152.473 12.2932 155.335 12.4863 157.214 15.0269C158.367 16.4786 158.838 18.23 158.838 20.1733C158.838 24.6371 156.488 28.0961 150.744 28.0961H145.49V12.2932ZM148.673 25.2984H150.915C154.331 25.2984 155.655 23.0564 155.655 20.216C155.655 18.9777 155.335 17.654 154.587 16.6717C153.926 15.8173 152.858 15.0909 150.936 15.0909H148.673V25.2984Z" fill="#13C500"/>
<path d="M163.727 22.4366L158.881 12.2932H162.318L165.308 19.4683L168.319 12.2932H171.735L166.91 22.4366V28.0961H163.727V22.4366Z" fill="#13C500"/>
<path d="M180.321 12.2932H188.713V15.0909H183.502V18.871H188.585V21.6687H183.502V28.0961H180.321V12.2932Z" fill="#13C500"/>
<path d="M190.486 20.3222C190.486 15.2611 194.372 11.9941 198.772 11.9941C203.554 11.9941 207.078 15.7102 207.078 20.1942C207.078 24.6793 203.576 28.3943 198.75 28.3943C193.903 28.3943 190.486 24.5715 190.486 20.3435V20.3222ZM193.668 20.1942C193.668 23.0773 195.739 25.5965 198.814 25.5965C202.017 25.5965 203.897 22.8213 203.897 20.2155C203.897 17.5683 202.017 14.7919 198.793 14.7919C195.632 14.7919 193.668 17.3965 193.668 20.1729V20.1942Z" fill="#13C500"/>
<path d="M209.516 12.2932H214.299C216.755 12.2932 218.165 12.6783 219.019 13.2969C220.321 14.2366 221.026 15.8386 221.026 17.59C221.026 18.743 220.705 19.768 220.172 20.5371C219.488 21.5396 218.591 21.9887 217.566 22.2447L221.09 28.0961H217.759L213.509 20.7504H214.129C215.175 20.7504 216.307 20.6864 216.969 20.1733C217.588 19.6614 217.973 18.8283 217.973 17.8673C217.973 16.9063 217.502 16.0306 216.797 15.5827C216.221 15.2189 215.452 15.0909 214.555 15.0909H212.697V28.0961H209.516V12.2932Z" fill="#13C500"/>
<path d="M230.229 12.2932H233.411V19.6187L238.644 12.2932H241.996L236.273 20.1733L242.572 28.0961H238.686L233.411 21.0063V28.0961H230.229V12.2932Z" fill="#13C500"/>
<path d="M244.238 12.2932H247.42V28.0961H244.238V12.2932Z" fill="#13C500"/>
<path d="M265.936 22.7999C264.975 26.0669 261.9 28.3943 258.206 28.3943C253.38 28.3943 249.921 24.5715 249.921 20.1729C249.921 15.9662 253.188 11.9941 258.185 11.9941C262.733 12.0155 265.317 15.3678 265.936 17.6749H262.584C262.093 16.5859 260.683 14.8132 258.164 14.7919C255.089 14.7919 253.103 17.3752 253.103 20.1729C253.103 23.0559 255.174 25.5965 258.185 25.5965C261.004 25.5965 262.285 23.3759 262.584 22.7999H265.936Z" fill="#13C500"/>
<path d="M268.714 12.2932H271.897V19.6187L277.129 12.2932H280.481L274.757 20.1733L281.057 28.0961H277.171L271.897 21.0063V28.0961H268.714V12.2932Z" fill="#13C500"/>
<path d="M281.144 20.3222C281.144 15.2611 285.03 11.9941 289.43 11.9941C294.212 11.9941 297.736 15.7102 297.736 20.1942C297.736 24.6793 294.234 28.3943 289.408 28.3943C284.561 28.3943 281.144 24.5715 281.144 20.3435V20.3222ZM284.326 20.1942C284.326 23.0773 286.396 25.5965 289.472 25.5965C292.675 25.5965 294.554 22.8213 294.554 20.2155C294.554 17.5683 292.675 14.7919 289.451 14.7919C286.29 14.7919 284.326 17.3965 284.326 20.1729V20.1942Z" fill="#13C500"/>
<path d="M300.235 12.2932H308.627V15.0909H303.417V18.871H308.499V21.6687H303.417V28.0961H300.235V12.2932Z" fill="#13C500"/>
<path d="M311.107 12.2932H319.499V15.0909H314.289V18.871H319.371V21.6687H314.289V28.0961H311.107V12.2932Z" fill="#13C500"/>
<path d="M168.539 120.377H166.206V117.787H168.539V112.886H171.901V117.787H174.312V120.377H171.901V131.87H168.539V120.377Z" fill="white"/>
<path d="M178.187 112.886H181.547V117.453V119.454C182.343 117.966 184.036 117.325 185.703 117.35C187.884 117.35 189.244 118.094 190.065 119.325C190.911 120.556 191.167 122.225 191.167 124.123V131.87H187.807V124.277C187.807 123.199 187.628 122.275 187.166 121.608C186.678 120.941 185.909 120.505 184.729 120.505C183.394 120.505 182.599 121.044 182.139 121.737C181.676 122.43 181.547 123.277 181.547 123.995V131.87H178.187V112.886Z" fill="white"/>
<path d="M197.684 125.944C197.838 128.202 199.839 129.459 201.762 129.432C203.404 129.432 204.507 128.689 205.15 127.534H208.612C207.945 129.1 206.945 130.28 205.765 131.075C204.585 131.896 203.199 132.306 201.737 132.306C197.401 132.306 194.298 128.791 194.298 124.866C194.298 120.864 197.428 117.35 201.686 117.35C203.79 117.35 205.637 118.146 206.945 119.505C208.663 121.275 209.306 123.481 209.023 125.944H197.684ZM205.713 123.379C205.585 122.045 204.175 120.173 201.712 120.197C199.223 120.197 197.863 121.994 197.735 123.379H205.713Z" fill="white"/>
</svg>
