<svg width="40" height="40" viewBox="0 0 40 40" fill="none" xmlns="http://www.w3.org/2000/svg">
<path d="M35.3125 4.6875H32.9688V2.34375H35.3125V0H4.6875V2.34375H7.03125V4.6875H4.6875C2.10281 4.6875 0 6.79031 0 9.375C0 11.9597 2.10281 14.0625 4.6875 14.0625H7.71352C9.10594 17.633 12.4845 20.2173 16.4844 20.4509V28.2812H11.585L9.24125 37.6562H6.64062V40H33.3594V37.6562H30.7587L28.4149 28.2812H23.5156V20.4509C27.5155 20.2173 30.8941 17.633 32.2865 14.0625H35.3125C37.8972 14.0625 40 11.9597 40 9.375C40 6.79031 37.8972 4.6875 35.3125 4.6875ZM4.6875 11.7188C3.39516 11.7188 2.34375 10.6673 2.34375 9.375C2.34375 8.08266 3.39516 7.03125 4.6875 7.03125H7.03125V10.4241C7.03125 10.8627 7.05969 11.2948 7.11453 11.7188H4.6875ZM28.3429 37.6562H11.6571L13.4149 30.625H26.5849L28.3429 37.6562ZM18.8281 28.2812V20.4688H21.1719V28.2812H18.8281ZM22.9241 18.125H17.076C12.8297 18.125 9.375 14.6704 9.375 10.4241V2.34375H30.625V10.4241C30.625 14.6704 27.1703 18.125 22.9241 18.125ZM35.3125 11.7188H32.8855C32.9402 11.2948 32.9688 10.8627 32.9688 10.4241V7.03125H35.3125C36.6048 7.03125 37.6562 8.08266 37.6562 9.375C37.6562 10.6673 36.6048 11.7188 35.3125 11.7188Z" fill="white"/>
<path d="M15.1953 32.9688H24.8047V35.3125H15.1953V32.9688Z" fill="white"/>
</svg>
