<svg width="40" height="40" viewBox="0 0 40 40" fill="none" xmlns="http://www.w3.org/2000/svg">
<path d="M35.625 6.25H4.375C1.96266 6.25 0 8.21266 0 10.625V29.375C0 31.7873 1.96266 33.75 4.375 33.75H35.625C38.0373 33.75 40 31.7873 40 29.375V10.625C40 8.21266 38.0373 6.25 35.625 6.25ZM4.375 8.75H35.625C36.6588 8.75 37.5 9.59117 37.5 10.625V13.125H2.5V10.625C2.5 9.59117 3.34117 8.75 4.375 8.75ZM35.625 31.25H4.375C3.34117 31.25 2.5 30.4088 2.5 29.375V15.625H37.5V29.375C37.5 30.4088 36.6588 31.25 35.625 31.25Z" fill="white"/>
<path d="M8.75 27.5H7.5C6.80969 27.5 6.25 26.9403 6.25 26.25V25C6.25 24.3097 6.80969 23.75 7.5 23.75H8.75C9.44031 23.75 10 24.3097 10 25V26.25C10 26.9403 9.44031 27.5 8.75 27.5Z" fill="white"/>
</svg>
