<svg width="46" height="46" viewBox="0 0 46 46" fill="none" xmlns="http://www.w3.org/2000/svg">
<path d="M41.957 5.48047H4.04297C1.81368 5.48047 0 7.29414 0 9.52344C0 10.6773 0 35.4999 0 36.4766C0 38.7059 1.81368 40.5195 4.04297 40.5195H41.957C44.1863 40.5195 46 38.7059 46 36.4766C46 35.3227 46 10.5001 46 9.52344C46 7.29414 44.1863 5.48047 41.957 5.48047ZM2.69531 16.2617H6.73828C7.48138 16.2617 8.08594 16.8663 8.08594 17.6094V28.3906C8.08594 29.1337 7.48138 29.7383 6.73828 29.7383H2.69531V16.2617ZM21.6523 37.8242H4.04297C3.29987 37.8242 2.69531 37.2197 2.69531 36.4766V32.4336H6.73828C8.96757 32.4336 10.7812 30.6199 10.7812 28.3906V17.6094C10.7812 15.3801 8.96757 13.5664 6.73828 13.5664H2.69531V9.52344C2.69531 8.78034 3.29987 8.17578 4.04297 8.17578H21.6523V16.3973C18.5804 17.0233 16.2617 19.7459 16.2617 23C16.2617 26.2541 18.5804 28.9766 21.6523 29.6027V37.8242ZM18.957 23C18.957 20.7707 20.7707 18.957 23 18.957C25.2293 18.957 27.043 20.7707 27.043 23C27.043 25.2293 25.2293 27.043 23 27.043C20.7707 27.043 18.957 25.2293 18.957 23ZM43.3047 29.7383H39.2617C38.5186 29.7383 37.9141 29.1337 37.9141 28.3906V17.6094C37.9141 16.8663 38.5186 16.2617 39.2617 16.2617H43.3047V29.7383ZM43.3047 13.5664H39.2617C37.0324 13.5664 35.2188 15.3801 35.2188 17.6094V28.3906C35.2188 30.6199 37.0324 32.4336 39.2617 32.4336H43.3047V36.4766C43.3047 37.2197 42.7001 37.8242 41.957 37.8242H24.3477V29.6027C27.4196 28.9767 29.7383 26.2541 29.7383 23C29.7383 19.7459 27.4196 17.0234 24.3477 16.3973V8.17578H41.957C42.7001 8.17578 43.3047 8.78034 43.3047 9.52344V13.5664Z" fill="white"/>
</svg>
