<svg width="34" height="34" viewBox="0 0 34 34" fill="none" xmlns="http://www.w3.org/2000/svg">
<path d="M23.5498 4.2556L20.1519 4.25C16.3344 4.25 13.8674 6.85002 13.8674 10.8742V13.9284H10.4509C10.1557 13.9284 9.91666 14.1743 9.91666 14.4776V18.9028C9.91666 19.206 10.156 19.4516 10.4509 19.4516H13.8674V30.6178C13.8674 30.9211 14.1065 31.1667 14.4017 31.1667H18.8592C19.1545 31.1667 19.3935 30.9208 19.3935 30.6178V19.4516H23.3882C23.6834 19.4516 23.9225 19.206 23.9225 18.9028L23.9241 14.4776C23.9241 14.332 23.8677 14.1925 23.7677 14.0895C23.6676 13.9864 23.5313 13.9284 23.3896 13.9284H19.3935V11.3393C19.3935 10.0949 19.6822 9.46319 21.2603 9.46319L23.5493 9.46235C23.8443 9.46235 24.0833 9.21649 24.0833 8.91351V4.80445C24.0833 4.50174 23.8445 4.25616 23.5498 4.2556Z" fill="white"/>
</svg>
