<svg width="30" height="30" viewBox="0 0 30 30" fill="none" xmlns="http://www.w3.org/2000/svg">
<path d="M15.0001 13.1582H27.1374C27.2713 13.906 27.3383 14.6203 27.3383 15.3011C27.3383 17.7229 26.8304 19.8853 25.8148 21.7882C24.7992 23.6911 23.3511 25.1783 21.4705 26.2497C19.5899 27.3211 17.4331 27.8569 15.0001 27.8569C13.2479 27.8569 11.5793 27.5192 9.99451 26.844C8.40969 26.1688 7.0425 25.2564 5.89294 24.1069C4.74339 22.9573 3.831 21.5901 3.15578 20.0053C2.48056 18.4205 2.14294 16.752 2.14294 14.9997C2.14294 13.2475 2.48056 11.579 3.15578 9.99414C3.831 8.40932 4.74339 7.04213 5.89294 5.89258C7.0425 4.74302 8.40969 3.83064 9.99451 3.15541C11.5793 2.48019 13.2479 2.14258 15.0001 2.14258C18.3483 2.14258 21.2222 3.26423 23.6217 5.50753L20.1229 8.87249C18.7501 7.54436 17.0425 6.8803 15.0001 6.8803C13.5604 6.8803 12.2294 7.24302 11.0073 7.96847C9.78524 8.69392 8.81705 9.67885 8.10277 10.9233C7.38848 12.1677 7.03134 13.5265 7.03134 14.9997C7.03134 16.4729 7.38848 17.8317 8.10277 19.0762C8.81705 20.3206 9.78524 21.3055 11.0073 22.031C12.2294 22.7564 13.5604 23.1191 15.0001 23.1191C15.9711 23.1191 16.8639 22.9852 17.6787 22.7174C18.4934 22.4495 19.163 22.1147 19.6876 21.7129C20.2121 21.3111 20.6697 20.8535 21.0604 20.3401C21.451 19.8267 21.7384 19.3412 21.9225 18.8836C22.1067 18.4261 22.2322 17.9908 22.2992 17.5778H15.0001V13.1582Z" fill="white"/>
</svg>
