<svg width="29" height="29" viewBox="0 0 29 29" fill="none" xmlns="http://www.w3.org/2000/svg">
<path d="M25.6016 2.26562H24.2422V0H21.9766V2.26562H7.02344V0H4.75781V2.26562H3.39844C1.52454 2.26562 0 3.79016 0 5.66406V25.6016C0 27.4755 1.52454 29 3.39844 29H25.6016C27.4755 29 29 27.4755 29 25.6016V5.66406C29 3.79016 27.4755 2.26562 25.6016 2.26562ZM3.39844 4.53125H4.75781V6.79688H7.02344V4.53125H21.9766V6.79688H24.2422V4.53125H25.6016C26.2262 4.53125 26.7344 5.03943 26.7344 5.66406V8.38281H2.26562V5.66406C2.26562 5.03943 2.7738 4.53125 3.39844 4.53125ZM25.6016 26.7344H3.39844C2.7738 26.7344 2.26562 26.2262 2.26562 25.6016V10.6484H26.7344V25.6016C26.7344 26.2262 26.2262 26.7344 25.6016 26.7344ZM4.30469 13.0273H6.57031V15.293H4.30469V13.0273ZM8.83594 13.0273H11.1016V15.293H8.83594V13.0273ZM13.3672 13.0273H15.6328V15.293H13.3672V13.0273ZM17.8984 13.0273H20.1641V15.293H17.8984V13.0273ZM22.4297 13.0273H24.6953V15.293H22.4297V13.0273ZM4.30469 17.5586H6.57031V19.8242H4.30469V17.5586ZM8.83594 17.5586H11.1016V19.8242H8.83594V17.5586ZM13.3672 17.5586H15.6328V19.8242H13.3672V17.5586ZM17.8984 17.5586H20.1641V19.8242H17.8984V17.5586ZM4.30469 22.0898H6.57031V24.3555H4.30469V22.0898ZM8.83594 22.0898H11.1016V24.3555H8.83594V22.0898ZM13.3672 22.0898H15.6328V24.3555H13.3672V22.0898ZM17.8984 22.0898H20.1641V24.3555H17.8984V22.0898ZM22.4297 17.5586H24.6953V19.8242H22.4297V17.5586Z" fill="url(#paint0_linear)"/>
<defs>
<linearGradient id="paint0_linear" x1="14.5" y1="0" x2="14.5" y2="29" gradientUnits="userSpaceOnUse">
<stop stop-color="#0A8900"/>
<stop offset="1" stop-color="#5CCC2E"/>
</linearGradient>
</defs>
</svg>
