<svg width="105" height="105" viewBox="0 0 105 105" fill="none" xmlns="http://www.w3.org/2000/svg">
<g clip-path="url(#clip0)">
<mask id="path-1-outside-1" maskUnits="userSpaceOnUse" x="9.73914" y="-1" width="86" height="107" fill="black">
<rect fill="white" x="9.73914" y="-1" width="86" height="107"/>
<path d="M39.2192 91.465C39.7208 91.7819 40.36 91.7819 40.8616 91.465L43.5319 89.7787C45.6451 88.4443 46.9065 86.1966 46.9065 83.7662V78.9481C46.9065 78.1286 46.264 77.4529 45.4453 77.4119C44.5826 77.3686 43.7342 77.2043 42.9239 76.9234C42.2028 76.6734 41.5185 76.3334 40.8901 75.9123C40.3764 75.5682 39.7072 75.5651 39.1906 75.9039C38.5697 76.311 37.8968 76.643 37.1909 76.8908C36.3659 77.1801 35.5019 77.3528 34.6229 77.4039C33.8094 77.451 33.1741 78.1245 33.1741 78.9393V83.766C33.1741 86.1966 34.4355 88.4443 36.5486 89.7785L39.2192 91.465ZM36.2502 80.3059C36.9163 80.1886 37.5714 80.0174 38.2094 79.7936C38.8369 79.5736 39.4452 79.3031 40.0265 78.9863C40.6291 79.3205 41.2617 79.6029 41.9163 79.8299C42.54 80.0461 43.1798 80.2108 43.8303 80.3227V83.7662C43.8303 85.1349 43.1048 86.4103 41.8895 87.1779L40.0403 88.3456L38.1909 87.1779C36.9756 86.4103 36.25 85.1351 36.25 83.7662V80.3059H36.2502ZM84.3325 72.5386C83.7308 71.9391 82.7568 71.9406 82.1574 72.5429L52.4387 102.376C51.8393 102.978 51.8411 103.952 52.443 104.551C52.743 104.85 53.1358 105 53.5285 105C53.9231 105 54.3176 104.849 54.6181 104.547L84.3368 74.7139C84.9362 74.112 84.9343 73.1382 84.3325 72.5386ZM94.2601 96.091V78.0548C94.2601 73.0316 91.0957 68.4844 86.3865 66.7402L76.5393 63.0902C76.5354 63.0886 76.5315 63.0874 76.5276 63.0859L65.2897 58.9204C63.8355 58.3818 62.8585 56.9777 62.8585 55.4265V52.8544C67.6906 50.2792 71.149 45.4531 71.819 39.7823C75.5799 39.7708 78.636 36.7082 78.636 32.9446C78.636 29.2224 75.6462 26.1872 71.942 26.1101V16.9764C71.942 12.6137 69.1759 8.71377 65.059 7.27207C64.9091 7.21957 64.7938 7.10391 64.7428 6.9544C63.3208 2.7948 59.4105 0 55.013 0H43.2932C37.6234 0 33.0108 4.61262 33.0108 10.2824V26.1114C29.3286 26.2133 26.364 29.2382 26.364 32.9448C26.364 36.7084 29.4201 39.771 33.181 39.7825C33.8512 45.4533 37.3095 50.2794 42.1415 52.8546V55.4267C42.1415 56.9777 41.1645 58.3818 39.7101 58.9208L18.6139 66.74C13.9043 68.4844 10.74 73.0316 10.74 78.0548V96.091C10.74 96.0963 10.7391 96.1015 10.7391 96.1068C10.7391 96.1121 10.74 96.1172 10.74 96.1226V103.462C10.74 104.311 11.4286 105 12.278 105C13.1275 105 13.8161 104.311 13.8161 103.462V97.6449H27.8892V103.462C27.8892 104.311 28.5779 105 29.4273 105C30.2767 105 30.9654 104.311 30.9654 103.462V92.9841C30.9654 92.1346 30.2767 91.446 29.4273 91.446C28.5779 91.446 27.8892 92.1346 27.8892 92.9841V94.5689H13.8161V78.0548C13.8161 74.3121 16.1737 70.9244 19.6826 69.6246L40.7788 61.8052C41.4121 61.5706 41.9939 61.2439 42.5156 60.8475C42.542 60.8705 48.4899 65.5323 51.732 67.401C51.9697 67.538 52.2348 67.6065 52.5 67.6065C52.7652 67.6065 53.0303 67.538 53.268 67.401C56.5099 65.5325 62.458 60.8705 62.4845 60.8475C63.5449 61.6756 64.7108 61.9676 65.9228 62.436C65.5069 62.8156 65.0904 63.1883 64.6747 63.5467C61.6881 66.124 58.4342 68.4335 55.0026 70.4111L52.5 71.8532L49.9972 70.4109C47.0745 68.7266 44.2678 66.7923 41.6553 64.6624C40.997 64.1257 40.028 64.2241 39.4913 64.8826C38.9546 65.5409 39.053 66.5099 39.7115 67.0466C42.4518 69.2809 45.3957 71.3096 48.4614 73.0761L51.7322 74.961C52.2074 75.235 52.7929 75.235 53.268 74.961L56.5388 73.0761C60.1379 71.0017 63.5515 68.5792 66.6847 65.8754C67.5074 65.1654 68.3335 64.4126 69.1495 63.6316L73.1744 65.1236L35.9233 102.374C35.3227 102.975 35.3227 103.949 35.9233 104.549C36.2236 104.85 36.6173 105 37.0109 105C37.4044 105 37.7982 104.85 38.0984 104.549L76.3479 66.2999L85.3174 69.6246C88.8261 70.9242 91.1837 74.3121 91.1837 78.0546V94.5685H77.1106V92.9837C77.1106 92.1342 76.422 91.4456 75.5725 91.4456C74.7231 91.4456 74.0345 92.1342 74.0345 92.9837V103.462C74.0345 104.311 74.7231 105 75.5725 105C76.422 105 77.1106 104.311 77.1106 103.462V97.6449H91.1837V103.462C91.1837 104.311 91.8723 105 92.7218 105C93.5712 105 94.2599 104.311 94.2599 103.462V96.1228C94.2599 96.1175 94.2607 96.1123 94.2607 96.107C94.2607 96.1017 94.2601 96.0963 94.2601 96.091ZM71.942 29.19C73.9493 29.2667 75.5598 30.919 75.5598 32.9448C75.5598 34.9705 73.9493 36.6229 71.942 36.6996V29.19ZM33.058 36.6993C31.0507 36.6226 29.4402 34.9703 29.4402 32.9446C29.4402 30.9188 31.0507 29.2665 33.058 29.1898V36.6993ZM36.087 10.2824C36.087 6.30882 39.3196 3.07617 43.2932 3.07617H55.013C58.095 3.07617 60.8354 5.03467 61.8321 7.94985C62.1906 8.9978 62.9961 9.80909 64.0422 10.1756C66.9273 11.186 68.8659 13.9191 68.8659 16.9766V26.0681C67.0608 25.9918 64.7715 25.5913 62.3971 24.3867C60.7462 23.5493 59.2643 22.4302 57.9924 21.0611C56.8602 19.8417 55.0399 19.6438 53.664 20.5905C51.403 22.1466 48.9501 23.3976 46.3735 24.3081C43.0605 25.4791 39.6061 26.0757 36.087 26.0894V10.2824ZM52.5 64.2846C49.6626 62.5886 46.9678 60.6406 44.4845 58.4827C44.9552 57.5517 45.2177 56.5091 45.2177 55.4263V54.1248C46.779 54.5963 48.4323 54.8529 50.1453 54.8529H54.8545C56.5675 54.8529 58.2211 54.5961 59.7821 54.1248V55.4263C59.7821 56.5091 60.0446 57.5517 60.5153 58.4825C58.0322 60.641 55.3375 62.5886 52.5 64.2846ZM54.8545 51.7771H50.1453C42.4194 51.7771 36.134 45.4917 36.134 37.7658V29.1662C39.9868 29.1478 43.7692 28.4911 47.3985 27.2083C50.2296 26.2076 52.9243 24.8335 55.4078 23.1242C55.5147 23.0506 55.6539 23.0633 55.7384 23.1541C57.2578 24.79 59.0299 26.1278 61.0052 27.1296C63.9015 28.599 66.6912 29.0694 68.8659 29.1471V37.7653C68.8659 45.4917 62.5804 51.7771 54.8545 51.7771Z"/>
</mask>
<path d="M39.2192 91.465C39.7208 91.7819 40.36 91.7819 40.8616 91.465L43.5319 89.7787C45.6451 88.4443 46.9065 86.1966 46.9065 83.7662V78.9481C46.9065 78.1286 46.264 77.4529 45.4453 77.4119C44.5826 77.3686 43.7342 77.2043 42.9239 76.9234C42.2028 76.6734 41.5185 76.3334 40.8901 75.9123C40.3764 75.5682 39.7072 75.5651 39.1906 75.9039C38.5697 76.311 37.8968 76.643 37.1909 76.8908C36.3659 77.1801 35.5019 77.3528 34.6229 77.4039C33.8094 77.451 33.1741 78.1245 33.1741 78.9393V83.766C33.1741 86.1966 34.4355 88.4443 36.5486 89.7785L39.2192 91.465ZM36.2502 80.3059C36.9163 80.1886 37.5714 80.0174 38.2094 79.7936C38.8369 79.5736 39.4452 79.3031 40.0265 78.9863C40.6291 79.3205 41.2617 79.6029 41.9163 79.8299C42.54 80.0461 43.1798 80.2108 43.8303 80.3227V83.7662C43.8303 85.1349 43.1048 86.4103 41.8895 87.1779L40.0403 88.3456L38.1909 87.1779C36.9756 86.4103 36.25 85.1351 36.25 83.7662V80.3059H36.2502ZM84.3325 72.5386C83.7308 71.9391 82.7568 71.9406 82.1574 72.5429L52.4387 102.376C51.8393 102.978 51.8411 103.952 52.443 104.551C52.743 104.85 53.1358 105 53.5285 105C53.9231 105 54.3176 104.849 54.6181 104.547L84.3368 74.7139C84.9362 74.112 84.9343 73.1382 84.3325 72.5386ZM94.2601 96.091V78.0548C94.2601 73.0316 91.0957 68.4844 86.3865 66.7402L76.5393 63.0902C76.5354 63.0886 76.5315 63.0874 76.5276 63.0859L65.2897 58.9204C63.8355 58.3818 62.8585 56.9777 62.8585 55.4265V52.8544C67.6906 50.2792 71.149 45.4531 71.819 39.7823C75.5799 39.7708 78.636 36.7082 78.636 32.9446C78.636 29.2224 75.6462 26.1872 71.942 26.1101V16.9764C71.942 12.6137 69.1759 8.71377 65.059 7.27207C64.9091 7.21957 64.7938 7.10391 64.7428 6.9544C63.3208 2.7948 59.4105 0 55.013 0H43.2932C37.6234 0 33.0108 4.61262 33.0108 10.2824V26.1114C29.3286 26.2133 26.364 29.2382 26.364 32.9448C26.364 36.7084 29.4201 39.771 33.181 39.7825C33.8512 45.4533 37.3095 50.2794 42.1415 52.8546V55.4267C42.1415 56.9777 41.1645 58.3818 39.7101 58.9208L18.6139 66.74C13.9043 68.4844 10.74 73.0316 10.74 78.0548V96.091C10.74 96.0963 10.7391 96.1015 10.7391 96.1068C10.7391 96.1121 10.74 96.1172 10.74 96.1226V103.462C10.74 104.311 11.4286 105 12.278 105C13.1275 105 13.8161 104.311 13.8161 103.462V97.6449H27.8892V103.462C27.8892 104.311 28.5779 105 29.4273 105C30.2767 105 30.9654 104.311 30.9654 103.462V92.9841C30.9654 92.1346 30.2767 91.446 29.4273 91.446C28.5779 91.446 27.8892 92.1346 27.8892 92.9841V94.5689H13.8161V78.0548C13.8161 74.3121 16.1737 70.9244 19.6826 69.6246L40.7788 61.8052C41.4121 61.5706 41.9939 61.2439 42.5156 60.8475C42.542 60.8705 48.4899 65.5323 51.732 67.401C51.9697 67.538 52.2348 67.6065 52.5 67.6065C52.7652 67.6065 53.0303 67.538 53.268 67.401C56.5099 65.5325 62.458 60.8705 62.4845 60.8475C63.5449 61.6756 64.7108 61.9676 65.9228 62.436C65.5069 62.8156 65.0904 63.1883 64.6747 63.5467C61.6881 66.124 58.4342 68.4335 55.0026 70.4111L52.5 71.8532L49.9972 70.4109C47.0745 68.7266 44.2678 66.7923 41.6553 64.6624C40.997 64.1257 40.028 64.2241 39.4913 64.8826C38.9546 65.5409 39.053 66.5099 39.7115 67.0466C42.4518 69.2809 45.3957 71.3096 48.4614 73.0761L51.7322 74.961C52.2074 75.235 52.7929 75.235 53.268 74.961L56.5388 73.0761C60.1379 71.0017 63.5515 68.5792 66.6847 65.8754C67.5074 65.1654 68.3335 64.4126 69.1495 63.6316L73.1744 65.1236L35.9233 102.374C35.3227 102.975 35.3227 103.949 35.9233 104.549C36.2236 104.85 36.6173 105 37.0109 105C37.4044 105 37.7982 104.85 38.0984 104.549L76.3479 66.2999L85.3174 69.6246C88.8261 70.9242 91.1837 74.3121 91.1837 78.0546V94.5685H77.1106V92.9837C77.1106 92.1342 76.422 91.4456 75.5725 91.4456C74.7231 91.4456 74.0345 92.1342 74.0345 92.9837V103.462C74.0345 104.311 74.7231 105 75.5725 105C76.422 105 77.1106 104.311 77.1106 103.462V97.6449H91.1837V103.462C91.1837 104.311 91.8723 105 92.7218 105C93.5712 105 94.2599 104.311 94.2599 103.462V96.1228C94.2599 96.1175 94.2607 96.1123 94.2607 96.107C94.2607 96.1017 94.2601 96.0963 94.2601 96.091ZM71.942 29.19C73.9493 29.2667 75.5598 30.919 75.5598 32.9448C75.5598 34.9705 73.9493 36.6229 71.942 36.6996V29.19ZM33.058 36.6993C31.0507 36.6226 29.4402 34.9703 29.4402 32.9446C29.4402 30.9188 31.0507 29.2665 33.058 29.1898V36.6993ZM36.087 10.2824C36.087 6.30882 39.3196 3.07617 43.2932 3.07617H55.013C58.095 3.07617 60.8354 5.03467 61.8321 7.94985C62.1906 8.9978 62.9961 9.80909 64.0422 10.1756C66.9273 11.186 68.8659 13.9191 68.8659 16.9766V26.0681C67.0608 25.9918 64.7715 25.5913 62.3971 24.3867C60.7462 23.5493 59.2643 22.4302 57.9924 21.0611C56.8602 19.8417 55.0399 19.6438 53.664 20.5905C51.403 22.1466 48.9501 23.3976 46.3735 24.3081C43.0605 25.4791 39.6061 26.0757 36.087 26.0894V10.2824ZM52.5 64.2846C49.6626 62.5886 46.9678 60.6406 44.4845 58.4827C44.9552 57.5517 45.2177 56.5091 45.2177 55.4263V54.1248C46.779 54.5963 48.4323 54.8529 50.1453 54.8529H54.8545C56.5675 54.8529 58.2211 54.5961 59.7821 54.1248V55.4263C59.7821 56.5091 60.0446 57.5517 60.5153 58.4825C58.0322 60.641 55.3375 62.5886 52.5 64.2846ZM54.8545 51.7771H50.1453C42.4194 51.7771 36.134 45.4917 36.134 37.7658V29.1662C39.9868 29.1478 43.7692 28.4911 47.3985 27.2083C50.2296 26.2076 52.9243 24.8335 55.4078 23.1242C55.5147 23.0506 55.6539 23.0633 55.7384 23.1541C57.2578 24.79 59.0299 26.1278 61.0052 27.1296C63.9015 28.599 66.6912 29.0694 68.8659 29.1471V37.7653C68.8659 45.4917 62.5804 51.7771 54.8545 51.7771Z" fill="#2282d6"/>
<path d="M39.2192 91.465C39.7208 91.7819 40.36 91.7819 40.8616 91.465L43.5319 89.7787C45.6451 88.4443 46.9065 86.1966 46.9065 83.7662V78.9481C46.9065 78.1286 46.264 77.4529 45.4453 77.4119C44.5826 77.3686 43.7342 77.2043 42.9239 76.9234C42.2028 76.6734 41.5185 76.3334 40.8901 75.9123C40.3764 75.5682 39.7072 75.5651 39.1906 75.9039C38.5697 76.311 37.8968 76.643 37.1909 76.8908C36.3659 77.1801 35.5019 77.3528 34.6229 77.4039C33.8094 77.451 33.1741 78.1245 33.1741 78.9393V83.766C33.1741 86.1966 34.4355 88.4443 36.5486 89.7785L39.2192 91.465ZM36.2502 80.3059C36.9163 80.1886 37.5714 80.0174 38.2094 79.7936C38.8369 79.5736 39.4452 79.3031 40.0265 78.9863C40.6291 79.3205 41.2617 79.6029 41.9163 79.8299C42.54 80.0461 43.1798 80.2108 43.8303 80.3227V83.7662C43.8303 85.1349 43.1048 86.4103 41.8895 87.1779L40.0403 88.3456L38.1909 87.1779C36.9756 86.4103 36.25 85.1351 36.25 83.7662V80.3059H36.2502ZM84.3325 72.5386C83.7308 71.9391 82.7568 71.9406 82.1574 72.5429L52.4387 102.376C51.8393 102.978 51.8411 103.952 52.443 104.551C52.743 104.85 53.1358 105 53.5285 105C53.9231 105 54.3176 104.849 54.6181 104.547L84.3368 74.7139C84.9362 74.112 84.9343 73.1382 84.3325 72.5386ZM94.2601 96.091V78.0548C94.2601 73.0316 91.0957 68.4844 86.3865 66.7402L76.5393 63.0902C76.5354 63.0886 76.5315 63.0874 76.5276 63.0859L65.2897 58.9204C63.8355 58.3818 62.8585 56.9777 62.8585 55.4265V52.8544C67.6906 50.2792 71.149 45.4531 71.819 39.7823C75.5799 39.7708 78.636 36.7082 78.636 32.9446C78.636 29.2224 75.6462 26.1872 71.942 26.1101V16.9764C71.942 12.6137 69.1759 8.71377 65.059 7.27207C64.9091 7.21957 64.7938 7.10391 64.7428 6.9544C63.3208 2.7948 59.4105 0 55.013 0H43.2932C37.6234 0 33.0108 4.61262 33.0108 10.2824V26.1114C29.3286 26.2133 26.364 29.2382 26.364 32.9448C26.364 36.7084 29.4201 39.771 33.181 39.7825C33.8512 45.4533 37.3095 50.2794 42.1415 52.8546V55.4267C42.1415 56.9777 41.1645 58.3818 39.7101 58.9208L18.6139 66.74C13.9043 68.4844 10.74 73.0316 10.74 78.0548V96.091C10.74 96.0963 10.7391 96.1015 10.7391 96.1068C10.7391 96.1121 10.74 96.1172 10.74 96.1226V103.462C10.74 104.311 11.4286 105 12.278 105C13.1275 105 13.8161 104.311 13.8161 103.462V97.6449H27.8892V103.462C27.8892 104.311 28.5779 105 29.4273 105C30.2767 105 30.9654 104.311 30.9654 103.462V92.9841C30.9654 92.1346 30.2767 91.446 29.4273 91.446C28.5779 91.446 27.8892 92.1346 27.8892 92.9841V94.5689H13.8161V78.0548C13.8161 74.3121 16.1737 70.9244 19.6826 69.6246L40.7788 61.8052C41.4121 61.5706 41.9939 61.2439 42.5156 60.8475C42.542 60.8705 48.4899 65.5323 51.732 67.401C51.9697 67.538 52.2348 67.6065 52.5 67.6065C52.7652 67.6065 53.0303 67.538 53.268 67.401C56.5099 65.5325 62.458 60.8705 62.4845 60.8475C63.5449 61.6756 64.7108 61.9676 65.9228 62.436C65.5069 62.8156 65.0904 63.1883 64.6747 63.5467C61.6881 66.124 58.4342 68.4335 55.0026 70.4111L52.5 71.8532L49.9972 70.4109C47.0745 68.7266 44.2678 66.7923 41.6553 64.6624C40.997 64.1257 40.028 64.2241 39.4913 64.8826C38.9546 65.5409 39.053 66.5099 39.7115 67.0466C42.4518 69.2809 45.3957 71.3096 48.4614 73.0761L51.7322 74.961C52.2074 75.235 52.7929 75.235 53.268 74.961L56.5388 73.0761C60.1379 71.0017 63.5515 68.5792 66.6847 65.8754C67.5074 65.1654 68.3335 64.4126 69.1495 63.6316L73.1744 65.1236L35.9233 102.374C35.3227 102.975 35.3227 103.949 35.9233 104.549C36.2236 104.85 36.6173 105 37.0109 105C37.4044 105 37.7982 104.85 38.0984 104.549L76.3479 66.2999L85.3174 69.6246C88.8261 70.9242 91.1837 74.3121 91.1837 78.0546V94.5685H77.1106V92.9837C77.1106 92.1342 76.422 91.4456 75.5725 91.4456C74.7231 91.4456 74.0345 92.1342 74.0345 92.9837V103.462C74.0345 104.311 74.7231 105 75.5725 105C76.422 105 77.1106 104.311 77.1106 103.462V97.6449H91.1837V103.462C91.1837 104.311 91.8723 105 92.7218 105C93.5712 105 94.2599 104.311 94.2599 103.462V96.1228C94.2599 96.1175 94.2607 96.1123 94.2607 96.107C94.2607 96.1017 94.2601 96.0963 94.2601 96.091ZM71.942 29.19C73.9493 29.2667 75.5598 30.919 75.5598 32.9448C75.5598 34.9705 73.9493 36.6229 71.942 36.6996V29.19ZM33.058 36.6993C31.0507 36.6226 29.4402 34.9703 29.4402 32.9446C29.4402 30.9188 31.0507 29.2665 33.058 29.1898V36.6993ZM36.087 10.2824C36.087 6.30882 39.3196 3.07617 43.2932 3.07617H55.013C58.095 3.07617 60.8354 5.03467 61.8321 7.94985C62.1906 8.9978 62.9961 9.80909 64.0422 10.1756C66.9273 11.186 68.8659 13.9191 68.8659 16.9766V26.0681C67.0608 25.9918 64.7715 25.5913 62.3971 24.3867C60.7462 23.5493 59.2643 22.4302 57.9924 21.0611C56.8602 19.8417 55.0399 19.6438 53.664 20.5905C51.403 22.1466 48.9501 23.3976 46.3735 24.3081C43.0605 25.4791 39.6061 26.0757 36.087 26.0894V10.2824ZM52.5 64.2846C49.6626 62.5886 46.9678 60.6406 44.4845 58.4827C44.9552 57.5517 45.2177 56.5091 45.2177 55.4263V54.1248C46.779 54.5963 48.4323 54.8529 50.1453 54.8529H54.8545C56.5675 54.8529 58.2211 54.5961 59.7821 54.1248V55.4263C59.7821 56.5091 60.0446 57.5517 60.5153 58.4825C58.0322 60.641 55.3375 62.5886 52.5 64.2846ZM54.8545 51.7771H50.1453C42.4194 51.7771 36.134 45.4917 36.134 37.7658V29.1662C39.9868 29.1478 43.7692 28.4911 47.3985 27.2083C50.2296 26.2076 52.9243 24.8335 55.4078 23.1242C55.5147 23.0506 55.6539 23.0633 55.7384 23.1541C57.2578 24.79 59.0299 26.1278 61.0052 27.1296C63.9015 28.599 66.6912 29.0694 68.8659 29.1471V37.7653C68.8659 45.4917 62.5804 51.7771 54.8545 51.7771Z" stroke="#2282d6" mask="url(#path-1-outside-1)"/>
</g>
<defs>
<clipPath id="clip0">
<rect width="105" height="105" fill="white"/>
</clipPath>
</defs>
</svg>
