<svg width="105" height="105" viewBox="0 0 105 105" fill="none" xmlns="http://www.w3.org/2000/svg">
<path d="M93.3249 76.3034C92.9435 76.6849 92.4144 76.9043 91.875 76.9043C91.3356 76.9043 90.8065 76.6849 90.4251 76.3034C90.0437 75.922 89.8242 75.3929 89.8242 74.8535C89.8242 74.3142 90.0437 73.7851 90.4251 73.4036C90.8065 73.0222 91.3356 72.8027 91.875 72.8027C92.4144 72.8027 92.9435 73.0222 93.3249 73.4036C93.7063 73.7851 93.9258 74.3142 93.9258 74.8535C93.9258 75.3929 93.7063 75.922 93.3249 76.3034Z" fill="#2282d6"/>
<path d="M91.875 81.6211C93.0076 81.6211 93.9258 82.5392 93.9258 83.6719V102.949C93.9258 104.082 93.0076 105 91.875 105H13.125C11.9924 105 11.0742 104.082 11.0742 102.949V2.05078C11.0742 0.918137 11.9924 0 13.125 0H91.875C93.0076 0 93.9258 0.918137 93.9258 2.05078V66.1719C93.9258 67.3046 93.0076 68.2227 91.875 68.2227C90.7424 68.2227 89.8242 67.3046 89.8242 66.1719V54.5249H68.0909C67.1055 62.2392 60.5036 68.2227 52.526 68.2227C44.5485 68.2227 37.9466 62.239 36.9612 54.5249H15.1758V100.898H24.8145V85.1074C24.8145 83.9748 25.7326 83.0566 26.8652 83.0566H40.4338C42.816 78.6343 47.4223 75.8445 52.526 75.8445C57.63 75.8445 62.2363 78.6343 64.6183 83.0566H78.1348C79.2674 83.0566 80.1855 83.9748 80.1855 85.1074V100.898H89.8242V83.6719C89.8242 82.5392 90.7424 81.6211 91.875 81.6211ZM63.2666 4.15365H41.7334V8.97298H63.2666V4.15365ZM76.084 4.15365H67.3682V11.0238C67.3682 12.1564 66.45 13.0745 65.3174 13.0745H39.6826C38.55 13.0745 37.6318 12.1564 37.6318 11.0238V4.15365H28.916V17.8939H63.324C63.3255 17.8939 63.3267 17.8937 63.3281 17.8937C63.3302 17.8937 63.3322 17.8939 63.3343 17.8939H76.084V4.15365ZM45.4289 21.9954C47.2194 23.9451 49.7692 25.1061 52.526 25.1061C55.2831 25.1061 57.8326 23.9451 59.6232 21.9954H45.4289ZM52.526 64.1212C58.2377 64.1212 62.9947 59.9687 63.945 54.5249H41.1069C42.0574 59.9685 46.8144 64.1212 52.526 64.1212ZM63.9263 50.4232C62.9338 45.0306 58.2012 40.9309 52.5258 40.9309C46.8505 40.9309 42.1179 45.0306 41.1253 50.4232H63.9263ZM36.9744 50.4232C38.0057 42.7594 44.5842 36.8294 52.526 36.8294C60.4679 36.8294 67.0464 42.7592 68.0777 50.4232H89.8242V4.10156H80.1855V19.9447C80.1855 21.0773 79.2674 21.9954 78.1348 21.9954H64.6183C62.2363 26.4178 57.6298 29.2076 52.526 29.2076C47.4223 29.2076 42.816 26.4178 40.4338 21.9954H26.8652C25.7326 21.9954 24.8145 21.0773 24.8145 19.9447V4.10156H15.1758V50.4232H36.9744ZM52.526 79.946C49.7692 79.946 47.2194 81.107 45.4289 83.0566H59.6232C57.8326 81.107 55.2831 79.946 52.526 79.946ZM76.084 87.1582H63.3216C63.3175 87.1582 63.3132 87.1582 63.3091 87.1582H28.916V100.898H37.6318V93.9762C37.6318 92.8436 38.55 91.9254 39.6826 91.9254H45.8692C47.0019 91.9254 47.92 92.8436 47.92 93.9762C47.92 95.1089 47.0019 96.027 45.8692 96.027H41.7334V100.846H63.2666V96.027H59.1308C57.9981 96.027 57.08 95.1089 57.08 93.9762C57.08 92.8436 57.9981 91.9254 59.1308 91.9254H65.3174C66.45 91.9254 67.3682 92.8436 67.3682 93.9762V100.898H76.084V87.1582Z" fill="#2282d6"/>
<path d="M53.9499 95.4265C53.5685 95.8079 53.0394 96.0273 52.5 96.0273C51.9606 96.0273 51.4315 95.8079 51.0501 95.4265C50.6687 95.045 50.4492 94.5159 50.4492 93.9766C50.4492 93.4352 50.6687 92.9081 51.0501 92.5246C51.4315 92.1432 51.9606 91.9258 52.5 91.9258C53.0394 91.9258 53.5685 92.1432 53.9499 92.5246C54.3313 92.9081 54.5508 93.4352 54.5508 93.9766C54.5508 94.5159 54.3313 95.045 53.9499 95.4265Z" fill="#2282d6"/>
</svg>
