<svg width="28" height="28" viewBox="0 0 28 28" fill="none" xmlns="http://www.w3.org/2000/svg">
<path d="M23.8882 4.11184C21.2366 1.46027 17.7249 0 14 0C10.2751 0 6.76337 1.46027 4.11184 4.11184C1.46027 6.76337 0 10.2751 0 14C0 17.7249 1.46027 21.2366 4.11184 23.8882C6.76337 26.5397 10.2751 28 14 28C17.7249 28 21.2366 26.5397 23.8882 23.8882C26.5397 21.2366 28 17.7249 28 14C28 10.2751 26.5397 6.76337 23.8882 4.11184ZM14 26.3594C7.18501 26.3594 1.64062 20.815 1.64062 14C1.64062 7.18501 7.18501 1.64062 14 1.64062C20.815 1.64062 26.3594 7.18501 26.3594 14C26.3594 20.815 20.815 26.3594 14 26.3594Z" fill="url(#paint0_linear)"/>
<path d="M14 3.33594C8.11984 3.33594 3.33594 8.11984 3.33594 14C3.33594 19.8802 8.11984 24.6641 14 24.6641C19.8802 24.6641 24.6641 19.8802 24.6641 14C24.6641 8.11984 19.8802 3.33594 14 3.33594ZM14 23.0234C9.02448 23.0234 4.97656 18.9755 4.97656 14C4.97656 9.02448 9.02448 4.97656 14 4.97656C18.9755 4.97656 23.0234 9.02448 23.0234 14C23.0234 18.9755 18.9755 23.0234 14 23.0234Z" fill="url(#paint1_linear)"/>
<path d="M16.4609 11.5308C16.4609 11.9838 16.8282 12.3511 17.2812 12.3511C17.7343 12.3511 18.1016 11.9838 18.1016 11.5308C18.1016 10.6223 17.6317 9.74888 16.8124 9.13441C16.2527 8.71468 15.5642 8.4343 14.8203 8.31503V7.4292C14.8203 6.97617 14.453 6.60889 14 6.60889C13.547 6.60889 13.1797 6.97617 13.1797 7.4292V8.31503C12.4358 8.4343 11.7472 8.71468 11.1876 9.13441C10.3683 9.74888 9.89844 10.6223 9.89844 11.5308C9.89844 12.4393 10.3683 13.3127 11.1876 13.9272C11.7473 14.3469 12.4358 14.6273 13.1797 14.7466V17.9955C12.2347 17.7646 11.5391 17.1513 11.5391 16.4527C11.5391 15.9997 11.1718 15.6324 10.7188 15.6324C10.2657 15.6324 9.89844 15.9997 9.89844 16.4527C9.89844 17.3612 10.3683 18.2346 11.1876 18.8491C11.7473 19.2688 12.4358 19.5492 13.1797 19.6685V20.5626C13.1797 21.0156 13.547 21.3829 14 21.3829C14.453 21.3829 14.8203 21.0156 14.8203 20.5626V19.6685C15.5642 19.5492 16.2528 19.2688 16.8124 18.8491C17.6317 18.2346 18.1016 17.3612 18.1016 16.4527C18.1016 15.5442 17.6317 14.6708 16.8124 14.0563C16.2527 13.6366 15.5642 13.3562 14.8203 13.2369V9.98797C15.7653 10.219 16.4609 10.8322 16.4609 11.5308ZM11.5391 11.5308C11.5391 10.8322 12.2347 10.2189 13.1797 9.98797V13.0736C12.2347 12.8427 11.5391 12.2294 11.5391 11.5308ZM16.4609 16.4527C16.4609 17.1513 15.7653 17.7646 14.8203 17.9955V14.9099C15.7653 15.1408 16.4609 15.7541 16.4609 16.4527Z" fill="url(#paint2_linear)"/>
<defs>
<linearGradient id="paint0_linear" x1="14" y1="0" x2="14" y2="28" gradientUnits="userSpaceOnUse">
<stop stop-color="#13C500"/>
<stop offset="1" stop-color="#0A8900"/>
</linearGradient>
<linearGradient id="paint1_linear" x1="14" y1="3.33594" x2="14" y2="24.6641" gradientUnits="userSpaceOnUse">
<stop stop-color="#13C500"/>
<stop offset="1" stop-color="#0A8900"/>
</linearGradient>
<linearGradient id="paint2_linear" x1="14" y1="6.60889" x2="14" y2="21.3829" gradientUnits="userSpaceOnUse">
<stop stop-color="#13C500"/>
<stop offset="1" stop-color="#0A8900"/>
</linearGradient>
</defs>
</svg>
