<svg width="30" height="30" viewBox="0 0 30 30" fill="none" xmlns="http://www.w3.org/2000/svg">
<path fill-rule="evenodd" clip-rule="evenodd" d="M25.2892 11.2966C24.6225 11.9632 24.2892 12.2966 23.875 12.2966C23.4608 12.2966 23.1275 11.9632 22.4608 11.2966L20.2892 9.125C19.6225 8.45833 19.2892 8.125 19.2892 7.71079C19.2892 7.29657 19.6225 6.96324 20.2892 6.29657L20.5858 6C21.2525 5.33333 21.5858 5 22 5C22.4142 5 22.7475 5.33333 23.4142 6L25.5858 8.17157C26.2525 8.83824 26.5858 9.17157 26.5858 9.58579C26.5858 10 26.2525 10.3333 25.5858 11L25.2892 11.2966ZM9 24.5858C8.05719 24.5858 7.58579 24.5858 7.29289 24.2929C7 24 7 23.5286 7 22.5858V20.4142C7 20.0055 7 19.8011 7.07612 19.6173C7.15224 19.4335 7.29676 19.289 7.58579 19L16.2108 10.375C16.8775 9.70833 17.2108 9.375 17.625 9.375C18.0392 9.375 18.3725 9.70833 19.0392 10.375L21.2108 12.5466C21.8775 13.2132 22.2108 13.5466 22.2108 13.9608C22.2108 14.375 21.8775 14.7083 21.2108 15.375L12.5858 24C12.2968 24.289 12.1522 24.4335 11.9685 24.5097C11.7847 24.5858 11.5803 24.5858 11.1716 24.5858H9Z" fill="#0A8900"/>
</svg>
