<svg width="60" height="60" viewBox="0 0 60 60" fill="none" xmlns="http://www.w3.org/2000/svg">
<path fill-rule="evenodd" clip-rule="evenodd" d="M30 44C29.4477 44 29 44.4441 29 44.9921V45.0079C29 45.5559 29.4477 46 30 46C30.5523 46 31 45.5559 31 45.0079V45.004V45V44.996V44.9921C31 44.4441 30.5523 44 30 44Z" fill="white"/>
<path fill-rule="evenodd" clip-rule="evenodd" d="M48.5156 0H11.4844C5.1518 0 0 5.1518 0 11.4844V48.5156C0 54.8482 5.1518 60 11.4844 60H30C30.6472 60 31.1719 59.4754 31.1719 58.8281V49.7461C31.1719 49.0989 30.6472 48.5742 30 48.5742C29.3528 48.5742 28.8281 49.0989 28.8281 49.7461V57.6562H11.4844C6.44426 57.6562 2.34375 53.5557 2.34375 48.5156V11.4844C2.34375 6.44426 6.44426 2.34375 11.4844 2.34375H48.5156C53.5557 2.34375 57.6562 6.44426 57.6562 11.4844V48.5156C57.6562 53.5557 53.5557 57.6562 48.5156 57.6562H41.0156V36.9728H47.8103C48.4121 36.9728 48.9161 36.5169 48.9763 35.9182L49.819 27.5446C49.8521 27.2149 49.7443 26.8868 49.5221 26.6412C49.3 26.3955 48.9841 26.2554 48.653 26.2554H41.0156V21.8584C41.0156 21.0626 41.2691 20.7667 41.9509 20.7667H48.6004C49.2476 20.7667 49.7722 20.242 49.7722 19.5948V11.4315C49.7722 10.7843 49.2476 10.2596 48.6004 10.2596H39.8679C34.9199 10.2596 32.2958 12.433 30.9659 14.2562C29.1057 16.806 28.828 19.8172 28.828 21.3852V26.3079H23.0858C22.4386 26.3079 21.9139 26.8325 21.9139 27.4798V35.8008C21.9139 36.448 22.4386 36.9727 23.0858 36.9727H28.828V40.3125C28.828 40.9597 29.3527 41.4844 29.9999 41.4844C30.6471 41.4844 31.1718 40.9597 31.1718 40.3125V35.8008C31.1718 35.1536 30.6471 34.6289 29.9999 34.6289H24.2577V28.6515H29.9999C30.6471 28.6515 31.1718 28.1269 31.1718 27.4796V21.3851C31.1718 18.7446 32.0191 12.6033 39.8679 12.6033H47.4285V18.4228H41.9509C40.4382 18.4228 38.6719 19.3226 38.6719 21.8583V27.4271C38.6719 28.0744 39.1965 28.599 39.8438 28.599H47.3572L46.7504 34.6289H39.8438C39.1965 34.6289 38.6719 35.1536 38.6719 35.8008V58.8281C38.6719 59.4754 39.1965 60 39.8438 60H48.5156C54.8482 60 60 54.8482 60 48.5156V11.4844C60 5.1518 54.8482 0 48.5156 0Z" fill="white"/>
<path fill-rule="evenodd" clip-rule="evenodd" d="M7 12C6.4477 12 6 12.5191 6 13.1594V22.8406C6 23.4809 6.4477 24 7 24C7.5523 24 8 23.4809 8 22.8406V13.1594C8 12.5191 7.5523 12 7 12Z" fill="white"/>
<path fill-rule="evenodd" clip-rule="evenodd" d="M7 27C6.4477 27 6 27.4451 6 27.9941V28.0059C6 28.5549 6.4477 29 7 29C7.5523 29 8 28.5549 8 28.0059V27.9941C8 27.4451 7.5523 27 7 27Z" fill="white"/>
</svg>
