<svg width="60" height="60" viewBox="0 0 60 60" fill="none" xmlns="http://www.w3.org/2000/svg">
<path fill-rule="evenodd" clip-rule="evenodd" d="M17.5781 0H42.4219C52.1145 0 60 7.88555 60 17.5781V42.4219C60 52.1145 52.1145 60 42.4219 60H17.5781C7.88555 60 0 52.1145 0 42.4219V17.5781C0 7.88555 7.88555 0 17.5781 0ZM42.4219 57.6562C50.8221 57.6562 57.6562 50.8221 57.6562 42.4219V17.5781C57.6562 9.17789 50.8221 2.34375 42.4219 2.34375H17.5781C9.17789 2.34375 2.34375 9.17789 2.34375 17.5781V42.4219C2.34375 50.8221 9.17789 57.6562 17.5781 57.6562H42.4219Z" fill="white"/>
<path fill-rule="evenodd" clip-rule="evenodd" d="M42.5 5H17.5C10.6074 5 5 10.6074 5 17.5V42.5C5 49.3926 10.6074 55 17.5 55H24.6934C25.3447 55 25.8726 54.4721 25.8726 53.8208C25.8726 53.1695 25.3447 52.6415 24.6934 52.6415H17.5C11.908 52.6415 7.35849 48.092 7.35849 42.5V17.5C7.35849 11.908 11.908 7.35849 17.5 7.35849H42.5C48.092 7.35849 52.6415 11.908 52.6415 17.5V42.5C52.6415 48.092 48.092 52.6415 42.5 52.6415H35.3853C34.734 52.6415 34.206 53.1695 34.206 53.8208C34.206 54.4721 34.734 55 35.3853 55H42.5C49.3926 55 55 49.3926 55 42.5V17.5C55 10.6074 49.3926 5 42.5 5Z" fill="white"/>
<path fill-rule="evenodd" clip-rule="evenodd" d="M30.707 53.293C30.521 53.107 30.263 53 30 53C29.737 53 29.479 53.107 29.293 53.293C29.107 53.479 29 53.737 29 54C29 54.263 29.107 54.521 29.293 54.707C29.479 54.893 29.737 55 30 55C30.263 55 30.521 54.893 30.707 54.707C30.893 54.521 31 54.263 31 54C31 53.737 30.893 53.479 30.707 53.293Z" fill="white"/>
<path fill-rule="evenodd" clip-rule="evenodd" d="M20.7353 18.3102C20.3653 17.9149 19.7456 17.8947 19.3507 18.265L19.3073 18.3059C18.9138 18.6776 18.8958 19.2983 19.2671 19.6923C19.4598 19.8968 19.7195 20 19.9798 20C20.2209 20 20.4626 19.9113 20.6519 19.7325L20.6902 19.6965C21.0849 19.3262 21.1052 18.7055 20.7353 18.3102Z" fill="white"/>
<path fill-rule="evenodd" clip-rule="evenodd" d="M30 14C27.4534 14 24.919 14.6134 22.6705 15.774C22.1016 16.0677 21.8784 16.7671 22.1721 17.3361C22.4659 17.905 23.1652 18.1281 23.7341 17.8346C25.6826 16.8288 27.7907 16.3188 30 16.3188C37.5438 16.3188 43.6812 22.4562 43.6812 30C43.6812 37.5438 37.5438 43.6812 30 43.6812C22.4562 43.6812 16.3188 37.5438 16.3188 30C16.3188 27.6326 16.9328 25.3001 18.0943 23.2547C18.4104 22.698 18.2154 21.9903 17.6586 21.674C17.1017 21.3579 16.3941 21.5528 16.0778 22.1097C14.7185 24.5034 14 27.2319 14 30C14 38.8224 21.1776 46 30 46C38.8224 46 46 38.8224 46 30C46 21.1776 38.8224 14 30 14Z" fill="white"/>
<path fill-rule="evenodd" clip-rule="evenodd" d="M20 30.5C20 24.7103 24.7103 20 30.5 20C36.2897 20 41 24.7103 41 30.5C41 36.2897 36.2897 41 30.5 41C24.7103 41 20 36.2897 20 30.5ZM22.3333 30.5C22.3333 35.0031 25.9969 38.6667 30.5 38.6667C35.0031 38.6667 38.6667 35.0031 38.6667 30.5C38.6667 25.9969 35.0031 22.3333 30.5 22.3333C25.9969 22.3333 22.3333 25.9969 22.3333 30.5Z" fill="white"/>
<path fill-rule="evenodd" clip-rule="evenodd" d="M41 14.5C41 12.0187 43.0187 10 45.5 10C47.9813 10 50 12.0187 50 14.5C50 16.9813 47.9813 19 45.5 19C43.0187 19 41 16.9813 41 14.5ZM43.3684 14.5C43.3684 15.6753 44.3247 16.6316 45.5 16.6316C46.6753 16.6316 47.6316 15.6753 47.6316 14.5C47.6316 13.3247 46.6753 12.3684 45.5 12.3684C44.3247 12.3684 43.3684 13.3247 43.3684 14.5Z" fill="white"/>
</svg>
