<?xml version="1.0" encoding="UTF-8"?>
<svg width="58px" height="60px" viewBox="0 0 58 60" version="1.1" xmlns="http://www.w3.org/2000/svg" xmlns:xlink="http://www.w3.org/1999/xlink">
    <!-- Generator: Sketch 59 (86127) - https://sketch.com -->
    <title>phone-call</title>
    <desc>Created with Sketch.</desc>
    <g id="Symbols" stroke="none" stroke-width="1" fill="none" fill-rule="evenodd">
        <g id="Footer" transform="translate(-885.000000, -187.000000)" fill="#FFFFFF" fill-rule="nonzero">
            <g id="Group-3">
                <g id="Group-5" transform="translate(496.000000, 114.000000)">
                    <g id="Stacked-Group" transform="translate(0.000000, 73.000000)">
                        <g id="phone-call" transform="translate(389.000000, 0.000000)">
                            <path d="M40.434582,0 C39.6423416,0 39,0.629827262 39,1.40631892 C39,2.1829512 39.6423416,2.81263784 40.434582,2.81263784 C48.5381561,2.81263784 55.1308359,9.4431904 55.1308359,17.5936811 C55.1308359,18.3703134 55.773321,19 56.565418,19 C57.3576584,19 58,18.3701727 58,17.5936811 C58,7.89245696 50.1201984,0 40.434582,0 Z" id="Path"></path>
                            <path d="M40.3937867,7 C39.6240753,7 39,7.61307874 39,8.36892174 C39,9.12490162 39.6240753,9.73784348 40.3937867,9.73784348 C44.7050346,9.73784348 48.2124267,13.278753 48.2124267,17.6310783 C48.2124267,18.3870581 48.8366413,19 49.6062133,19 C50.3759247,19 51,18.3869213 51,17.6310783 C51.0001394,11.7691202 46.2420881,7 40.3937867,7 Z" id="Path"></path>
                            <path d="M40.3919922,13 C39.6231326,13 39,13.6153247 39,14.3745505 C39,15.1336388 39.623411,15.7491009 40.3919922,15.7491009 C41.3978844,15.7491009 42.2160156,16.5907914 42.2160156,17.6254495 C42.2160156,18.3845379 42.8392874,19 43.6080078,19 C44.3767282,19 45,18.3844004 45,17.6254495 C45.0001392,15.0749513 42.9328199,13 40.3919922,13 Z" id="Path"></path>
                            <path d="M25.7070293,35.2928389 C25.5210479,35.1069412 25.2640736,35 25,35 C24.7370263,35 24.4789521,35.1069412 24.2930707,35.2928389 C24.1070893,35.4787367 24,35.7365949 24,35.9995502 C24,36.2634051 24.1069893,36.5203638 24.2930707,36.7062616 C24.479952,36.8931588 24.7370263,37 25,37 C25.2629737,37 25.5210479,36.8931588 25.7070293,36.7062616 C25.8940106,36.5203638 26,36.2633052 26,35.9995502 C26,35.7366948 25.8940106,35.4788366 25.7070293,35.2928389 Z" id="Path"></path>
                            <path d="M56.7696502,48.0606694 L46.0237897,37.3147109 C44.5932523,35.8841792 42.3428206,35.6749288 40.6732993,36.8166895 L33.8148541,41.5063094 C33.2582067,41.8868028 32.5084368,41.8170994 32.0314508,41.3401152 L29.763488,39.0720211 C29.2159568,38.5246323 28.3280419,38.5244921 27.7796692,39.0720211 C27.2319978,39.6196904 27.2319978,40.5077421 27.7796692,41.0558321 L30.047632,43.3239262 C31.4781694,44.7543178 33.7283206,44.9639889 35.3981224,43.8219476 L42.2565676,39.1324681 C42.8129344,38.7519747 43.5629848,38.8215378 44.0399709,39.298522 L54.7859716,50.0444804 C55.3328016,50.591168 55.3326613,51.4811832 54.7858314,52.0282915 C47.895129,58.9189668 36.6829414,58.9189668 29.792239,52.0282915 L7.97205543,30.2079131 C4.6338543,26.8698654 2.79575397,22.4318509 2.79575397,17.7110959 C2.79575397,12.990341 4.63399455,8.55218624 7.97219568,5.21399822 C8.2371256,4.94906934 8.58929025,4.80335145 8.96389471,4.80335145 C9.33863941,4.80335145 9.69094431,4.94920959 9.95573398,5.21413847 L20.7015945,15.960097 C21.1783,16.4368006 21.2481439,17.1869884 20.8677892,17.7434933 L16.1784315,24.6019115 C15.0363858,26.2715665 15.2459174,28.5217089 16.6763146,29.9523809 L20.0854816,33.3615345 C20.6332933,33.9090635 21.5212082,33.9090635 22.0693004,33.3615345 C22.6169719,32.8138652 22.6169719,31.9256733 22.0693004,31.3777235 L18.6601334,27.9685699 C18.1834279,27.4918662 18.113584,26.7418188 18.4940789,26.1853138 L23.1835769,19.3268956 C24.3253421,17.6571004 24.1158104,15.4068178 22.6854133,13.9764262 L11.9395528,3.23046772 C10.2989227,1.58984409 7.62928745,1.58984409 5.98837688,3.23046772 C-1.99612563,11.2150791 -1.99612563,24.2069725 5.98837688,32.1915839 L27.8085604,54.0115415 C31.8008818,58.0038472 37.0449234,60 42.2889651,60 C47.5331469,60 52.7771885,58.0037069 56.7695099,54.0115415 C58.41014,52.3709178 58.41014,49.7014333 56.7696502,48.0606694 Z" id="Path"></path>
                            <path d="M18.600436,22.6706107 L10.3293407,14.3994642 C9.79631582,13.8668453 8.93258897,13.8668453 8.39956405,14.3994642 C7.86681198,14.932356 7.86681198,15.7963611 8.39956405,16.3292529 L16.6707957,24.6003994 C16.9372399,24.8667088 17.2862232,25 17.6356158,25 C17.9847355,25 18.3339917,24.8667088 18.600436,24.6003994 C19.133188,24.0675076 19.133188,23.2035025 18.600436,22.6706107 Z" id="Path"></path>
                            <path d="M51.580566,55.5547732 L42.4451764,46.419329 C41.8856447,45.8602237 40.9789656,45.8602237 40.419434,46.419329 C39.8601887,46.9787209 39.8601887,47.8856918 40.419434,48.4450836 L49.5548236,57.5805277 C49.8345178,57.8600804 50.2008557,58 50.5676232,58 C50.9341043,58 51.3007286,57.8600804 51.580566,57.5805277 C52.1398113,57.0209927 52.1398113,56.114165 51.580566,55.5547732 Z" id="Path"></path>
                        </g>
                    </g>
                </g>
            </g>
        </g>
    </g>
</svg>