<svg width="59" height="60" viewBox="0 0 59 60" fill="none" xmlns="http://www.w3.org/2000/svg">
<path fill-rule="evenodd" clip-rule="evenodd" d="M50.3893 8.70483C44.8364 3.09174 37.4533 0 29.6006 0C23.4242 0 17.5127 1.91528 12.5055 5.5394C11.9847 5.91614 11.8647 6.6481 12.2374 7.17453C12.6105 7.70096 13.3346 7.82181 13.8548 7.44507C18.4663 4.10797 23.9109 2.34375 29.6006 2.34375C44.533 2.34375 56.6816 14.6251 56.6816 29.7212C56.6816 44.8169 44.533 57.0982 29.6006 57.0982C25.0516 57.0982 20.5529 55.936 16.5907 53.7369C16.3277 53.5913 16.0193 53.5542 15.7304 53.633L2.82609 57.1587L6.34446 44.4649C6.42959 44.1582 6.38748 43.83 6.22809 43.5558C3.80145 39.3755 2.51908 34.5918 2.51908 29.7212C2.51908 23.969 4.26423 18.4648 7.56525 13.8034C7.93791 13.2774 7.81792 12.5455 7.29763 12.1687C6.7769 11.792 6.05285 11.9128 5.68018 12.4393C2.09525 17.5008 0.200671 23.4769 0.200671 29.7212C0.200671 34.8404 1.50614 39.8717 3.98077 44.3065L0.0430914 58.5118C-0.0696594 58.9178 0.0426386 59.3536 0.33561 59.653C0.556583 59.8778 0.854082 60 1.15928 60C1.26026 60 1.36169 59.9867 1.46176 59.9593L15.8898 56.0175C20.0905 58.2591 24.8207 59.442 29.6001 59.442C37.4533 59.442 44.8364 56.3507 50.3888 50.7367C55.9417 45.1236 59 37.6598 59 29.7208C59 21.7822 55.9421 14.3188 50.3893 8.70483Z" fill="white"/>
<path fill-rule="evenodd" clip-rule="evenodd" d="M48.3 44.1865C48.8269 44.5454 49.5392 44.4005 49.8909 43.8629C52.5789 39.7531 54 34.9594 54 29.9998C54 23.3217 51.4517 17.0432 46.8247 12.3217C42.1977 7.60028 36.0452 5 29.5002 5C22.9553 5 16.8023 7.60028 12.1753 12.3217C7.54827 17.0432 5 23.3217 5 30.0002C5 34.4483 6.15989 38.8159 8.35424 42.6313L9.09435 43.9187L6.85207 52.0843C6.74051 52.4893 6.85117 52.9245 7.14148 53.2235C7.43179 53.5225 7.8574 53.6395 8.25568 53.5298L16.5169 51.2514L17.7319 51.9321C21.3151 53.9394 25.3844 55 29.4998 55C34.3607 55 39.0585 53.5499 43.0856 50.8066C43.6125 50.4481 43.7545 49.7213 43.4028 49.1837C43.0511 48.6461 42.3392 48.5011 41.8124 48.86C38.1634 51.3455 33.9059 52.6594 29.4998 52.6594C25.7692 52.6594 22.0817 51.6985 18.8358 49.8804L17.2158 48.9725C16.956 48.8271 16.6509 48.7901 16.3646 48.8687L9.60508 50.733L11.4347 44.0709C11.5185 43.7646 11.4773 43.4368 11.3196 43.163L10.3322 41.4464C8.34438 37.9899 7.2938 34.0318 7.2938 29.9998C7.2938 17.5054 17.2557 7.34061 29.5002 7.34061C41.7447 7.34061 51.7062 17.5054 51.7062 30.0002C51.7062 34.4954 50.4186 38.8397 47.9828 42.5637C47.6311 43.1013 47.7731 43.8277 48.3 44.1865Z" fill="white"/>
<path fill-rule="evenodd" clip-rule="evenodd" d="M25.3344 26.3943L25.2577 26.4843C24.8031 27.0207 24.1524 27.7809 23.7527 28.1946C23.75 28.2165 23.7559 28.2599 23.7654 28.2836C24.7296 29.961 26.4723 31.9412 28.1044 33.2132C30.6938 35.2308 32.5206 36.0403 33.0668 36.0015C33.3255 35.728 33.9339 34.9089 34.2388 34.4984C34.7338 33.8318 34.8967 33.6159 35.0614 33.4712C35.0673 33.4652 35.0732 33.4584 35.0796 33.4515C36.2979 32.1215 37.6513 32.3781 38.5719 32.8278C39.9354 33.4931 43.2612 35.1522 43.5838 35.3134C44.1546 35.5732 45.0403 36.3905 44.9986 37.9469C44.9686 39.0577 44.9214 39.4842 44.9019 39.6193C44.8724 39.8321 44.6678 41.0589 43.6887 42.304C42.7662 43.4769 40.954 44.8959 37.5606 44.9954C37.4635 44.9986 37.3655 45 37.2675 45C34.2461 45 31.0006 43.6654 28.7786 42.5254C24.3167 40.2362 21.2994 37.6552 18.0171 33.3209C15.0524 29.4059 13.7175 25.9505 14.0497 23.0499C14.772 16.7406 18.9554 16.0594 19.1333 16.0334C19.1423 16.032 19.1519 16.0306 19.1614 16.0297C19.2539 16.0183 19.6505 15.9841 20.8565 16.0087C22.4033 16.0411 23.1724 16.9698 23.4029 17.556C23.5508 17.8957 25.1116 21.4844 25.7083 22.8883C26.1121 23.8389 26.3748 25.2191 25.3344 26.3943ZM30.4411 37.5374C28.9737 36.7881 27.456 35.6645 26.682 35.0614C24.8026 33.5967 22.8661 31.3924 21.749 29.4447C21.3098 28.6795 21.2286 27.4522 22.0861 26.5655C22.3466 26.2966 22.8189 25.7583 23.49 24.9671L23.5567 24.8881C23.5689 24.8744 23.583 24.858 23.5993 24.8397C23.6896 24.7379 23.877 24.526 23.5716 23.8069C22.9605 22.3678 21.323 18.6039 21.2653 18.4715C21.224 18.4263 21.0875 18.3518 20.8084 18.3459C19.9327 18.3276 19.5643 18.3432 19.4554 18.35C19.1464 18.4203 16.8415 19.0851 16.3569 23.317C16.0996 25.5647 17.3124 28.5343 19.8642 31.9037C22.9555 35.9855 25.6574 38.2998 29.8336 40.443C31.8862 41.4963 34.8795 42.7368 37.493 42.6587C39.4476 42.6016 40.8964 42.0223 41.7993 40.9365C42.4395 40.1672 42.5856 39.3837 42.5993 39.3043C42.602 39.2778 42.5997 39.2924 42.6047 39.2682C42.6124 39.2025 42.6501 38.8523 42.6759 37.8834C42.6836 37.6027 42.6165 37.4616 42.5734 37.4182C42.4482 37.3561 38.9572 35.6138 37.5579 34.9308C37.0919 34.7035 36.9966 34.8075 36.7874 35.0358C36.7416 35.086 36.6912 35.1408 36.6304 35.1965C36.537 35.3088 36.2956 35.6335 36.0991 35.8978C35.4176 36.8155 34.9072 37.4899 34.5478 37.8099C33.2469 38.9684 31.1376 37.8926 30.4424 37.538L30.4411 37.5374Z" fill="white"/>
<path fill-rule="evenodd" clip-rule="evenodd" d="M9.99998 11C10.2402 11 10.4812 10.9141 10.6726 10.7398C11.0811 10.3683 11.1116 9.73588 10.7401 9.32727C10.3683 8.91866 9.73634 8.88858 9.3274 9.26008L9.32701 9.26047C8.91846 9.63197 8.88878 10.264 9.26022 10.673C9.45746 10.8898 9.72814 11 9.99998 11Z" fill="white"/>
<path fill-rule="evenodd" clip-rule="evenodd" d="M45.2603 46.3272L45.2599 46.328C44.8884 46.7365 44.9189 47.3685 45.3274 47.7399C45.5188 47.9141 45.7594 48 45.9996 48C46.2715 48 46.5426 47.8895 46.7398 47.6723C47.1116 47.2638 47.0812 46.6315 46.6726 46.26C46.2641 45.8886 45.6317 45.9187 45.2603 46.3272Z" fill="white"/>
</svg>
