<svg width="51" height="80" viewBox="0 0 51 80" fill="none" xmlns="http://www.w3.org/2000/svg">
<path d="M49.0994 26.0929C48.8413 25.7268 48.4036 25.6286 48.0515 25.4013C48.2381 25.3634 50.188 25.3929 50.0492 25.1797C49.8976 24.9468 49.272 24.9748 49.0321 24.93C48.7936 24.8865 48.3587 24.5834 48.2016 24.5834C48.8539 24.5834 48.8932 24.3379 48.8932 24.3379C48.8932 23.8484 43.8752 24.38 43.8752 24.38C43.6718 23.8484 42.5285 23.2353 42.5285 23.2353C40.9377 21.7273 37.3871 18.627 37.3871 18.627C35.7149 17.5664 35.2253 17.5229 35.2253 17.5229C34.7357 17.4836 33.7144 16.7486 33.7144 16.7486L33.7565 16.2996C33.9543 15.6712 32.7268 15.4369 32.3452 15.3471C31.5119 15.1521 30.9143 15.1367 30.2957 14.497C29.8061 13.992 29.158 13.6651 28.5772 13.2821C27.7257 12.721 26.8783 12.0967 25.8108 12.1262C24.161 12.1711 22.5211 12.8725 20.8601 12.8725C20.696 12.8725 20.494 12.2188 20.494 12.2188C20.8601 11.4037 20.4519 9.85216 20.4519 9.85216C20.8195 9.07779 20.2078 8.5868 20.2078 8.5868C20.5754 8.13789 20.2485 7.52484 20.2485 7.52484C19.1052 4.95623 16.942 5.40374 16.942 5.40374C13.3928 6.13883 14.2078 9.07779 14.2078 9.07779C13.0238 9.5253 14.3313 10.9941 14.3313 10.9941L14.9023 11.934C15.8408 13.4014 16.0863 14.8715 16.0863 14.8715C15.065 14.8323 14.0858 15.6066 14.0858 15.6066C13.0238 15.7694 11.4751 17.7684 11.4751 17.7684C10.4131 18.7476 8.37341 18.4221 8.37341 18.4221C7.31145 18.2187 7.10944 19.2779 7.10944 19.2779C6.98599 18.5035 8.41409 14.5868 8.41409 14.5868C9.1085 12.9539 9.84219 12.4236 9.84219 12.4236C10.3907 12.1234 10.8354 11.6352 11.2268 11.1568C11.5565 10.7514 11.5817 10.1804 11.924 9.81148C12.4122 9.2812 12.0054 8.87157 12.0054 8.87157C11.7206 8.75093 11.4344 8.17857 11.4344 8.17857C11.8819 7.1601 11.7206 5.85405 11.7206 5.85405C11.6561 5.40373 11.2885 6.03361 10.9532 6.73223C11.1552 6.1739 11.2801 5.60434 11.0697 5.34622C10.74 4.9422 10.2196 6.09253 10.0877 6.38713C9.87586 6.8669 9.68366 7.3565 9.51532 7.85451C9.64859 7.4561 10.4819 5.59312 10.1943 5.24942C9.77625 4.75281 9.354 6.10235 9.31191 6.09955C8.37341 6.01678 7.51627 8.75093 7.51627 8.75093C6.98599 9.89285 6.98599 11.8105 6.98599 11.8105C6.74049 12.8725 4.66007 17.3616 4.66007 17.3616C3.8843 18.9117 3.35262 21.8914 3.35262 21.8914C3.06784 24.8696 8.04655 23.4009 8.04655 23.4009C7.76177 23.9718 8.37341 23.9297 8.37341 23.9297C11.0669 23.3588 13.0238 24.5021 13.0238 24.5021C15.9628 25.6033 14.9415 28.1341 14.9415 28.1341C14.6175 30.9496 15.5967 31.4392 15.5967 31.4392L15.1884 32.2556C13.9231 32.6638 12.3729 36.1331 12.3729 36.1331C11.8819 37.3956 10.618 38.9065 10.618 38.9065C9.27123 39.8871 5.96472 44.7423 5.96472 44.7423C5.14826 46.0484 6.08817 46.2518 6.08817 46.2518C5.67994 46.7414 5.19035 47.8034 5.19035 47.8034C4.8214 48.7012 4.29253 49.2721 4.29253 49.2721C3.47748 50.0058 3.84221 52.8634 3.84221 52.8634C3.31334 54.617 3.80293 57.3918 3.80293 57.3918C3.92498 58.862 4.1284 63.1463 4.1284 63.1463L3.92498 63.309C3.19129 63.8 3.31334 65.064 3.31334 65.064C1.92452 66.4107 0.252332 70.002 0.252332 70.002C-0.76894 72.3279 1.63975 72.0838 1.63975 72.0838C3.68089 72.2872 4.70076 68.6973 4.70076 68.6973C4.86349 68.0029 5.80199 67.4306 5.80199 67.4306C7.10944 66.861 7.35354 65.2688 7.35354 65.2688C7.4349 64.3303 6.74049 63.2683 6.74049 63.2683C6.70963 62.3326 6.84571 61.3857 6.98599 60.4626C7.12066 59.5844 7.23289 58.1999 7.76176 57.4746C8.863 55.9651 8.45477 53.7206 8.45477 53.7206C8.41409 52.3724 8.94296 51.8842 8.94296 51.8842C9.51532 50.6596 13.1066 47.9254 13.1066 47.9254L13.2287 48.0881C14.6175 49.0687 14.8616 48.5371 14.8616 48.5371L18.0025 44.4983C20.2485 46.6194 20.6146 49.477 20.6146 49.477C20.696 51.2726 23.2281 50.6175 23.2281 50.6175C23.5943 53.1496 24.6969 56.3719 24.6969 56.3719C24.5959 57.1393 25.2174 58.0483 25.5891 58.6684C25.7561 58.9434 25.9777 59.2085 26.1236 59.4905C26.3369 59.9099 26.2821 60.3729 26.393 60.819C26.7591 62.3186 27.2094 63.7972 27.6752 65.2688C28.2054 67.3913 28.6544 72.1231 28.6544 72.1231C27.7144 73.5933 29.1832 74.9807 29.1832 74.9807C30.3265 75.9192 30.0404 77.3473 30.0404 77.3473C30.3686 79.5512 33.0621 80.0001 33.0621 80.0001C34.6922 79.3464 34.2854 77.7163 34.2854 77.7163C34.5309 76.3274 31.836 72.6955 31.836 72.2872C31.836 71.388 31.5512 71.4301 31.5512 71.4301C31.3478 70.0427 31.143 62.2078 31.143 62.2078C31.143 57.8407 29.9604 56.5768 29.9604 56.5768C29.3474 56.0872 29.266 54.8639 29.266 54.8639C29.0219 53.4344 28.7764 50.8223 28.7764 50.8223L29.2253 50.7816L29.0149 35.52C28.89 33.2769 27.5377 32.7859 27.5377 32.7859V31.9288L27.8309 30.9496C28.7694 29.1553 28.406 20.9515 28.406 20.9515C28.284 19.7282 28.9181 19.3593 28.9181 19.3593C29.0808 18.5849 32.0506 19.7282 32.0506 19.7282C32.9906 20.1771 33.0256 19.8096 33.0256 19.8096C33.9234 20.7467 35.6742 21.4411 35.6742 21.4411C36.2199 21.6894 36.7432 21.9798 37.265 22.2716C38.3494 22.8776 39.4142 23.5201 40.4733 24.171C40.8437 24.3983 41.2281 24.6171 41.5886 24.8626C42.2381 25.3073 42.7305 25.9414 43.3856 26.3791C44.1614 27.8072 46.0384 28.2154 46.0384 28.2154C46.9362 28.9912 47.5886 29.1553 47.5886 29.1553C48.6912 28.9098 46.5294 27.7679 46.5294 27.7679C45.5067 27.0328 46.0384 26.828 46.0384 26.828L47.8747 26.7466C49.3842 26.6246 50.1193 26.6653 50.1193 26.6653C50.853 26.257 49.0994 26.0929 49.0994 26.0929Z" fill="#0A8900"/>
<path fill-rule="evenodd" clip-rule="evenodd" d="M37.4193 5.00676C37.4193 2.24175 35.179 0 32.414 0C29.649 0 27.4072 2.24175 27.4072 5.00676C27.4072 7.77037 29.649 10.0121 32.414 10.0121C35.179 10.0121 37.4193 7.77037 37.4193 5.00676Z" fill="#0A8900"/>
</svg>
