<svg width="58" height="80" viewBox="0 0 58 80" fill="none" xmlns="http://www.w3.org/2000/svg">
<path fill-rule="evenodd" clip-rule="evenodd" d="M25.7343 55.4797C25.7343 55.4797 25.5383 57.1906 26.2562 59.2884C26.9742 61.3876 27.5419 66.291 26.8367 67.233C26.1302 68.1725 24.6739 69.0826 24.8598 70.5822C25.0431 72.083 26.4497 72.8328 26.838 73.4833C27.2237 74.1312 28.1338 74.0269 29.0135 76.3577C29.8931 78.6872 30.0548 80.2364 31.0719 79.9703C32.0941 79.703 33.0653 78.22 32.6452 76.5117C32.2252 74.8059 31.1839 72.1187 31.1037 71.4058C31.0235 70.6942 30.9178 69.5358 30.527 68.3952C30.1362 67.2534 31.4143 61.2654 31.8713 59.7111C32.3257 58.158 32.4047 55.0889 32.2799 53.4977C32.1564 51.909 32.4276 50.9289 32.5905 50.454C32.7547 49.9792 32.3283 47.2334 32.3894 46.3271C32.453 45.4195 33.0386 41.9544 32.9902 41.1321C32.9431 40.311 32.9113 39.947 32.9113 39.947C32.9113 39.947 33.9793 39.2545 34.3179 39.6987C34.6553 40.143 35.6011 43.0377 36.4425 43.5864C37.2827 44.1401 41.6324 45.6804 43.0619 46.0305C44.4851 46.3831 45.4729 47.7719 45.6766 48.7712C45.8803 49.7756 45.8688 50.2911 46.1782 50.5126C46.4862 50.7354 47.6395 50.1511 48.5599 49.978C49.4777 49.8023 50.0925 49.8239 51.1389 49.7476C52.184 49.6686 53.2851 49.479 53.07 48.8527C52.8561 48.2264 50.9938 47.4193 50.2084 46.8936C49.423 46.3716 48.8336 45.8739 48.4008 45.8357C47.968 45.7963 43.202 42.7666 42.6049 41.5713C42.0079 40.3772 38.1457 38.6231 37.5169 36.7862C36.888 34.9493 36.3929 34.1855 35.4992 33.8864C34.6031 33.586 32.7013 32.7916 32.7013 32.7916C32.7013 32.7916 33.409 32.271 33.1175 31.0171C32.8286 29.7645 32.6592 29.403 32.5409 28.5119C32.4212 27.6196 32.8375 27.337 33.5058 27.1078C34.1728 26.8787 34.5152 26.1111 34.8055 25.7318C35.0957 25.3511 36.5074 24.0298 36.8091 23.2737C37.1108 22.5188 36.2006 20.6844 36.0441 20.2262C35.8875 19.7666 35.6978 18.7241 35.4941 18.4669C35.2892 18.2111 35.3312 18.1958 35.526 18.0825C35.7195 17.9705 35.6329 17.651 35.6316 17.3722C35.6291 17.0947 35.5578 16.8846 35.7016 16.765C35.8493 16.6453 36.7798 16.1641 36.6004 15.6422C36.4221 15.1216 35.941 11.6069 33.3861 11.2238C30.8338 10.838 29.8371 13.5787 29.8256 13.9543C29.8154 14.3323 29.7403 14.5195 29.4692 14.6124C29.1993 14.7053 26.7781 13.7633 26.6165 13.4935C26.4548 13.2223 25.9405 12.6062 25.5777 12.428C25.2137 12.2485 24.94 12.2039 24.7834 11.8144C24.6281 11.4236 23.6454 10.5262 23.2202 10.5096C22.795 10.4918 19.1569 8.03242 18.9125 7.65181C18.6642 7.26992 18.3918 7.22409 18.1691 7.18463C17.945 7.14389 17.9921 7.01023 17.8661 6.9835C17.7401 6.95804 17.5886 7.05606 17.5122 6.96568C17.4333 6.87657 17.3556 6.64616 17.3556 6.64616C17.3556 6.64616 16.947 6.94913 16.5689 6.73145C16.1909 6.50868 15.0312 5.36937 14.8122 5.00149C14.5933 4.63487 11.9022 2.69105 11.5942 2.60958C11.2887 2.52684 10.1354 2.29261 9.87695 2.07875C9.61599 1.8649 8.42322 1.78343 8.26919 1.81398C8.11771 1.84198 7.41631 2.1755 7.23045 2.23915C7.04078 2.30407 6.60161 2.31553 6.48322 2.23915C6.36229 2.16404 5.64815 1.49828 4.71252 1.49319C3.77817 1.48555 2.99656 1.03365 2.82089 0.720499C2.64268 0.408622 2.2697 0.0712868 2.18187 0.357704C2.09403 0.642849 2.3919 1.16986 2.3919 1.16986L2.63122 1.53138L2.63886 1.69177C2.63886 1.69177 1.97564 1.59121 1.86108 1.3277C1.74778 1.0642 1.56193 0.521916 1.56193 0.521916L1.2386 0.0496456L0.709042 0L0.654305 0.390801C0.654305 0.390801 0.398437 0.315696 0.278778 0.519371C0.162938 0.721773 0.263503 1.01456 0.263503 1.01456L0.343701 1.45118L0.134934 1.59248L0 1.87253C0 1.87253 0.199856 2.45555 0.262231 2.57521C0.325879 2.69233 0.889803 3.52484 0.889803 3.52484L1.30352 3.84945C1.30352 3.84945 0.742139 4.25044 0.492638 4.33573C0.24059 4.42102 0.147663 4.89583 0.302965 5.00658C0.456994 5.11605 0.903806 5.19498 1.3277 5.14533C1.75415 5.09187 2.73561 5.10587 2.88836 5.14661C3.04366 5.18607 4.06586 5.25608 4.34082 5.16188C4.60941 5.07023 5.19371 4.87037 5.43812 4.90347C5.68125 4.93657 6.42976 5.14533 6.4794 5.36174C6.53159 5.57687 6.53923 5.87729 6.53923 5.87729C6.53923 5.87729 7.14135 6.88293 7.4825 6.92876C7.82366 6.97331 8.89804 7.04842 9.26211 7.29792C9.62618 7.54615 11.3956 8.0808 11.654 8.36339C11.9137 8.64854 14.1452 10.4001 14.5513 10.6344C14.9574 10.8686 15.2247 11.1028 15.3711 11.2632C15.5187 11.4211 18.8132 14.5106 19.3402 15.1687C19.8685 15.8255 20.911 20.7786 20.8308 21.1567C20.7506 21.5335 20.7354 22.3062 20.5266 22.3775C20.3191 22.4488 19.8787 22.3902 19.7514 22.086C19.6241 21.7792 19.2715 20.5495 18.8514 20.2045C18.43 19.8583 18.2085 19.2116 18.0812 18.8374C17.9514 18.4618 17.5275 18.584 17.32 18.8641C17.115 19.1442 17.2003 19.5337 17.3073 19.7781C17.4142 20.02 17.5428 20.3955 17.5428 20.3955C17.5428 20.3955 15.3978 18.7546 15.2132 18.5611C15.0325 18.3664 14.4291 18.1067 14.3693 18.3371C14.3082 18.5675 14.3171 18.9367 14.438 19.083C14.5577 19.2282 14.9243 19.7526 14.9243 19.7526L15.1903 19.9881L15.1852 20.2465L15.1661 20.5317L15.2667 20.8245L15.184 20.9925L14.9357 21.2878L15.007 21.4966L15.1343 21.7321L15.2692 22.0567L15.4335 22.5366C15.4335 22.5366 15.5608 22.7059 15.4576 22.7403C15.3533 22.7759 14.9039 22.487 14.8683 22.3826C14.8326 22.2782 14.5666 22.0427 14.5666 22.0427L14.2101 22.0249L13.939 22.1165C13.939 22.1165 14.0485 22.7797 14.5106 23.0407C14.9739 23.3017 16.1781 23.9598 16.2762 24.1138C16.3742 24.2666 17.3964 24.7299 17.3964 24.7299L17.7592 24.7707L17.8585 24.9934L18.0405 25.0469L18.5077 25.2608L18.705 25.495L18.7903 25.7445L18.9265 26.1416L19.2104 26.7654L19.4573 27.0773C19.4573 27.0773 19.633 28.1364 19.7284 28.8263C19.8252 29.5137 17.6599 35.0308 20.1116 37.4978C22.5646 39.9661 23.4481 39.7573 23.4481 39.7573C23.4481 39.7573 24.0056 39.2659 24.2195 39.7522C24.4321 40.2372 24.25 41.747 24.5543 43.1816C24.8598 44.6149 26.0551 47.7032 26.4943 48.5777C26.9347 49.4548 27.3548 51.6392 27.2199 52.1993C27.0849 52.7581 26.1136 55.0953 26.1136 55.0953L25.7343 55.4797Z" fill="#0A8900"/>
<path d="M52.1394 34.8042C55.0087 34.8042 57.3344 37.1312 57.3344 40.0004C57.3344 42.8684 55.0087 45.1942 52.1394 45.1942C49.2714 45.1942 46.947 42.8684 46.947 40.0004C46.947 37.1312 49.2714 34.8042 52.1394 34.8042Z" fill="#0A8900"/>
</svg>
