<svg width="56" height="80" viewBox="0 0 56 80" fill="none" xmlns="http://www.w3.org/2000/svg">
<path d="M1.4554 72.9493C1.4554 72.9493 2.26548 69.8342 2.20519 68.6809C2.20519 68.6809 2.15109 63.9487 6.70549 66.5459C6.89874 66.6557 8.35812 65.4143 8.53281 65.2844C10.2086 63.9951 11.8721 62.3719 13.0517 60.6048C13.0517 60.6048 13.5742 59.0449 18.7099 57.1589C18.5244 56.8389 18.3373 56.5204 18.1642 56.1896C18.0312 55.9376 17.9895 55.5882 18.1642 55.3408C19.7441 53.1054 21.6086 51.1698 23.7435 49.5419C24.0048 49.2049 24.2692 48.871 24.5366 48.5401C25.056 47.4239 25.9372 45.9615 27.2436 45.1437C27.2436 45.1437 22.802 40.7609 27.4724 34.3559C27.4121 34.4425 26.9607 34.0158 26.9359 33.988C26.6097 33.6201 26.5263 33.164 26.636 32.6925C26.9267 31.4387 28.2995 30.2792 29.2116 29.446C29.1451 27.2507 30.0943 25.0894 31.4038 23.3873C30.9941 22.0856 31.0884 20.4778 31.6295 19.2333C29.9305 18.6057 28.1882 19.7543 26.7721 20.5752C26.6948 20.6216 26.568 21.526 26.5154 21.6682C26.3825 22.03 26.197 22.3624 26.0068 22.6947C25.5585 23.4615 24.9447 24.1789 24.8953 25.1018C24.8427 26.1206 25.4565 27.0343 25.8522 27.9294C26.2062 28.7286 26.5773 29.7273 26.8153 30.573C27.2034 31.9551 25.8754 31.1079 25.5245 30.4029C25.0669 29.4831 24.668 28.1381 23.6693 29.6377C24.0697 29.9716 24.079 30.5266 23.7203 30.9038C23.5982 31.0352 24.6185 32.5162 23.558 32.4235C23.1731 32.391 22.8592 31.3861 22.6845 31.0661C22.6845 31.0661 20.6686 30.8373 20.378 29.1074C20.2806 28.5215 20.5233 28.0685 20.9221 27.6248C21.3086 27.195 21.7461 26.9369 21.9116 26.3525C22.2826 25.0539 21.7662 23.7274 21.7817 22.4196C21.7941 21.2354 22.23 19.9352 22.9736 19.0092C22.9736 19.0092 24.1285 17.5111 25.4549 17.0504C25.8368 16.9175 25.1967 15.0592 25.189 14.8598C25.0792 12.4868 31.1069 10.9392 32.724 10.4739C33.5125 10.2467 34.3272 10.0488 35.1512 10.0194C35.482 10.007 35.8268 10.0163 36.1591 10.072C38.2168 9.78287 40.6641 9.98229 42.3987 9.58653C42.496 9.26961 42.6244 8.62339 42.5873 7.4732C42.5873 7.4732 41.6659 5.74172 43.0495 4.64873C43.1314 4.5807 43.1438 3.8541 43.167 3.74588C43.3046 3.06411 43.5272 2.38853 43.8719 1.78406C44.8351 0.103599 46.7598 -0.307627 48.4155 0.208724C49.7311 0.621496 50.8813 1.62328 51.2245 3.04402C51.492 4.14629 51.2508 5.49282 50.8952 6.55026C50.8952 6.55026 51.6466 6.83781 50.6077 8.51208C50.6077 8.51208 50.4346 9.37473 49.34 9.43502C49.34 9.43502 48.4712 12.261 48.0677 12.8408C48.0677 12.8408 51.4719 14.6851 52.9715 16.531C52.9715 16.531 55.2224 17.7415 54.5901 22.8184C54.5901 22.8184 54.8174 23.511 54.6442 24.4911C54.6442 24.4911 55.5687 25.0106 55.0492 25.646C55.0492 25.646 55.2796 26.6261 54.9364 26.9137C54.9364 26.9137 55.1049 27.6635 54.6442 27.9526C54.6442 27.9526 55.5099 28.9342 54.7014 30.0875C54.7014 30.0875 55.6259 31.414 54.2438 32.9707C53.4693 33.8427 52.231 35.3716 50.9339 34.6327C49.6879 33.9246 49.6971 32.0741 49.7992 30.8373C49.7992 30.8373 49.2797 30.2035 48.7618 27.9526C48.7618 27.9526 46.8572 28.9342 46.2775 30.7801C46.2775 30.7801 45.7611 32.8548 43.974 34.8182C43.974 34.8182 43.6277 39.4901 42.4157 40.1255C42.4157 40.1255 42.1265 42.0873 40.6842 44.2779C40.6842 44.2779 40.5698 46.6432 41.5484 47.4518C42.7017 48.3994 42.1992 51.0709 41.6334 52.1268C40.9624 53.3682 39.8323 54.2463 38.8398 55.2141C37.7685 56.2607 37.0527 57.4109 36.5302 58.8161C35.7417 60.1178 34.9054 61.3871 34.0814 62.6656C33.1275 64.1327 31.9387 65.4251 30.957 66.8691C30.235 67.9342 28.9333 69.9471 29.3198 71.3338C29.3198 71.3338 29.6074 72.3727 28.9735 73.41C28.9735 73.41 29.3198 73.9882 28.8591 75.1415C28.7803 75.3394 29.5131 76.4216 29.5672 76.6766C29.8176 77.8902 28.8174 78.1113 27.8233 77.8686C26.8927 77.6429 25.8321 77.3321 25.087 76.7076C24.7639 76.4355 24.498 76.1046 24.3001 75.732C24.2011 75.5512 23.8796 74.2309 23.8409 74.2186C23.8409 74.2186 22.1094 73.6991 23.088 72.0836C23.088 72.0836 23.2055 71.0462 25.1101 69.3163C25.1101 69.3163 26.3763 67.9311 27.1292 65.1608C27.1292 65.1608 29.0771 59.8782 30.5365 57.1171C28.9859 58.4003 27.3008 59.4593 25.4735 60.3003C24.532 60.795 23.5472 61.2294 22.5083 61.588C22.4078 61.6236 22.2888 61.6236 22.1728 61.6066L21.2437 62.3347L18.4177 64.4697C18.4177 64.4697 15.417 67.1813 10.2241 69.2019L8.66731 70.2965L6.99459 72.0836C6.99459 72.0836 7.34242 72.9493 5.9557 73.9882C5.9557 73.9882 4.57361 75.2574 4.16856 76.1819C3.76661 77.091 3.82691 78.0216 3.20079 78.8827C2.88078 79.3171 2.18973 80.1195 1.55589 79.985C0.722613 79.8103 0.0362098 77.7325 0.0037446 77.0291C-0.0627317 75.664 0.768998 74.0779 1.4554 72.9493Z" fill="#0A8900"/>
<path fill-rule="evenodd" clip-rule="evenodd" d="M37.6742 72.1716C37.6742 68.9436 40.29 66.3279 43.5179 66.3279C46.7459 66.3279 49.3617 68.9436 49.3617 72.1716C49.3617 75.398 46.7459 78.0154 43.5179 78.0154C40.29 78.0154 37.6742 75.398 37.6742 72.1716Z" fill="#0A8900"/>
</svg>
