<svg width="56" height="80" viewBox="0 0 56 80" fill="none" xmlns="http://www.w3.org/2000/svg">
<path d="M29.6625 31.3797L29.1528 28.0453C29.1528 28.0453 24.1045 30.2688 21.6218 28.472L20.7666 27.1901C20.7666 27.1901 16.3212 29.9268 11.2746 25.3086L10.4211 25.3916C10.4211 25.3916 9.47779 27.4475 8.88001 25.5678C8.88001 25.5678 7.50995 26.3349 7.1696 25.224L7.42529 27.4475C7.42529 27.4475 7.68272 28.301 9.90626 28.8141C9.90626 28.8141 17.4338 30.0978 19.6557 31.8065L21.2814 32.1503C21.2814 32.1503 23.2493 31.8946 26.0723 32.8345C26.0723 32.8345 29.6625 33.9471 29.6625 31.3797ZM55.92 30.5263C56.4349 32.1503 54.296 32.5788 54.296 32.5788L53.7829 34.2892C53.0918 36.6302 51.5662 39.0559 49.8472 40.7888C50.3586 41.8168 50.8734 42.8413 51.3883 43.8658C51.4729 45.4916 50.5331 44.0403 50.5331 44.0403C49.8472 42.5856 49.5068 43.4391 49.5068 43.4391C50.5331 45.6661 50.5331 45.6661 50.5331 45.6661C50.7888 47.5458 48.4788 44.3824 48.4788 44.3824L49.5915 46.2639C50.5331 47.8015 49.334 47.2884 49.334 47.2884L47.71 45.1512L47.6236 46.5178C46.7218 47.5907 46.8116 46.9947 46.6647 46.2034C46.435 44.9422 45.6212 43.9418 46.0842 42.5856C46.0929 42.5579 47.2798 39.0766 47.2798 39.0766C47.1969 36.511 45.4865 38.8209 45.4865 38.8209L44.7159 42.1554C41.8082 47.8015 38.4737 48.3164 38.4737 48.3164C36.4212 51.0513 32.0571 51.3934 32.0571 51.3934C30.2551 52.6684 28.3304 53.7638 26.3574 54.7468C25.6732 55.0907 24.9856 55.469 24.2513 55.6815C23.327 55.9389 22.3094 55.8837 21.5388 56.5385C21.4352 56.6231 20.5402 57.6252 20.7666 57.81C24.7887 61.0598 23.7624 69.5273 23.7624 69.5273L25.2137 75.0006C26.4144 75.5137 26.4973 78.8499 26.4973 78.8499C26.4973 80.1474 23.0195 79.814 22.3059 79.7812C19.9355 79.6671 17.6965 79.5721 15.3105 79.7656C14.7646 79.8105 12.4805 79.8572 12.4494 79.0037C12.4097 77.9308 15.1412 77.5369 15.8288 77.2449C16.7773 76.8406 17.9677 75.4654 18.9715 75.3427C19.8353 75.239 19.552 74.0158 19.4466 73.5079C19.0337 71.5349 18.0489 69.7018 17.1488 67.9171C16.4612 66.5401 15.8133 65.1251 15.3606 63.6531C14.9235 62.2174 14.9943 60.5588 14.5244 59.1784C13.2425 55.4155 14.3534 53.534 14.3534 53.534C15.2068 51.5662 18.2873 48.0572 18.2873 48.0572C19.3136 41.6423 23.4186 40.4484 23.4186 40.4484L21.7945 38.992L19.2272 39.0766C13.1543 38.0521 10.4211 34.9716 10.4211 34.9716C8.27878 33.1765 5.28813 32.5788 5.28813 32.5788C3.14752 33.1766 0.927428 31.7236 0.927428 31.7236C-0.423631 31.7236 0.039393 29.7903 0.248444 29.0163C0.611261 27.6807 1.80855 26.9551 2.18519 25.6784C2.36659 25.0685 2.50654 24.3256 2.46507 23.6829C2.12126 18.3823 5.88592 17.781 5.88592 17.781C7.85377 17.781 6.99683 23.0851 6.99683 23.0851L8.19412 22.3992C8.19412 21.7185 9.30676 21.6304 9.30676 21.6304C10.0756 20.262 12.2991 22.6549 12.2991 22.6549C14.6954 22.3145 17.9452 22.743 17.9452 22.743C19.8267 21.5457 22.052 21.6304 22.052 21.6304C22.648 20.3449 23.9334 20.6041 23.9334 20.6041C26.4144 17.7811 32.3128 15.2137 32.3128 15.2137C33.9385 15.2137 34.0249 14.3602 34.0249 14.3602C32.6566 14.1062 31.8031 7.7725 31.8031 7.7725C31.7029 7.03478 31.829 5.94806 31.8152 5.16196C31.791 4.17544 32.1521 3.37552 32.7067 2.57387C33.7468 1.0725 35.5816 -0.351123 37.5321 0.077346C43.0055 1.27291 41.2104 6.06554 41.2104 6.06554C42.7498 6.83609 41.0376 8.71583 41.0376 8.71583C41.1223 10.2552 41.9792 11.7082 41.9792 11.7082C43.9453 12.8226 47.1122 15.2137 47.1122 15.2137C50.8337 17.318 51.7528 22.6238 53.6014 26.1189C54.3789 27.584 55.1477 29.056 55.92 30.5263Z" fill="#0A8900"/>
<path d="M18.9818 13.8091C18.9818 16.957 16.4266 19.5105 13.277 19.5105C10.1274 19.5105 7.57385 16.957 7.57385 13.8091C7.57385 10.6578 10.1274 8.10425 13.277 8.10425C16.4266 8.10425 18.9818 10.6578 18.9818 13.8091Z" fill="#0A8900"/>
</svg>
