<svg width="30" height="30" viewBox="0 0 30 30" fill="none" xmlns="http://www.w3.org/2000/svg">
<path d="M15.0001 14.4248C16.9386 14.4248 18.5156 12.8477 18.5156 10.9092C18.5156 8.97067 16.9386 7.39355 15.0001 7.39355C13.0615 7.39355 11.4844 8.97067 11.4844 10.9092C11.4844 12.8477 13.0615 14.4248 15.0001 14.4248ZM15.0001 9.15137C15.9693 9.15137 16.7578 9.93992 16.7578 10.9092C16.7578 11.8784 15.9693 12.667 15.0001 12.667C14.0308 12.667 13.2422 11.8784 13.2422 10.9092C13.2422 9.93992 14.0308 9.15137 15.0001 9.15137Z" fill="url(#paint0_linear)"/>
<path d="M26.1832 20.2148H20.3009C23.0476 17.5931 25.5468 15.0231 25.5468 10.5469C25.5468 4.5157 21.0181 0 15.0001 0C8.96984 0 4.45309 4.52912 4.45309 10.5469C4.45309 15.0231 6.95234 17.5931 9.6991 20.2148H3.8167L0.602539 30H29.3974L26.1832 20.2148ZM6.2109 10.5469C6.2109 5.45414 9.90729 1.75781 15.0001 1.75781C20.0928 1.75781 23.789 5.45414 23.789 10.5469C23.789 16.2444 18.9799 18.2624 15.0001 23.1693C13.8041 21.6947 12.525 20.4776 11.2811 19.2942C8.44836 16.5988 6.2109 14.4698 6.2109 10.5469ZM3.74229 26.0742H10.0781V24.3164H4.31967L5.08953 21.9727H11.4843V21.9332C13.8191 24.2484 14.4507 25.4088 15.0001 26.1007C15.563 25.3916 16.1741 24.2554 18.5156 21.9333V21.9727H24.9104L25.6803 24.3164H19.9218V26.0742H26.2576L26.9697 28.2422H3.0302L3.74229 26.0742Z" fill="url(#paint1_linear)"/>
<defs>
<linearGradient id="paint0_linear" x1="15" y1="7.39355" x2="15" y2="14.4248" gradientUnits="userSpaceOnUse">
<stop stop-color="#0B8A01"/>
<stop offset="1" stop-color="#5BCB2E"/>
</linearGradient>
<linearGradient id="paint1_linear" x1="15" y1="0" x2="15" y2="30" gradientUnits="userSpaceOnUse">
<stop stop-color="#0B8A01"/>
<stop offset="1" stop-color="#5BCB2E"/>
</linearGradient>
</defs>
</svg>
