<svg width="113" height="113" viewBox="0 0 113 113" fill="none" xmlns="http://www.w3.org/2000/svg">
<g clip-path="url(#clip0)">
<path d="M105.467 21.1875C108.586 21.1875 111.117 23.7182 111.117 26.8375V86.1625C111.117 89.2818 108.586 91.8125 105.467 91.8125C102.899 91.8125 9.10733 91.8125 7.53333 91.8125C4.41406 91.8125 1.88333 89.2818 1.88333 86.1625V75.79C1.88333 73.7278 2.99685 71.8091 4.81662 70.8369C16.2765 64.717 16.2704 48.28 4.81662 42.1631C2.99685 41.1909 1.88333 39.2722 1.88333 37.21V26.8375C1.88333 23.7182 4.41406 21.1875 7.53333 21.1875H105.467Z" fill="#D2FFCC"/>
<path d="M111.117 26.8375V34.4313C111.117 36.7688 109.01 38.5459 106.708 38.1427C64.9929 30.8391 27.1327 49.9389 13.491 89.2893C12.9667 90.8021 11.5371 91.8125 9.93576 91.8125H7.53333C4.41288 91.8125 1.88333 89.283 1.88333 86.1625V75.79C1.88333 73.7278 2.99685 71.8091 4.81662 70.8369C16.2765 64.717 16.2703 48.28 4.81662 42.1631C2.99685 41.1909 1.88333 39.2722 1.88333 37.21V26.8375C1.88333 23.7171 4.41288 21.1875 7.53333 21.1875H105.467C108.587 21.1875 111.117 23.7171 111.117 26.8375Z" fill="#F2FFF1"/>
<path d="M105.467 19.3047H45.5531C44.5131 19.3047 43.6698 20.1479 43.6698 21.188C43.6698 22.2281 44.5131 23.0714 45.5531 23.0714H105.467C107.544 23.0714 109.233 24.7612 109.233 26.838V86.163C109.233 88.2399 107.544 89.9297 105.467 89.9297H34.3708V85.9424C34.3708 84.9024 33.5276 84.0591 32.4875 84.0591C31.4474 84.0591 30.6042 84.9024 30.6042 85.9424V89.9297H7.53333C5.45649 89.9297 3.76667 88.2399 3.76667 86.163V75.7899C3.76667 74.3974 4.50823 73.1365 5.7025 72.499C18.4884 65.6735 18.4849 47.3249 5.70226 40.5016C4.50823 39.8646 3.76667 38.6037 3.76667 37.2112V26.838C3.76667 24.7612 5.45649 23.0714 7.53333 23.0714H30.6042V27.0586C30.6042 28.0987 31.4474 28.9419 32.4875 28.9419C33.5276 28.9419 34.3708 28.0987 34.3708 27.0586V21.188C34.3708 20.1479 33.5276 19.3047 32.4875 19.3047H7.53333C3.37941 19.3047 0 22.6841 0 26.838V37.2112C0 39.9973 1.50549 42.5316 3.92863 43.825C14.0598 49.2325 14.0577 63.7697 3.92887 69.1765C1.50549 70.4697 0 73.0039 0 75.7901V86.163C0 90.317 3.37941 93.6964 7.53333 93.6964H105.467C109.621 93.6964 113 90.317 113 86.163V26.838C113 22.6841 109.621 19.3047 105.467 19.3047ZM34.3708 41.2891C34.3708 40.249 33.5276 39.4057 32.4875 39.4057C31.4474 39.4057 30.6042 40.249 30.6042 41.2891V48.6616C30.6042 49.7017 31.4474 50.5449 32.4875 50.5449C33.5276 50.5449 34.3708 49.7017 34.3708 48.6616V41.2891ZM32.4875 62.4561C31.4474 62.4561 30.6042 63.2994 30.6042 64.3394V71.712C30.6042 72.752 31.4474 73.5953 32.4875 73.5953C33.5276 73.5953 34.3708 72.752 34.3708 71.712V64.3394C34.3708 63.2994 33.5276 62.4561 32.4875 62.4561Z" fill="#0A8900"/>
</g>
<path d="M79.3334 65.6094L78.9206 66.6949H79.3423L79.3334 65.6094Z" fill="#1B1A22"/>
<path d="M69.5205 38.2789C69.5205 38.1553 69.4886 38.0233 69.414 37.9253C69.348 37.84 69.2415 37.7676 69.0498 37.7676H68.824V38.7859H69.0476C69.3885 38.7859 69.5205 38.5622 69.5205 38.2789Z" fill="#0A8900"/>
<path d="M73.8263 38.8142C74.1459 38.8142 74.3334 38.5374 74.3334 38.2774C74.3334 38.0133 74.1459 37.7363 73.8242 37.7363C73.5088 37.7363 73.3129 37.9962 73.3129 38.2731V38.2753C73.3129 38.5629 73.5196 38.8142 73.8263 38.8142Z" fill="#0A8900"/>
<path d="M82.8703 38.8142C83.1898 38.8142 83.3772 38.5374 83.3772 38.2774C83.3772 38.0133 83.1898 37.7363 82.8682 37.7363C82.5528 37.7363 82.3569 37.9962 82.3569 38.2731V38.2753C82.3569 38.5629 82.5634 38.8142 82.8703 38.8142Z" fill="#0A8900"/>
<path d="M67.5414 37.8633L67.3177 38.5024H67.7714L67.5414 37.8633Z" fill="#0A8900"/>
<path d="M60.7153 37.8633L60.4915 38.5024H60.9453L60.7153 37.8633Z" fill="#0A8900"/>
<path d="M84.9547 49.1764V40.1348H84.1119V49.1764H84.9547Z" fill="white"/>
<path d="M86.3894 49.1764V40.1348H85.5469V49.1764H86.3894Z" fill="white"/>
<path d="M82.9024 49.1764H83.5197V40.1348H82.6771V48.1453C82.7712 48.4885 82.846 48.8326 82.9024 49.1764Z" fill="white"/>
<path d="M87.7886 49.1764V40.1348H86.9816V49.1764H87.7886Z" fill="white"/>
<path d="M72.0408 40.8535V40.1348H71.1982V40.9771C71.4792 40.9237 71.7604 40.8821 72.0408 40.8535Z" fill="white"/>
<path d="M69.171 41.5889V40.1348H68.3285V41.9919C68.601 41.8456 68.8819 41.7107 69.171 41.5889Z" fill="white"/>
<path d="M67.7362 42.337V40.1348H66.8936V42.9317C67.1627 42.7201 67.4437 42.5214 67.7362 42.337Z" fill="white"/>
<path d="M70.3205 41.1843C70.4156 41.1572 70.5107 41.132 70.606 41.1079V40.1348H69.7633V41.3612C69.9463 41.2974 70.1318 41.2381 70.3205 41.1843Z" fill="white"/>
<path d="M66.3014 43.4363V40.1348H65.4588V44.3142C65.7208 44.0056 66.002 43.7124 66.3014 43.4363Z" fill="white"/>
<path d="M73.4756 40.8114V40.1348H72.6331V40.8111C72.9152 40.7991 73.1963 40.7994 73.4756 40.8114Z" fill="white"/>
<path d="M60.5619 49.1764V40.1348H59.7194V49.1764H60.5619Z" fill="white"/>
<path d="M74.9105 40.9787V40.1348H74.0679V40.8546C74.3514 40.8839 74.6324 40.9255 74.9105 40.9787Z" fill="white"/>
<path d="M64.8665 45.0844V40.1348H64.0239V46.5451C64.2633 46.0356 64.5452 45.5469 64.8665 45.0844Z" fill="white"/>
<path d="M59.1271 40.1348H58.2282V49.1764H59.1271V40.1348Z" fill="white"/>
<path d="M61.9968 49.1764V40.1348H61.1542V49.1764H61.9968Z" fill="white"/>
<path d="M63.2059 49.1764C63.2633 48.828 63.3383 48.4837 63.4316 48.1453V40.1348H62.5891V49.1764H63.2059Z" fill="white"/>
<path d="M80.65 44.312V40.1348H79.8074V43.4394C80.1046 43.7119 80.3862 44.0031 80.65 44.312Z" fill="white"/>
<path d="M77.7803 41.9992V40.1348H76.9377V41.5949C77.2248 41.7167 77.506 41.8515 77.7803 41.9992Z" fill="white"/>
<path d="M76.3453 41.3652V40.1348H75.5027V41.1105C75.7878 41.1832 76.0689 41.2681 76.3453 41.3652Z" fill="white"/>
<path d="M79.2151 42.9376V40.1348H78.3725V42.3444C78.663 42.5274 78.9443 42.7254 79.2151 42.9376Z" fill="white"/>
<path d="M82.0849 46.5368V40.1348H81.2423V45.0781C81.5607 45.5346 81.8432 46.0218 82.0849 46.5368Z" fill="white"/>
<path d="M59.1271 49.2099H59.7194V49.1764V40.1348H59.1271V49.1764V49.2099Z" fill="#0A8900"/>
<path d="M60.562 49.2099H61.1542V49.1764V40.1348H60.562V49.1764V49.2099Z" fill="#0A8900"/>
<path d="M61.9968 49.2099H62.589V49.1764V40.1348H61.9968V49.1764V49.2099Z" fill="#0A8900"/>
<path d="M64.0239 46.5451V40.1348H63.4316V48.1453C63.5835 47.5947 63.7822 47.0594 64.0239 46.5451Z" fill="#0A8900"/>
<path d="M65.4588 44.3142V40.1348H64.8665V45.0844C65.0511 44.8186 65.2488 44.5616 65.4588 44.3142Z" fill="#0A8900"/>
<path d="M66.8936 42.9317V40.1348H66.3014V43.4363C66.4916 43.2609 66.6891 43.0926 66.8936 42.9317Z" fill="#0A8900"/>
<path d="M68.3285 41.9919V40.1348H67.7362V42.337C67.9287 42.2156 68.1263 42.1006 68.3285 41.9919Z" fill="#0A8900"/>
<path d="M69.7633 41.3612V40.1348H69.1711V41.5889C69.3649 41.5071 69.5624 41.4313 69.7633 41.3612Z" fill="#0A8900"/>
<path d="M71.1982 40.9771V40.1348H70.606V41.1079C70.8032 41.0579 71.0007 41.0146 71.1982 40.9771Z" fill="#0A8900"/>
<path d="M72.6331 40.8111V40.1348H72.0408V40.8535C72.2386 40.8332 72.4361 40.8194 72.6331 40.8111Z" fill="#0A8900"/>
<path d="M74.0679 40.8546V40.1348H73.4756V40.8114C73.674 40.82 73.8716 40.8343 74.0679 40.8546Z" fill="#0A8900"/>
<path d="M75.5028 41.1105V40.1348H74.9105V40.9787C75.1096 41.0167 75.3071 41.0606 75.5028 41.1105Z" fill="#0A8900"/>
<path d="M76.9377 41.5949V40.1348H76.3453V41.3652C76.5454 41.4354 76.7428 41.5123 76.9377 41.5949Z" fill="#0A8900"/>
<path d="M78.3725 42.3444V40.1348H77.7803V41.9992C77.9815 42.1075 78.1791 42.2227 78.3725 42.3444Z" fill="#0A8900"/>
<path d="M79.8073 43.4394V40.1348H79.2151V42.9376C79.4186 43.0969 79.6163 43.2643 79.8073 43.4394Z" fill="#0A8900"/>
<path d="M81.2423 45.0781V40.1348H80.6501V44.312C80.8589 44.5565 81.0566 44.8121 81.2423 45.0781Z" fill="#0A8900"/>
<path d="M82.6509 48.0483C82.6601 48.0807 82.6683 48.113 82.6771 48.1453V40.1348H82.0849V46.5368C82.3104 47.0174 82.5009 47.5217 82.6509 48.0483Z" fill="#0A8900"/>
<path d="M83.5197 49.2099H84.112V49.1764V40.1348H83.5197V49.1764V49.2099Z" fill="#0A8900"/>
<path d="M84.9547 49.2099H85.5469V49.1764V40.1348H84.9547V49.1764V49.2099Z" fill="#0A8900"/>
<path d="M86.3894 49.2099H86.9816V49.1764V40.1348H86.3894V49.1764V49.2099Z" fill="#0A8900"/>
<path d="M66.3846 49.4463H66.958C67.1324 48.476 67.6747 47.854 67.6747 47.854C67.6747 47.854 67.4441 48.5875 67.3068 49.4463H68.4556V47.1935C68.4556 47.1708 68.4587 47.1487 68.4639 47.1274L67.5878 46.4824C67.1429 46.7219 66.3858 47.1492 66.1216 47.4194C66.12 47.421 66.1188 47.4222 66.1174 47.4237C66.0752 47.4679 65.7195 47.8679 65.5234 48.9708C65.4944 49.1341 65.4706 49.2924 65.4506 49.4463H65.9836C66.1945 48.5676 66.777 47.7985 66.777 47.7985C66.777 47.7985 66.479 48.5561 66.347 49.4463H66.3846Z" fill="white"/>
<path d="M74.3899 43.8024C74.1813 43.5791 73.2454 42.9739 72.916 42.7637C72.4044 42.825 71.6643 42.9316 70.9235 43.1005C70.0049 43.31 69.1825 43.7315 68.76 43.9733C68.5556 44.4402 68.1535 45.381 68.0567 45.7737C68.0001 46.0038 67.9678 46.1343 67.9496 46.2086L68.8746 46.9149H73.8727L74.8341 44.389C74.7378 44.2422 74.5617 43.9863 74.3899 43.8024Z" fill="white"/>
<path d="M80.3827 48.1236C80.2695 47.6217 80.0327 46.9678 79.5432 46.2633C78.9093 45.3512 78.2828 44.7947 77.8783 44.4932C77.7236 44.4388 77.4698 44.3723 77.0869 44.3327C76.5788 44.2801 75.7206 44.3843 75.2471 44.4522L74.3845 46.9141H76.4697C76.6237 46.9141 76.7497 47.0401 76.7497 47.1941V49.5612C77.3726 49.7174 77.9349 50.0272 78.3942 50.4481L78.8366 50.4528V49.4469H79.9312C80.1605 48.9648 80.3776 48.1221 80.3776 48.1221C80.3776 48.1221 80.3797 48.1227 80.3827 48.1236Z" fill="white"/>
<path d="M63.9378 49.4471H64.977C65.0767 48.6167 65.2407 48.1177 65.3555 47.8516L64.2859 47.9614C64.1299 48.444 64.0128 48.9408 63.9378 49.4471Z" fill="white"/>
<path d="M70.5302 41.9214C69.1327 42.3193 67.9028 43.0217 66.8908 43.9355C67.3196 43.842 68.0076 43.7013 68.2454 43.7046C68.4601 43.7077 68.647 43.7054 68.7616 43.7033C69.1855 43.4642 69.7697 43.1613 70.4 42.9142C71.2547 42.5791 72.4825 42.4169 73.1702 42.348C73.3574 42.1989 73.605 42.033 73.8894 41.9205C74.1008 41.8367 74.3416 41.7603 74.5688 41.6956C73.2617 41.4755 71.8875 41.5349 70.5302 41.9214Z" fill="white"/>
<path d="M81.6497 49.0647C81.7517 49.1861 81.8462 49.3154 81.9334 49.447H82.17C82.1116 49.0506 82.0272 48.6537 81.9145 48.2582C81.2213 45.824 79.6057 43.8972 77.5548 42.748L77.9507 44.1382C78.3839 44.4708 79.0432 45.0387 79.7003 45.8414C80.3883 46.6819 80.6731 47.6747 80.7907 48.3163C81.0258 48.457 81.3354 48.69 81.6497 49.0647Z" fill="white"/>
<path d="M78.8366 50.9273V50.452L78.3943 50.4473C78.5549 50.5943 78.703 50.7549 78.8366 50.9273Z" fill="black"/>
<path d="M67.725 74.0573C69.9895 75.302 72.0444 76.1969 72.9463 76.5727C73.8483 76.1969 75.9031 75.302 78.1678 74.0573C80.9366 72.5356 83.0795 71.0046 84.4751 69.5605H61.4177C62.8131 71.0046 64.956 72.5356 67.725 74.0573ZM77.1322 71.2234L77.5482 70.0508L77.964 71.2234L79.2078 71.2566L78.2211 72.0145L78.5739 73.2075L77.5482 72.5033L76.5225 73.2075L76.8753 72.0145L75.8886 71.2566L77.1322 71.2234ZM72.2684 71.7088L72.9463 69.7972L73.6243 71.7088L75.6518 71.7629L74.0433 72.9984L74.6184 74.9434L72.9463 73.7954L71.2743 74.9434L71.8494 72.9984L70.2409 71.7629L72.2684 71.7088ZM67.6343 71.2234L68.0501 70.0508L68.466 71.2234L69.7098 71.2566L68.723 72.0145L69.0758 73.2075L68.0501 72.5033L67.0244 73.2075L67.3772 72.0145L66.3905 71.2566L67.6343 71.2234Z" fill="white"/>
<path d="M88.9877 57.0452V56.6138L92.7249 49.4349H88.9877V36.2617H57.0063V49.533C55.2858 49.9038 53.9922 51.4364 53.9922 53.266V63.2291H57.1374C57.3537 64.8625 57.9185 67.2587 59.3834 69.3716C62.5585 73.951 72.4624 77.7588 72.997 77.9619C73.5315 77.7588 83.4355 73.951 86.6105 69.3716C87.6796 67.8295 88.2692 66.1365 88.5939 64.6992H93.9447L88.9877 57.0452ZM85.0286 37.4881H85.8658V37.7672H85.346V38.1443H85.853V38.4234H85.346V39.0646H85.0286V37.4881ZM83.9442 37.4881H84.7814V37.7672H84.2616V38.1443H84.7686V38.4234H84.2616V39.0646H83.9442V37.4881ZM82.0395 38.2891C82.0395 37.7842 82.4272 37.4583 82.8661 37.4583C83.3432 37.4583 83.6948 37.829 83.6948 38.2764C83.6948 38.7238 83.3453 39.0944 82.864 39.0944C82.3803 39.0944 82.0395 38.7131 82.0395 38.2913V38.2891ZM80.7995 37.4881H81.117V38.2189L81.6389 37.4881H81.9733L81.4024 38.2742L82.0308 39.0646H81.6432L81.117 38.3574V39.0646H80.7995V37.4881ZM79.7491 37.4583C80.2028 37.4605 80.4607 37.7949 80.5224 38.025H80.1879C80.139 37.9164 79.9983 37.7396 79.747 37.7374C79.4402 37.7374 79.2421 37.9951 79.2421 38.2742C79.2421 38.5619 79.4487 38.8153 79.7491 38.8153C80.0302 38.8153 80.1581 38.5938 80.1879 38.5363H80.5224C80.4265 38.8622 80.1197 39.0944 79.7512 39.0944C79.2698 39.0944 78.9247 38.7131 78.9247 38.2742C78.9247 37.8546 79.2506 37.4583 79.7491 37.4583ZM78.358 37.4881H78.6754V39.0646H78.358V37.4881ZM76.9603 37.4881H77.2778V38.2189L77.7998 37.4881H78.1342L77.5632 38.2742L78.1917 39.0646H77.804L77.2778 38.3574V39.0646H76.9603V37.4881ZM74.8937 37.4881H75.3709C75.6159 37.4881 75.7565 37.5265 75.8418 37.5882C75.9717 37.682 76.042 37.8418 76.042 38.0165C76.042 38.1316 76.01 38.2338 75.9568 38.3104C75.8886 38.4106 75.7991 38.4554 75.6968 38.4809L76.0484 39.0646H75.7161L75.2921 38.3318H75.3539C75.4583 38.3318 75.5712 38.3254 75.6373 38.2742C75.699 38.2232 75.7374 38.1401 75.7374 38.0442C75.7374 37.9483 75.6905 37.861 75.6201 37.8163C75.5627 37.78 75.486 37.7672 75.3965 37.7672H75.2111V39.0646H74.8937V37.4881ZM72.9955 38.2891C72.9955 37.7842 73.3832 37.4583 73.8221 37.4583C74.2992 37.4583 74.6508 37.829 74.6508 38.2764C74.6508 38.7238 74.3013 39.0944 73.82 39.0944C73.3363 39.0944 72.9955 38.7131 72.9955 38.2913V38.2891ZM71.9814 37.4881H72.8186V37.7672H72.2988V38.1443H72.8058V38.4234H72.2988V39.0646H71.9814V37.4881ZM70.1853 37.4881L70.4836 38.2039L70.784 37.4881H71.1248L70.6434 38.5V39.0646H70.3259V38.5L69.8424 37.4881H70.1853ZM68.5064 37.4881H69.0071C69.2031 37.4881 69.4886 37.5074 69.6761 37.7608C69.7911 37.9057 69.838 38.0804 69.838 38.2742C69.838 38.7196 69.6036 39.0646 69.0306 39.0646H68.5064V37.4881ZM67.4157 37.4881H67.6948L68.319 39.0646H67.9716L67.8566 38.7557H67.2346L67.1217 39.0646H66.7765L67.4157 37.4881ZM65.7518 37.4881H66.6358V37.7672H66.0692V38.1252H66.6252V38.4042H66.0692V38.7855H66.6358V39.0646H65.7518V37.4881ZM64.3861 37.4881H64.8633C65.1084 37.4881 65.2489 37.5265 65.3342 37.5882C65.4641 37.682 65.5344 37.8418 65.5344 38.0165C65.5344 38.1316 65.5024 38.2338 65.4492 38.3104C65.381 38.4106 65.2915 38.4554 65.1892 38.4809L65.5408 39.0646H65.2084L64.7845 38.3318H64.8463C64.9507 38.3318 65.0636 38.3254 65.1296 38.2742C65.1914 38.2232 65.2298 38.1401 65.2298 38.0442C65.2298 37.9483 65.1828 37.861 65.1126 37.8163C65.0551 37.78 64.9783 37.7672 64.8888 37.7672H64.7036V39.0646H64.3861V37.4881ZM62.7116 37.4881H63.029V38.7855H63.5466V39.0646H62.7116V37.4881ZM61.6868 37.4881H62.0042V38.7855H62.5218V39.0646H61.6868V37.4881ZM60.5895 37.4881H60.8686L61.4928 39.0646H61.1456L61.0306 38.7557H60.4085L60.2955 39.0646H59.9504L60.5895 37.4881ZM58.2282 40.1348H59.1271H59.7194H60.5619H61.1542H61.9968H62.589H63.4316H64.0239H64.8666H65.4588H66.3014H66.8936H67.7362H68.3285H69.1711H69.7633H70.606H71.1983H72.0408H72.6331H73.4757H74.0679H74.9105H75.5028H76.3453H76.9377H77.7803H78.3725H79.2151H79.8074H80.6501H81.2423H82.0849H82.6771H83.5197H84.112H84.9547H85.5469H86.3894H86.9816H87.7886V49.1764H86.9816V49.2099H86.3894V49.1764H85.5469V49.2099H84.9547V49.1764H84.112V49.2099H83.5197V49.1764H82.9024C82.846 48.8326 82.7712 48.4885 82.6771 48.1454C82.6683 48.113 82.6601 48.0807 82.6509 48.0484C82.5008 47.5217 82.3104 47.0174 82.0849 46.5368C81.8432 46.0218 81.5607 45.5346 81.2423 45.0781C81.0566 44.8121 80.8589 44.5566 80.6501 44.3121C80.3862 44.0032 80.1046 43.712 79.8074 43.4395C79.6163 43.2643 79.4186 43.097 79.2151 42.9376C78.9443 42.7255 78.6631 42.5274 78.3725 42.3444C78.1791 42.2227 77.9815 42.1076 77.7803 41.9993C77.506 41.8515 77.2248 41.7167 76.9377 41.5949C76.7428 41.5123 76.5454 41.4354 76.3453 41.3652C76.0689 41.2681 75.7878 41.1832 75.5028 41.1105C75.3071 41.0606 75.1096 41.0167 74.9105 40.9787C74.6324 40.9255 74.3514 40.884 74.0679 40.8546C73.8716 40.8343 73.674 40.82 73.4757 40.8114C73.1963 40.7994 72.9152 40.7992 72.6331 40.8112C72.4361 40.8194 72.2386 40.8332 72.0408 40.8535C71.7604 40.8822 71.4793 40.9237 71.1983 40.9771C71.0007 41.0147 70.8032 41.0579 70.606 41.108C70.5107 41.132 70.4156 41.1572 70.3205 41.1843C70.1318 41.2381 69.9463 41.2975 69.7633 41.3612C69.5624 41.4313 69.3649 41.5071 69.1711 41.5889C68.8819 41.7107 68.601 41.8456 68.3285 41.992C68.1263 42.1006 67.9287 42.2156 67.7362 42.337C67.4437 42.5214 67.1627 42.7201 66.8936 42.9318C66.6891 43.0926 66.4916 43.2609 66.3014 43.4363C66.002 43.7124 65.7208 44.0056 65.4588 44.3142C65.2488 44.5616 65.0511 44.8186 64.8666 45.0844C64.5452 45.547 64.2633 46.0356 64.0239 46.5451C63.7822 47.0594 63.5835 47.5948 63.4316 48.1454C63.3383 48.4837 63.2633 48.828 63.2059 49.1764H62.589V49.2099H61.9968V49.1764H61.1542V49.2099H60.5619V49.1764H59.7194V49.2099H59.1271V49.1764H58.2282V40.1348ZM75.1483 65.1334C74.933 65.1334 74.7715 65.2949 74.7355 65.4967C74.6773 65.8107 75.0227 65.869 75.3547 66.0126C75.6865 66.1561 76.0051 66.3804 75.8885 67.0129C75.7718 67.6364 75.2335 68.0176 74.601 68.0176C73.8429 68.0176 73.5873 67.6095 73.7174 66.9097H74.3992C74.3453 67.2551 74.4306 67.4166 74.7266 67.4166C74.9778 67.4166 75.1438 67.2596 75.1886 67.0218C75.2425 66.7214 74.8971 66.6496 74.5652 66.5105C74.2332 66.367 73.9102 66.1606 74.0134 65.5999C74.1301 64.9719 74.5921 64.5682 75.2245 64.5682C75.8391 64.5682 76.1261 64.8643 76.1037 65.5191H75.4398C75.4758 65.2769 75.3681 65.1334 75.1483 65.1334ZM75.6271 63.5156L72.065 58.4503H71.1867V62.0455H67.5682V50.6305H75.8239C77.2749 50.6305 78.4513 51.8069 78.4513 53.2581V56.0334C78.4513 57.3682 77.3692 58.4503 76.0344 58.4503H75.7857L79.3476 63.5156H75.6271ZM70.1827 65.2634L70.2993 64.6355H72.0937L71.977 65.2634H71.4208L70.9228 67.9549H70.2411L70.7389 65.2634H70.1827ZM65.9836 49.4469H65.4506C65.4706 49.293 65.4944 49.1348 65.5234 48.9715C65.7195 47.8685 66.0753 47.4686 66.1174 47.4243C66.1188 47.4229 66.1201 47.4216 66.1216 47.4201C66.3858 47.1498 67.143 46.7225 67.5878 46.4831L68.4639 47.1281C68.4587 47.1494 68.4556 47.1714 68.4556 47.1941V49.4469H67.3068C67.4441 48.5881 67.6747 47.8546 67.6747 47.8546C67.6747 47.8546 67.1324 48.4767 66.958 49.4469H66.3846H66.347C66.479 48.5567 66.7771 47.7992 66.7771 47.7992C66.7771 47.7992 66.1945 48.5683 65.9836 49.4469ZM74.1204 49.174C74.2842 49.174 74.3943 49.0998 74.4583 48.9846H74.8038C74.7372 49.1408 74.6374 49.2585 74.5197 49.3378C74.402 49.4197 74.2638 49.4607 74.1179 49.4607C73.6853 49.4607 73.3758 49.11 73.3758 48.7185C73.3758 48.3192 73.688 47.9686 74.1128 47.9686C74.3227 47.9686 74.507 48.048 74.6374 48.1836C74.8089 48.3602 74.873 48.5803 74.8447 48.826H73.7136C73.7289 49.0512 73.9286 49.1767 74.1204 49.174ZM73.8727 46.9142H68.8746L67.9496 46.2078C67.9678 46.1335 68.0001 46.003 68.0568 45.7729C68.1535 45.3802 68.5556 44.4394 68.76 43.9725C69.1825 43.7307 70.0049 43.3092 70.9235 43.0997C71.6643 42.9308 72.4044 42.8242 72.916 42.7629C73.2454 42.9731 74.1813 43.5783 74.3899 43.8016C74.5617 43.9855 74.7378 44.2414 74.8341 44.3882L73.8727 46.9142ZM72.6644 48.3934C72.6157 48.3269 72.539 48.2833 72.4213 48.2833C72.2881 48.2833 72.2088 48.3371 72.1629 48.4063C72.1168 48.4754 72.1039 48.5599 72.1039 48.6316V49.4171H71.7687V47.5233H72.1039V47.9789V48.1785C72.1833 48.0301 72.3522 47.9662 72.5185 47.9686C72.736 47.9686 72.8718 48.0429 72.9536 48.1656C73.0381 48.2885 73.0636 48.4549 73.0636 48.6443V49.4171H72.7284V48.6597C72.7284 48.5522 72.7105 48.46 72.6644 48.3934ZM70.5733 48.2706V48.0122H70.806V47.5233H71.1414V48.0122H71.3819V48.2706H71.1414V49.4171H70.806V48.2706H70.5733ZM73.8894 41.9197C73.605 42.0323 73.3574 42.1982 73.1702 42.3472C72.4826 42.4161 71.2547 42.5784 70.4 42.9135C69.7697 43.1606 69.1855 43.4634 68.7616 43.7026C68.647 43.7047 68.4601 43.7069 68.2454 43.7039C68.0076 43.7005 67.3196 43.8413 66.8908 43.9347C67.9028 43.0209 69.1327 42.3186 70.5302 41.9206C71.8875 41.5341 73.2617 41.4748 74.5688 41.6948C74.3416 41.7596 74.1008 41.836 73.8894 41.9197ZM66.6213 64.6355L66.2041 66.8963C66.1727 67.0623 66.1771 67.1834 66.2309 67.2596C66.2759 67.3404 66.3745 67.3762 66.527 67.3762C66.6795 67.3762 66.7871 67.3404 66.8724 67.2596C66.9486 67.1834 66.998 67.0623 67.0294 66.8963L67.4466 64.6355H68.1284L67.6888 67.0084C67.635 67.2999 67.5139 67.5556 67.3075 67.7306C67.1012 67.91 66.8052 68.0176 66.4059 68.0176C66.0067 68.0176 65.7555 67.91 65.6119 67.7306C65.4728 67.5556 65.4459 67.2999 65.4998 67.0084L65.9394 64.6355H66.6213ZM79.1898 64.6355H79.8179L80.1453 67.9549H79.4546L79.4007 67.3225H78.6381L78.36 67.9549H77.6692L79.1898 64.6355ZM78.8367 49.4469V50.4528V50.9281C78.703 50.7558 78.5549 50.5951 78.3943 50.4481C77.9349 50.0272 77.3726 49.7174 76.7498 49.5612V47.1941C76.7498 47.0402 76.6238 46.9142 76.4698 46.9142H74.3845L75.2472 44.4522C75.7206 44.3843 76.5788 44.2801 77.0869 44.3327C77.4698 44.3723 77.7236 44.4388 77.8783 44.4932C78.2828 44.7947 78.9093 45.3512 79.5433 46.2633C80.0327 46.9678 80.2695 47.6217 80.3827 48.1236C80.3797 48.1227 80.3777 48.1221 80.3777 48.1221C80.3777 48.1221 80.1605 48.9648 79.9312 49.4469H78.8367ZM79.7003 45.8413C79.0432 45.0386 78.384 44.4708 77.9507 44.1381L77.5548 42.748C79.6058 43.8971 81.2214 45.8239 81.9145 48.2582C82.0272 48.6536 82.1117 49.0506 82.17 49.4469H81.9335C81.8462 49.3153 81.7517 49.1861 81.6498 49.0647C81.3354 48.6899 81.0258 48.457 80.7907 48.3163C80.6731 47.6746 80.3883 46.6819 79.7003 45.8413ZM65.3555 47.8514C65.2407 48.1175 65.0767 48.6166 64.977 49.4469H63.9379C64.0128 48.9406 64.1299 48.4438 64.2859 47.9612L65.3555 47.8514ZM58.7944 58.4503V62.0455H57.1816H55.1759V53.266C55.1759 51.8105 56.3558 50.6305 57.8113 50.6305H65.9918V63.5156H62.3733V58.4503H58.7944ZM63.441 65.8914L63.3243 66.5194H62.4721L62.2075 67.9549H61.5256L62.1401 64.6355H63.6742L63.5576 65.2634H62.7053L62.5887 65.8914H63.441ZM78.1678 74.0578C75.9031 75.3025 73.8483 76.1973 72.9464 76.5732C72.0444 76.1973 69.9895 75.3025 67.725 74.0578C64.956 72.5361 62.8131 71.005 61.4177 69.561H84.4751C83.0796 71.005 80.9367 72.5361 78.1678 74.0578ZM83.9312 67.3269L83.8145 67.9549H82.2625L82.8771 64.6355H83.5589L83.061 67.3269H83.9312ZM88.0474 63.5156L84.4854 58.4503H83.6388V62.0455H80.0203V50.6305H83.6388V55.4429H84.5422L87.0538 50.6187H90.7743L87.4949 56.9178L91.768 63.5156H88.0474Z" fill="#0A8900"/>
<path d="M62.3733 53.6387H59.7697C59.2311 53.6387 58.7944 54.0754 58.7944 54.6139V55.4438H62.3733V53.6387Z" fill="#0A8900"/>
<path d="M73.8169 53.6387H71.1867V55.4438H74.8327V54.6545C74.8327 54.0935 74.378 53.6387 73.8169 53.6387Z" fill="#0A8900"/>
<path d="M87.4949 56.9182L90.7743 50.6191H87.0538L84.5422 55.4434H83.6388V50.631H80.0203V62.0459H83.6388V58.4507H84.4854L88.0474 63.516H91.768L87.4949 56.9182Z" fill="white"/>
<path d="M75.7857 58.4506H76.0344C77.3692 58.4506 78.4513 57.3686 78.4513 56.0337V53.2584C78.4513 51.8072 77.2749 50.6309 75.8239 50.6309H67.5682V62.0458H71.1867V58.4506H72.065L75.6271 63.5159H79.3476L75.7857 58.4506ZM74.8327 55.4433H71.1867V53.6382H73.8169C74.378 53.6382 74.8327 54.093 74.8327 54.654V55.4433Z" fill="white"/>
<path d="M62.3733 63.5159H65.9918V50.6309H57.8113C56.3558 50.6309 55.1758 51.8108 55.1758 53.2663V62.0458H57.1815H58.7943V58.4506H62.3733V63.5159ZM58.7943 55.4433V54.6134C58.7943 54.0749 59.231 53.6382 59.7696 53.6382H62.3733V55.4433H58.7943Z" fill="white"/>
<path d="M63.5576 65.2628L63.6742 64.6348H62.1401L61.5256 67.9542H62.2075L62.4721 66.5187H63.3243L63.441 65.8907H62.5887L62.7053 65.2628H63.5576Z" fill="white"/>
<path d="M65.4998 67.0077C65.4459 67.2992 65.4728 67.5549 65.6119 67.7299C65.7555 67.9093 66.0067 68.0169 66.4059 68.0169C66.8052 68.0169 67.1012 67.9093 67.3075 67.7299C67.5139 67.5549 67.635 67.2992 67.6888 67.0077L68.1284 64.6348H67.4466L67.0294 66.8956C66.998 67.0616 66.9486 67.1827 66.8724 67.2589C66.7871 67.3397 66.6795 67.3755 66.5269 67.3755C66.3745 67.3755 66.2758 67.3397 66.2309 67.2589C66.1771 67.1827 66.1727 67.0616 66.204 66.8956L66.6212 64.6348H65.9394L65.4998 67.0077Z" fill="white"/>
<path d="M70.9228 67.9542L71.4208 65.2628H71.977L72.0937 64.6348H70.2993L70.1827 65.2628H70.7389L70.2411 67.9542H70.9228Z" fill="white"/>
<path d="M76.1037 65.5194C76.1261 64.8645 75.8391 64.5684 75.2245 64.5684C74.5921 64.5684 74.1301 64.9721 74.0134 65.6001C73.9102 66.1608 74.2332 66.3672 74.5652 66.5107C74.897 66.6498 75.2424 66.7216 75.1886 67.0221C75.1438 67.2599 74.9778 67.4169 74.7266 67.4169C74.4306 67.4169 74.3453 67.2554 74.3992 66.91H73.7173C73.5873 67.6098 73.8429 68.0179 74.601 68.0179C75.2335 68.0179 75.7718 67.6366 75.8885 67.0131C76.005 66.3807 75.6865 66.1563 75.3547 66.0128C75.0227 65.8693 74.6773 65.8109 74.7355 65.497C74.7715 65.2951 74.933 65.1336 75.1483 65.1336C75.3681 65.1336 75.4757 65.2771 75.4398 65.5194H76.1037Z" fill="white"/>
<path d="M78.6381 67.3218H79.4007L79.4546 67.9542H80.1453L79.8179 64.6348H79.1898L77.6692 67.9542H78.36L78.6381 67.3218ZM79.3334 65.6082L79.3423 66.6937H78.9206L79.3334 65.6082Z" fill="white"/>
<path d="M82.877 64.6348L82.2625 67.9542H83.8145L83.9312 67.3262H83.0609L83.5589 64.6348H82.877Z" fill="white"/>
<path d="M71.2743 74.9431L72.9463 73.7951L74.6184 74.9431L74.0433 72.9981L75.6518 71.7626L73.6243 71.7085L72.9463 69.7969L72.2684 71.7085L70.2409 71.7626L71.8494 72.9981L71.2743 74.9431Z" fill="#0A8900"/>
<path d="M67.0245 73.2075L68.0501 72.5033L69.0758 73.2075L68.723 72.0145L69.7098 71.2566L68.466 71.2234L68.0501 70.0508L67.6343 71.2234L66.3905 71.2566L67.3773 72.0145L67.0245 73.2075Z" fill="#0A8900"/>
<path d="M76.5225 73.2075L77.5482 72.5033L78.5739 73.2075L78.2211 72.0145L79.2078 71.2566L77.964 71.2234L77.5482 70.0508L77.1322 71.2234L75.8886 71.2566L76.8753 72.0145L76.5225 73.2075Z" fill="#0A8900"/>
<path d="M74.1154 48.2539C73.8671 48.2539 73.7314 48.4331 73.7187 48.5713H74.5145C74.5018 48.4382 74.3611 48.2515 74.1154 48.2539Z" fill="#1B1A22"/>
<path d="M60.4085 38.7559H61.0306L61.1456 39.0648H61.4928L60.8686 37.4883H60.5895L59.9504 39.0648H60.2955L60.4085 38.7559ZM60.7153 37.8633L60.9453 38.5023H60.4915L60.7153 37.8633Z" fill="white"/>
<path d="M62.5218 38.7857H62.0042V37.4883H61.6868V39.0648H62.5218V38.7857Z" fill="white"/>
<path d="M63.5466 38.7857H63.029V37.4883H62.7115V39.0648H63.5466V38.7857Z" fill="white"/>
<path d="M64.7036 37.7674H64.8888C64.9783 37.7674 65.055 37.7802 65.1126 37.8164C65.1828 37.8611 65.2298 37.9485 65.2298 38.0444C65.2298 38.1402 65.1914 38.2233 65.1296 38.2744C65.0636 38.3256 64.9507 38.332 64.8463 38.332H64.7845L65.2084 39.0648H65.5408L65.1892 38.481C65.2915 38.4555 65.381 38.4107 65.4492 38.3106C65.5024 38.234 65.5344 38.1317 65.5344 38.0167C65.5344 37.842 65.4641 37.6822 65.3342 37.5884C65.2489 37.5267 65.1084 37.4883 64.8633 37.4883H64.3861V39.0648H64.7036V37.7674Z" fill="white"/>
<path d="M66.6358 38.7857H66.0692V38.4043H66.6252V38.1253H66.0692V37.7674H66.6358V37.4883H65.7518V39.0648H66.6358V38.7857Z" fill="white"/>
<path d="M67.2346 38.7559H67.8566L67.9716 39.0648H68.3189L67.6948 37.4883H67.4157L66.7765 39.0648H67.1217L67.2346 38.7559ZM67.5413 37.8633L67.7714 38.5023H67.3177L67.5413 37.8633Z" fill="white"/>
<path d="M69.838 38.2744C69.838 38.0805 69.7911 37.9058 69.6761 37.761C69.4886 37.5075 69.2031 37.4883 69.0071 37.4883H68.5064V39.0648H69.0306C69.6036 39.0648 69.838 38.7197 69.838 38.2744ZM68.824 37.7674H69.0498C69.2415 37.7674 69.348 37.8398 69.414 37.9251C69.4886 38.0231 69.5205 38.1551 69.5205 38.2787C69.5205 38.562 69.3884 38.7857 69.0476 38.7857H68.824V37.7674Z" fill="white"/>
<path d="M70.3259 39.0648H70.6434V38.5002L71.1248 37.4883H70.784L70.4836 38.2041L70.1853 37.4883H69.8424L70.3259 38.5002V39.0648Z" fill="white"/>
<path d="M72.2988 38.4236H72.8058V38.1445H72.2988V37.7674H72.8186V37.4883H71.9814V39.0648H72.2988V38.4236Z" fill="white"/>
<path d="M73.82 39.0951C74.3013 39.0951 74.6508 38.7245 74.6508 38.277C74.6508 37.8297 74.2992 37.459 73.8221 37.459C73.3831 37.459 72.9955 37.7849 72.9955 38.2898V38.2919C72.9955 38.7137 73.3363 39.0951 73.82 39.0951ZM73.3129 38.2749C73.3129 37.9979 73.5088 37.7381 73.8242 37.7381C74.1459 37.7381 74.3334 38.0151 74.3334 38.2792C74.3334 38.5391 74.1459 38.816 73.8263 38.816C73.5196 38.816 73.3129 38.5646 73.3129 38.277V38.2749Z" fill="white"/>
<path d="M75.2111 37.7674H75.3964C75.4859 37.7674 75.5627 37.7802 75.6201 37.8164C75.6905 37.8611 75.7374 37.9485 75.7374 38.0444C75.7374 38.1402 75.699 38.2233 75.6373 38.2744C75.5712 38.3256 75.4583 38.332 75.3539 38.332H75.2921L75.7161 39.0648H76.0484L75.6968 38.481C75.7991 38.4555 75.8886 38.4107 75.9568 38.3106C76.01 38.234 76.042 38.1317 76.042 38.0167C76.042 37.842 75.9717 37.6822 75.8418 37.5884C75.7565 37.5267 75.6159 37.4883 75.3709 37.4883H74.8937V39.0648H75.2111V37.7674Z" fill="white"/>
<path d="M77.2778 38.3575L77.804 39.0648H78.1916L77.5632 38.2744L78.1342 37.4883H77.7998L77.2778 38.2191V37.4883H76.9603V39.0648H77.2778V38.3575Z" fill="white"/>
<path d="M78.6754 37.4883H78.3579V39.0648H78.6754V37.4883Z" fill="white"/>
<path d="M79.7512 39.0951C80.1197 39.0951 80.4265 38.8629 80.5224 38.537H80.1879C80.1581 38.5944 80.0302 38.816 79.7491 38.816C79.4487 38.816 79.2421 38.5625 79.2421 38.2749C79.2421 37.9958 79.4402 37.7381 79.747 37.7381C79.9983 37.7402 80.139 37.9171 80.1879 38.0257H80.5224C80.4607 37.7955 80.2028 37.4611 79.7491 37.459C79.2506 37.459 78.9247 37.8552 78.9247 38.2749C78.9247 38.7137 79.2698 39.0951 79.7512 39.0951Z" fill="white"/>
<path d="M81.117 38.3575L81.6431 39.0648H82.0308L81.4023 38.2744L81.9733 37.4883H81.6389L81.117 38.2191V37.4883H80.7994V39.0648H81.117V38.3575Z" fill="white"/>
<path d="M82.8639 39.0951C83.3453 39.0951 83.6948 38.7245 83.6948 38.277C83.6948 37.8297 83.3432 37.459 82.8661 37.459C82.4271 37.459 82.0395 37.7849 82.0395 38.2898V38.2919C82.0395 38.7137 82.3803 39.0951 82.8639 39.0951ZM82.3569 38.2749C82.3569 37.9979 82.5528 37.7381 82.8682 37.7381C83.1899 37.7381 83.3772 38.0151 83.3772 38.2792C83.3772 38.5391 83.1899 38.816 82.8703 38.816C82.5634 38.816 82.3569 38.5646 82.3569 38.277V38.2749Z" fill="white"/>
<path d="M84.2616 38.4236H84.7686V38.1445H84.2616V37.7674H84.7813V37.4883H83.9442V39.0648H84.2616V38.4236Z" fill="white"/>
<path d="M85.346 38.4236H85.853V38.1445H85.346V37.7674H85.8658V37.4883H85.0286V39.0648H85.346V38.4236Z" fill="white"/>
<path d="M71.1414 49.4172V48.2707H71.3819V48.0123H71.1414V47.5234H70.806V48.0123H70.5733V48.2707H70.806V49.4172H71.1414Z" fill="white"/>
<path d="M73.0636 49.4172V48.6444C73.0636 48.4551 73.0381 48.2886 72.9536 48.1658C72.8718 48.043 72.736 47.9688 72.5185 47.9688C72.3522 47.9663 72.1833 48.0302 72.1039 48.1786V47.9791V47.5234H71.7687V49.4172H72.1039V48.6317C72.1039 48.56 72.1168 48.4756 72.1629 48.4064C72.2088 48.3372 72.2881 48.2835 72.4213 48.2835C72.539 48.2835 72.6157 48.327 72.6644 48.3936C72.7105 48.4601 72.7284 48.5523 72.7284 48.6598V49.4172H73.0636Z" fill="white"/>
<path d="M74.6374 48.1837C74.5069 48.0482 74.3227 47.9688 74.1128 47.9688C73.688 47.9688 73.3758 48.3193 73.3758 48.7186C73.3758 49.1101 73.6853 49.4608 74.1179 49.4608C74.2638 49.4608 74.402 49.4198 74.5197 49.338C74.6374 49.2587 74.7372 49.1409 74.8037 48.9847H74.4583C74.3943 49.1 74.2842 49.1741 74.1204 49.1741C73.9286 49.1768 73.7289 49.0513 73.7135 48.8261H74.8447C74.8729 48.5804 74.8089 48.3603 74.6374 48.1837ZM73.7187 48.5702C73.7315 48.432 73.8671 48.2528 74.1154 48.2528C74.3611 48.2503 74.5018 48.437 74.5146 48.5702H73.7187Z" fill="white"/>
<defs>
<clipPath id="clip0">
<rect width="113" height="113" fill="white"/>
</clipPath>
</defs>
</svg>
