<svg width="368" height="318" viewBox="0 0 368 318" fill="none" xmlns="http://www.w3.org/2000/svg">
<path fill-rule="evenodd" clip-rule="evenodd" d="M115.154 49L84 17.8464L92.8459 9L124 40.1541L115.154 49Z" fill="#FFFFFE"/>
<path fill-rule="evenodd" clip-rule="evenodd" d="M124 17.8464L92.8459 49L84 40.1541L115.154 9L124 17.8464Z" fill="#FFFFFE"/>
<path fill-rule="evenodd" clip-rule="evenodd" d="M170.154 47L139 15.8459L147.846 7L179 38.1536L170.154 47Z" fill="#FFFFFE"/>
<path fill-rule="evenodd" clip-rule="evenodd" d="M179 15.8459L147.846 47L139 38.1536L170.154 7L179 15.8459Z" fill="#FFFFFE"/>
<path fill-rule="evenodd" clip-rule="evenodd" d="M43.1541 186L12 154.846L20.8464 146L52 177.154L43.1541 186Z" fill="#FFFFFE"/>
<path fill-rule="evenodd" clip-rule="evenodd" d="M52 154.846L20.8464 186L12 177.154L43.1541 146L52 154.846Z" fill="#FFFFFE"/>
<path fill-rule="evenodd" clip-rule="evenodd" d="M106.154 186L75 154.846L83.8459 146L115 177.154L106.154 186Z" fill="#FFFFFE"/>
<path fill-rule="evenodd" clip-rule="evenodd" d="M115 154.846L83.8459 186L75 177.154L106.154 146L115 154.846Z" fill="#FFFFFE"/>
<path fill-rule="evenodd" clip-rule="evenodd" d="M93 106.5C93 95.178 102.178 86 113.5 86C124.822 86 134 95.178 134 106.5C134 117.822 124.822 127 113.5 127C102.178 127 93 117.822 93 106.5ZM102.225 106.5C102.225 112.727 107.273 117.775 113.5 117.775C119.727 117.775 124.775 112.727 124.775 106.5C124.775 100.273 119.727 95.2252 113.5 95.2252C107.273 95.2252 102.225 100.273 102.225 106.5V106.5Z" fill="#FFFFFE"/>
<path fill-rule="evenodd" clip-rule="evenodd" d="M0 20.5002C0 9.17846 9.17797 0 20.4998 0C31.8215 0 41 9.17846 41 20.5002C41 31.822 31.8215 41 20.4998 41C9.17797 41 0 31.822 0 20.5002ZM9.22516 20.5002C9.22516 26.7272 14.2728 31.7753 20.4998 31.7753C26.7267 31.7753 31.7748 26.7272 31.7748 20.5002C31.7748 14.2733 26.7267 9.22516 20.4998 9.22516C14.2728 9.22516 9.22516 14.2733 9.22516 20.5002V20.5002Z" fill="#FFFFFE"/>
<path fill-rule="evenodd" clip-rule="evenodd" d="M85.5572 101.908C69.3779 104.285 51.0483 106.774 36.6052 97.0696C24.9405 89.2327 20.1016 73.6664 24.548 60.3956C25.3509 57.9986 21.5946 56.9699 20.7961 59.3528C17.0787 70.4501 19.2467 83.1649 26.235 92.5001C34.1274 103.043 47.2263 107.371 59.8953 107.93C68.8474 108.324 77.7586 106.988 86.5911 105.69C89.0596 105.328 88.0101 101.547 85.5572 101.908" fill="#FFFFFE"/>
<path fill-rule="evenodd" clip-rule="evenodd" d="M35.4273 69.3155L22.7896 56.5665C22.077 55.8472 20.6538 55.7759 19.9527 56.5665C15.8068 61.2429 11.6605 65.9198 7.51461 70.5968C5.8351 72.4914 8.66052 75.2659 10.3516 73.3591C14.0511 69.1856 17.7506 65.0126 21.4502 60.8396C25.1637 64.5853 28.8768 68.3315 32.5904 72.0778C34.3867 73.8898 37.2217 71.1256 35.4273 69.3155" fill="#FFFFFE"/>
<path fill-rule="evenodd" clip-rule="evenodd" d="M346 33.4736V158.522C346 169.83 336.832 179 325.521 179H230.479C219.168 179 210 169.83 210 158.522V33.4736C210 22.1654 219.168 13 230.479 13H325.521C330.604 13 335.254 14.8478 338.833 17.9144C341.679 20.3471 343.847 23.5513 345.017 27.1978C345.656 29.1783 346 31.2866 346 33.4736Z" fill="#FFFFFE"/>
<path fill-rule="evenodd" clip-rule="evenodd" d="M335 29H234.287C231.919 29 230 26.9856 230 24.5C230 22.0149 231.919 20 234.287 20H329.29C331.918 22.3584 333.919 25.4648 335 29" fill="#0A8A44"/>
<path fill-rule="evenodd" clip-rule="evenodd" d="M251.029 155L230 133.971L235.971 128L257 149.029L251.029 155Z" fill="#0A8A44"/>
<path fill-rule="evenodd" clip-rule="evenodd" d="M257 133.971L235.971 155L230 149.029L251.029 128L257 133.971Z" fill="#0A8A44"/>
<path fill-rule="evenodd" clip-rule="evenodd" d="M289.029 118L268 96.9714L273.971 91L295 112.029L289.029 118Z" fill="#0A8A44"/>
<path fill-rule="evenodd" clip-rule="evenodd" d="M295 96.9714L273.971 118L268 112.029L289.029 91L295 96.9714Z" fill="#0A8A44"/>
<path fill-rule="evenodd" clip-rule="evenodd" d="M232 104.5C232 97.0441 238.044 91 245.5 91C252.955 91 259 97.0441 259 104.5C259 111.956 252.955 118 245.5 118C238.044 118 232 111.956 232 104.5ZM238.075 104.5C238.075 108.601 241.399 111.925 245.5 111.925C249.601 111.925 252.925 108.601 252.925 104.5C252.925 100.399 249.601 97.0749 245.5 97.0749C241.399 97.0749 238.075 100.399 238.075 104.5Z" fill="#0A8A44"/>
<path fill-rule="evenodd" clip-rule="evenodd" d="M298 61.5002C298 54.0441 304.044 48 311.5 48C318.956 48 325 54.0441 325 61.5002C325 68.9559 318.956 75 311.5 75C304.044 75 298 68.9559 298 61.5002ZM304.075 61.5002C304.075 65.6006 307.399 68.9251 311.5 68.9251C315.601 68.9251 318.925 65.6006 318.925 61.5002C318.925 57.3994 315.601 54.0749 311.5 54.0749C307.399 54.0749 304.075 57.3994 304.075 61.5002V61.5002Z" fill="#0A8A44"/>
<path fill-rule="evenodd" clip-rule="evenodd" d="M320.656 88.5526C318.226 85.8284 315.795 83.1043 313.364 80.3807C312.777 79.7217 311.739 79.9892 311.303 80.6423C311.025 81.0587 310.747 81.475 310.469 81.8914C310.296 81.9919 310.144 82.1291 310.03 82.3048C308.512 84.6599 306.994 87.015 305.476 89.3702C304.565 90.7842 306.819 92.0616 307.743 90.6773C308.692 89.2564 309.64 87.836 310.589 86.4151C313.347 99.0239 315.632 112.715 309.187 124.545C306.471 129.529 302.289 133.917 296.852 135.98C290.428 138.418 283.083 137.501 276.982 134.582C270.253 131.363 264.9 125.972 260.516 120.095C259.526 118.767 257.247 120.057 258.249 121.402C266.555 132.537 279.497 142.605 294.42 139.394C307.832 136.509 314.938 122.824 315.854 110.309C316.516 101.256 314.586 92.2524 312.618 83.4548C314.678 85.764 316.739 88.0737 318.8 90.3835C319.918 91.6369 321.769 89.7997 320.656 88.5526" fill="#0A8A44"/>
<path fill-rule="evenodd" clip-rule="evenodd" d="M48.5308 259.543C43.4488 253.255 38.3673 246.965 33.2853 240.676C31.6873 238.699 28.8858 241.497 30.4692 243.456C35.5512 249.745 40.6327 256.034 45.7147 262.324C47.3127 264.301 50.1142 261.503 48.5308 259.543" fill="#FFFFFE"/>
<path fill-rule="evenodd" clip-rule="evenodd" d="M48.7587 239.66C43.0009 246.623 37.2427 253.585 31.4845 260.547C29.8836 262.483 32.6277 265.291 34.2413 263.34C39.9995 256.377 45.7577 249.415 51.5155 242.453C53.1163 240.517 50.3727 237.709 48.7587 239.66" fill="#FFFFFE"/>
<path fill-rule="evenodd" clip-rule="evenodd" d="M81.6493 262.178C77.6321 256.402 73.615 250.626 69.5973 244.85C68.1934 242.832 64.9302 244.779 66.3505 246.822C70.3682 252.598 74.3853 258.374 78.4025 264.149C79.8064 266.168 83.0701 264.221 81.6493 262.178Z" fill="#FFFFFE"/>
<path fill-rule="evenodd" clip-rule="evenodd" d="M80.6209 242.614C75.593 247.963 70.5657 253.311 65.5383 258.66C63.8108 260.498 66.6431 263.233 68.3792 261.386C73.4065 256.037 78.4339 250.688 83.4617 245.34C85.1892 243.502 82.3569 240.767 80.6209 242.614Z" fill="#FFFFFE"/>
<path fill-rule="evenodd" clip-rule="evenodd" d="M115.551 258.547C111.435 253.259 107.32 247.97 103.204 242.681C101.66 240.697 98.92 243.488 100.449 245.453C104.564 250.742 108.68 256.03 112.796 261.319C114.34 263.303 117.08 260.512 115.551 258.547Z" fill="#FFFFFE"/>
<path fill-rule="evenodd" clip-rule="evenodd" d="M113.105 238.88C108.197 245.613 103.288 252.346 98.3801 259.079C96.8414 261.19 100.371 263.21 101.895 261.12C106.804 254.387 111.711 247.654 116.62 240.921C118.158 238.81 114.628 236.79 113.105 238.88" fill="#FFFFFE"/>
<path fill-rule="evenodd" clip-rule="evenodd" d="M19.3939 294.392C20.4187 293.602 21.4282 294.11 21.9092 294.998C27.0681 293.999 31.9061 298.187 31.9985 303.456C32.0918 308.761 27.8015 313.583 22.7567 314.719C18.0178 315.785 12.5023 313.827 11.2653 308.702C9.7536 302.441 15.0038 297.776 19.3939 294.392V294.392ZM21.049 311.025C24.1337 310.653 26.8863 308.386 27.7976 305.385C28.789 302.122 26.3606 297.977 22.6103 298.87C21.8051 299.062 21.1556 298.78 20.7272 298.299C18.035 300.395 14.9218 303.065 14.968 306.722C15.0102 310.031 18.151 311.374 21.049 311.025V311.025Z" fill="#FFFFFE"/>
<path fill-rule="evenodd" clip-rule="evenodd" d="M65.4146 299.041C70.381 298.57 75.2647 302.2 75.9255 307.221C76.5509 311.97 73.1662 316.871 68.444 317.827C63.7607 318.775 58.6288 315.731 57.3341 311.088C55.9518 306.13 59.017 301.202 63.6092 299.415C63.963 299.277 64.2824 299.254 64.5705 299.3C64.8112 299.164 65.0922 299.072 65.4146 299.041ZM61.3253 310.415C62.3045 312.964 65.3877 314.612 68.0394 313.823C70.7957 313.004 72.6709 309.744 71.8282 306.957C70.9915 304.191 68.1336 302.774 65.4146 303.032C65.3195 303.04 65.2327 303.036 65.146 303.032L65.1077 303.03C64.9761 303.119 64.8321 303.199 64.6686 303.263C61.9507 304.321 60.2554 307.629 61.3253 310.415V310.415Z" fill="#FFFFFE"/>
<path fill-rule="evenodd" clip-rule="evenodd" d="M103.597 297.04C107.44 295.221 112.244 295.732 115.312 299.018C119.066 303.041 118.896 309.714 114.75 313.367C110.379 317.219 103.543 316.791 99.6948 312.435C95.6417 307.847 96.2782 300.905 100.814 296.907C101.75 296.082 102.907 296.354 103.597 297.04V297.04ZM102.692 309.944C105.098 312.594 109.136 312.853 111.933 310.651C114.747 308.436 114.832 304.052 112.343 301.532C109.885 299.041 105.802 299.471 103.441 301.812C102.86 302.388 102.178 302.478 101.581 302.284C100.409 304.755 100.633 307.678 102.692 309.944Z" fill="#FFFFFE"/>
<path fill-rule="evenodd" clip-rule="evenodd" d="M139.07 213.332C143.869 210.746 150.315 211.96 153.38 216.667C156.309 221.167 155.144 227.748 150.868 230.971C146.584 234.201 139.971 233.492 136.454 229.433C132.79 225.205 133.383 218.62 137.207 214.739C137.531 214.411 137.888 214.237 138.244 214.18C138.393 213.851 138.659 213.554 139.07 213.332V213.332ZM139.403 226.835C141.561 229.378 145.805 229.85 148.474 227.863C151.207 225.828 151.961 221.467 149.993 218.651C148.02 215.828 143.982 215.145 141.05 216.725C140.82 216.849 140.594 216.913 140.374 216.947C140.282 217.143 140.16 217.336 139.981 217.518C137.564 219.969 137.098 224.121 139.403 226.835V226.835Z" fill="#FFFFFE"/>
<path fill-rule="evenodd" clip-rule="evenodd" d="M155.098 247.098C152.153 245.158 149.208 243.219 146.264 241.279C145.327 240.661 144.162 241.147 143.582 241.988C141.795 244.577 140.008 247.166 138.221 249.755C136.964 251.578 139.899 253.905 141.301 252.152C142.348 250.842 143.396 249.531 144.443 248.221C145.877 253.583 144.027 259.402 140.766 263.876C136.181 270.168 128.685 273.265 121.396 275.074C113.332 277.076 104.979 277.995 96.7784 279.247C87.6149 280.647 78.4509 282.046 69.2869 283.446C58.9979 285.017 48.7089 286.588 38.4195 288.16C35.9328 288.54 36.9891 292.351 39.4621 291.974C59.3974 288.929 79.3327 285.885 99.268 282.84C114.77 280.473 134.749 279.68 144.555 265.297C148.159 260.011 149.797 253.405 148.22 247.287C149.853 248.363 151.486 249.438 153.119 250.514C155.238 251.91 157.205 248.487 155.098 247.098" fill="#FFFFFE"/>
<path fill-rule="evenodd" clip-rule="evenodd" d="M126.665 219.364C119.994 217.128 113.055 215.092 105.983 216.423C99.605 217.624 94.7209 221.753 92.1869 227.741C89.4068 234.311 88.6385 241.928 88.016 248.983C87.4012 255.953 87.3973 262.953 87.9426 269.921C86.6112 269.18 85.2798 268.439 83.9483 267.698C82.5904 266.943 80.4897 268.224 81.1127 269.902C82.4635 273.536 85.771 276.196 89.7422 275.989C93.6206 275.787 96.823 272.696 97.6212 268.947C98.1424 266.499 94.4217 265.452 93.8986 267.91C93.6042 269.293 92.8504 270.358 91.8901 271.054C90.7377 258.246 91.0586 244.452 94.7045 232.142C96.4673 226.189 100.101 221.734 106.278 220.338C112.82 218.86 119.474 221.061 125.639 223.127C128.002 223.92 129.016 220.152 126.665 219.364" fill="#FFFFFE"/>
<path fill-rule="evenodd" clip-rule="evenodd" d="M224.659 309.145C220.713 303.393 216.767 297.641 212.82 291.889C211.394 289.809 207.902 291.758 209.341 293.855C213.287 299.607 217.233 305.359 221.18 311.111C222.606 313.191 226.098 311.242 224.659 309.145Z" fill="#FFFFFE"/>
<path fill-rule="evenodd" clip-rule="evenodd" d="M222.698 293.634C217.979 298.914 213.261 304.195 208.542 309.475C206.826 311.395 209.581 314.292 211.302 312.366C216.021 307.086 220.74 301.805 225.458 296.524C227.174 294.605 224.419 291.708 222.698 293.634Z" fill="#FFFFFE"/>
<path fill-rule="evenodd" clip-rule="evenodd" d="M255.968 267.322C240.621 260.764 223.054 268.592 218.097 284.588C217.349 287.005 221.142 288.039 221.888 285.63C226.028 272.269 240.994 265.158 253.985 270.708C256.285 271.691 258.289 268.313 255.968 267.322" fill="#FFFFFE"/>
<path fill-rule="evenodd" clip-rule="evenodd" d="M258.883 269.046C257.812 263.157 251.762 261.151 246.524 260.051C243.99 259.519 242.907 263.321 245.451 263.855C248.865 264.572 254.913 265.726 254.976 270.219C255.004 272.149 253.12 273.415 251.827 274.628C250.043 276.302 248.259 277.976 246.475 279.65C244.598 281.412 247.456 284.199 249.331 282.439C251.801 280.122 254.425 277.889 256.76 275.442C258.466 273.654 259.33 271.503 258.883 269.046Z" fill="#FFFFFE"/>
<path fill-rule="evenodd" clip-rule="evenodd" d="M319.452 255.912C324.895 253.711 331.196 252.526 335.633 257.387C340.122 262.305 337.686 270.076 332.833 273.638C327.827 277.314 319.969 276.753 316.092 271.579C313.617 268.277 313.385 263.666 315.148 260.102C314.651 259.24 314.715 258.095 315.838 257.544C316.648 257.147 317.5 256.747 318.378 256.364C318.459 256.309 318.538 256.253 318.622 256.201C318.905 256.023 319.184 255.936 319.452 255.912V255.912ZM319.84 269.953C322.824 272.753 327.916 272.658 331.014 270.098C334.203 267.462 335.738 261.923 331.787 259.224C328.325 256.859 324.116 258.092 320.461 259.714C317.148 261.898 316.978 267.269 319.84 269.953Z" fill="#FFFFFE"/>
<path fill-rule="evenodd" clip-rule="evenodd" d="M317.655 257.221C309.529 245.684 294.094 240.255 280.361 244.364C277.971 245.079 278.99 248.765 281.397 248.044C293.382 244.458 307.142 248.996 314.292 259.147C315.707 261.155 319.083 259.249 317.655 257.221Z" fill="#FFFFFE"/>
<path fill-rule="evenodd" clip-rule="evenodd" d="M293.175 256.234C288.737 252.848 284.299 249.462 279.861 246.076C282.302 243.507 284.743 240.938 287.184 238.368C288.92 236.541 286.153 233.769 284.412 235.601L275.562 244.915C274.609 245.918 274.952 247.221 275.959 247.989C281.038 251.863 286.117 255.738 291.196 259.613C293.2 261.142 295.155 257.745 293.175 256.234" fill="#FFFFFE"/>
<path fill-rule="evenodd" clip-rule="evenodd" d="M338.343 213.381L329.921 206.279C329.841 205.992 329.76 205.706 329.68 205.419C329.152 203.536 326.444 203.518 325.923 205.419C324.977 208.868 324.031 212.317 323.085 215.765C322.402 218.257 326.021 219.214 326.843 216.823C327.207 215.764 327.57 214.705 327.935 213.646C329.146 217.964 330.358 222.282 331.569 226.599C332.258 229.057 336.019 228.012 335.326 225.542C334.153 221.364 332.981 217.185 331.809 213.007C333.069 214.07 334.328 215.132 335.588 216.194C337.507 217.812 340.279 215.013 338.343 213.381" fill="#FFFFFE"/>
<path fill-rule="evenodd" clip-rule="evenodd" d="M364.433 206.432C363.458 208.601 362.473 211.008 360.608 212.553C360.607 212.553 360.607 212.554 360.606 212.554L357.063 192.43C356.623 189.926 352.858 190.987 353.297 193.482C354.41 199.8 355.522 206.119 356.634 212.436C355.869 211.699 355.104 210.96 354.339 210.222C353.199 209.123 350.866 209.832 351.006 211.622C351.253 214.79 353.515 217.129 356.381 217.655C356.991 218.244 357.602 218.833 358.213 219.422C359.702 220.859 361.809 219.389 361.476 217.496C361.435 217.263 361.394 217.03 361.353 216.797C364.479 215.132 366.349 211.671 367.805 208.43C368.839 206.128 365.474 204.114 364.433 206.432" fill="#FFFFFE"/>
<path fill-rule="evenodd" clip-rule="evenodd" d="M207.379 217.64C203.386 213.94 199.392 210.24 195.398 206.54C193.534 204.814 190.749 207.626 192.621 209.36C196.614 213.06 200.608 216.759 204.602 220.46C206.466 222.186 209.251 219.374 207.379 217.64Z" fill="#FFFFFE"/>
<path fill-rule="evenodd" clip-rule="evenodd" d="M203.471 201.07C200.889 207.365 198.306 213.66 195.724 219.956C195.68 220.037 195.638 220.122 195.602 220.214L195.127 221.421C194.294 223.539 197.803 225.116 198.674 222.994C201.39 216.373 204.106 209.751 206.822 203.13C207.801 200.743 204.459 198.662 203.471 201.07" fill="#FFFFFE"/>
<path fill-rule="evenodd" clip-rule="evenodd" d="M206.715 231.549C208.798 231.045 211.08 231.479 212.772 233.108C216.149 236.36 215.586 241.969 211.768 244.598C207.764 247.354 202.317 245.874 199.972 241.674C197.644 237.506 199.713 232.178 203.894 230.201C205.201 229.583 206.405 230.49 206.715 231.549ZM203.108 239.36C203.936 241.43 206.307 242.718 208.463 242.022C210.81 241.263 212.067 238.519 210.579 236.386C209.284 234.531 206.639 234.91 205.573 236.744C204.914 237.879 203.675 237.856 202.845 237.269C202.753 237.94 202.822 238.646 203.108 239.36V239.36Z" fill="#FFFFFE"/>
<path fill-rule="evenodd" clip-rule="evenodd" d="M241.581 213.565C233.177 210.746 224.772 207.927 216.368 205.108C213.997 204.313 212.981 208.144 215.34 208.935C222.693 211.402 230.047 213.868 237.4 216.334C232.887 220.767 228.373 225.199 223.86 229.631C222.059 231.4 224.795 234.204 226.594 232.438L242.434 216.882C243.53 215.806 242.921 214.015 241.581 213.565" fill="#FFFFFE"/>
</svg>
