<svg width="291" height="400" viewBox="0 0 291 400" fill="none" xmlns="http://www.w3.org/2000/svg">
<path fill-rule="evenodd" clip-rule="evenodd" d="M230.624 366.093C226.704 360.687 222.784 355.282 218.859 349.876C217.355 347.797 213.849 349.803 215.378 351.907C219.298 357.313 223.218 362.719 227.138 368.124C228.646 370.203 232.148 368.197 230.624 366.093" fill="#FFFFFE"/>
<path fill-rule="evenodd" clip-rule="evenodd" d="M228.673 350.604C223.637 355.909 218.606 361.213 213.57 366.517C211.799 368.381 214.561 371.261 216.332 369.396C221.363 364.091 226.399 358.787 231.43 353.483C233.201 351.619 230.439 348.739 228.673 350.604" fill="#FFFFFE"/>
<path fill-rule="evenodd" clip-rule="evenodd" d="M206.579 356.162C194.622 354.393 183.525 348.593 175.4 339.541C167.874 331.157 163.446 320.305 162.53 309.105C165.745 311.13 168.96 313.154 172.174 315.179C174.322 316.531 176.293 313.111 174.154 311.764C170.221 309.287 166.288 306.81 162.354 304.333C162.355 304.201 162.353 304.07 162.356 303.938C162.386 301.957 159.678 301.273 158.7 302.94C156.229 307.147 153.759 311.355 151.288 315.562C149.999 317.757 153.384 319.745 154.676 317.558C156.031 315.263 157.386 312.967 158.741 310.672C161.386 335.487 180.526 356.275 205.535 359.975C208.007 360.341 209.071 356.531 206.579 356.162" fill="#FFFFFE"/>
<path fill-rule="evenodd" clip-rule="evenodd" d="M134.137 293.38C119.552 304.088 110.327 320.444 109.006 338.14C108.82 340.626 112.82 340.615 113.005 338.14C114.213 321.943 122.781 306.542 136.155 296.723C138.18 295.237 136.189 291.873 134.137 293.38" fill="#FFFFFE"/>
<path fill-rule="evenodd" clip-rule="evenodd" d="M118.022 332.441C115.348 334.037 112.716 335.803 109.96 337.246C107.024 338.784 104.022 336.844 105.353 333.431C106.298 331.008 102.435 329.957 101.5 332.355C99.9372 336.361 102.171 340.848 106.346 341.837C108.343 342.31 110.227 341.695 111.977 340.741C114.716 339.248 117.359 337.535 120.039 335.936C122.253 334.614 120.245 331.114 118.022 332.441" fill="#FFFFFE"/>
<path fill-rule="evenodd" clip-rule="evenodd" d="M110.216 351.658C115.11 349.761 121.131 352.096 123.231 356.977C125.246 361.661 123.16 367.594 118.634 369.949C114.128 372.294 108.013 370.569 105.377 366.23C102.566 361.601 104.289 355.66 108.46 352.566C108.793 352.32 109.122 352.209 109.433 352.198C109.632 351.976 109.887 351.785 110.216 351.658V351.658ZM108.936 364.575C110.74 367.062 114.576 367.942 117.221 366.304C119.945 364.618 121.026 360.591 119.34 357.823C117.651 355.049 114.125 354.279 111.245 355.395C111.1 355.451 110.961 355.488 110.826 355.511C110.714 355.655 110.579 355.79 110.415 355.912C107.822 357.835 107.004 361.914 108.936 364.575V364.575Z" fill="#FFFFFE"/>
<path fill-rule="evenodd" clip-rule="evenodd" d="M142.741 354.078C142.147 352.942 140.979 352.761 139.987 353.269C138.318 354.126 136.65 354.983 134.981 355.839C133.993 356.346 133.749 357.946 134.259 358.922C134.853 360.058 136.022 360.24 137.013 359.73C138.682 358.874 140.35 358.018 142.019 357.161C143.007 356.654 143.251 355.054 142.741 354.078" fill="#FFFFFE"/>
<path fill-rule="evenodd" clip-rule="evenodd" d="M155.932 347.576C155.678 346.543 154.569 345.705 153.605 346.099C152.2 346.674 150.795 347.248 149.389 347.822C148.43 348.215 147.782 349.258 148.068 350.424C148.322 351.457 149.431 352.295 150.395 351.901C151.8 351.326 153.206 350.752 154.611 350.177C155.57 349.785 156.218 348.742 155.932 347.576" fill="#FFFFFE"/>
<path fill-rule="evenodd" clip-rule="evenodd" d="M180.417 330.578C179.574 329.72 178.442 329.9 177.586 330.578C175.919 331.899 174.251 333.22 172.583 334.541C171.729 335.217 171.886 336.712 172.583 337.422C173.426 338.28 174.558 338.1 175.414 337.422C177.081 336.101 178.749 334.78 180.417 333.46C181.271 332.783 181.114 331.288 180.417 330.578Z" fill="#FFFFFE"/>
<path fill-rule="evenodd" clip-rule="evenodd" d="M197.952 318.314C196.633 319.145 195.31 319.977 193.991 320.808C191.715 322.242 193.767 326.123 196.048 324.686C197.367 323.855 198.685 323.023 200.009 322.192C202.285 320.758 200.233 316.877 197.952 318.314Z" fill="#FFFFFE"/>
<path fill-rule="evenodd" clip-rule="evenodd" d="M215.952 306.313C214.634 307.144 213.31 307.975 211.992 308.805C209.716 310.237 211.763 314.122 214.048 312.687C215.366 311.856 216.69 311.025 218.008 310.195C220.284 308.763 218.237 304.877 215.952 306.313" fill="#FFFFFE"/>
<path fill-rule="evenodd" clip-rule="evenodd" d="M165.03 340.274C164.045 339.705 162.974 340.051 162.363 341.039C161.999 341.629 161.635 342.219 161.271 342.809C160.699 343.735 161.081 345.211 161.97 345.725C162.955 346.295 164.026 345.949 164.636 344.96C165.001 344.371 165.365 343.781 165.729 343.191C166.302 342.265 165.919 340.789 165.03 340.274" fill="#FFFFFE"/>
<path fill-rule="evenodd" clip-rule="evenodd" d="M144.428 393.663C140.419 389.638 136.411 385.613 132.403 381.588C130.608 379.786 127.78 382.537 129.573 384.337C133.581 388.363 137.589 392.387 141.597 396.412C143.391 398.214 146.22 395.463 144.428 393.663Z" fill="#FFFFFE"/>
<path fill-rule="evenodd" clip-rule="evenodd" d="M141.876 380.668C137.735 385.967 133.593 391.267 129.452 396.566C127.936 398.506 130.593 401.291 132.124 399.332C136.265 394.033 140.407 388.733 144.548 383.434C146.064 381.494 143.406 378.709 141.876 380.668" fill="#FFFFFE"/>
<path fill-rule="evenodd" clip-rule="evenodd" d="M184.367 387.789C180.351 384.354 176.337 380.919 172.322 377.483C170.463 375.892 167.759 378.607 169.633 380.21C173.647 383.646 177.662 387.081 181.676 390.517C183.536 392.108 186.24 389.393 184.367 387.789Z" fill="#FFFFFE"/>
<path fill-rule="evenodd" clip-rule="evenodd" d="M180.14 374.876C176.219 380.281 172.298 385.686 168.377 391.092C166.852 393.193 170.349 395.205 171.859 393.124C175.78 387.719 179.702 382.314 183.623 376.908C185.149 374.807 181.65 372.795 180.14 374.876Z" fill="#FFFFFE"/>
<path fill-rule="evenodd" clip-rule="evenodd" d="M112.157 295.042C108.059 291.83 103.962 288.618 99.8645 285.406C97.8164 283.8 95.8193 287.372 97.8434 288.958C101.941 292.17 106.038 295.382 110.136 298.595C112.184 300.2 114.181 296.628 112.157 295.042" fill="#FFFFFE"/>
<path fill-rule="evenodd" clip-rule="evenodd" d="M107.023 283.304C104.735 288.751 102.448 294.199 100.16 299.646C99.1771 301.987 103.006 303.009 103.978 300.696C106.265 295.249 108.553 289.801 110.84 284.354C111.823 282.013 107.994 280.991 107.023 283.304Z" fill="#FFFFFE"/>
<path fill-rule="evenodd" clip-rule="evenodd" d="M235.051 296.263C232.688 297.585 230.33 298.906 227.972 300.227C225.751 301.472 227.732 304.982 229.953 303.737C232.311 302.415 234.669 301.094 237.027 299.773C239.248 298.529 237.272 295.018 235.051 296.263" fill="#FFFFFE"/>
<path fill-rule="evenodd" clip-rule="evenodd" d="M254.752 290.028C254.2 288.988 253.054 288.743 252.123 289.265L248.939 291.062C248.013 291.582 247.75 293.022 248.248 293.972C248.8 295.012 249.946 295.257 250.877 294.735C251.936 294.136 253.001 293.537 254.061 292.938C254.987 292.418 255.25 290.978 254.752 290.028Z" fill="#FFFFFE"/>
<path fill-rule="evenodd" clip-rule="evenodd" d="M276.76 266.38C282.336 264.881 288.682 267.933 290.512 273.573C292.26 278.967 289.142 285.373 283.861 287.354C278.493 289.368 271.987 286.492 269.785 281.204C267.529 275.799 270.341 269.193 275.613 266.82C275.792 266.738 275.971 266.693 276.15 266.664C276.324 266.546 276.518 266.444 276.76 266.38V266.38ZM273.25 279.467C274.514 282.909 278.749 284.949 282.23 283.826C285.831 282.665 288.034 278.181 286.78 274.605C285.517 271.008 281.334 269.171 277.786 270.123C277.723 270.141 277.66 270.144 277.593 270.155C277.583 270.16 277.578 270.167 277.563 270.172C274.131 271.719 271.881 275.737 273.25 279.467V279.467Z" fill="#FFFFFE"/>
<path fill-rule="evenodd" clip-rule="evenodd" d="M107.494 233.548C106.189 234.957 104.883 236.367 103.572 237.777C102.858 238.548 102.762 239.694 103.572 240.452C104.306 241.136 105.718 241.227 106.437 240.452L108.168 238.584C109.068 238.586 109.787 238.001 110.121 237.2C110.374 236.596 110.627 235.992 110.88 235.389C111.614 233.632 108.78 232.164 107.494 233.548" fill="#FFFFFE"/>
<path fill-rule="evenodd" clip-rule="evenodd" d="M75.7236 208.774C79.2715 207.031 83.7152 208.333 85.8942 211.669C88.2342 215.252 86.649 219.796 83.1213 221.887C79.6086 223.966 75.004 223.128 72.9911 219.41C71.1039 215.921 71.9846 211.664 75.0142 209.223C75.0543 209.184 75.0996 209.147 75.15 209.109C75.17 209.095 75.1852 209.078 75.2053 209.064C75.3765 208.932 75.5526 208.838 75.7236 208.774V208.774ZM77.2334 212.552C73.9875 215.014 77.2334 220.711 81.0883 218.399C85.2651 215.896 81.2594 210.337 77.475 212.396C77.4398 212.416 77.4045 212.425 77.3643 212.443C77.324 212.48 77.2838 212.517 77.2334 212.552Z" fill="#FFFFFE"/>
<path fill-rule="evenodd" clip-rule="evenodd" d="M14.0316 220.133C10.443 215.65 6.85397 211.167 3.26537 206.684C1.65452 204.671 -1.11857 207.548 0.479973 209.545C4.43988 214.492 8.40031 219.439 12.3607 224.386C13.3437 225.615 15.2628 224.835 15.6528 223.494C15.738 223.202 15.8232 222.91 15.908 222.617C16.3369 221.144 15.1919 220.176 14.0316 220.133" fill="#FFFFFE"/>
<path fill-rule="evenodd" clip-rule="evenodd" d="M11.2942 204.991C7.82311 211.305 4.3519 217.619 0.880778 223.932C0.46082 224.253 0.148428 224.739 0.0792641 225.392C0.056873 225.607 0.0339155 225.822 0.0110268 226.038C-0.204923 228.081 2.81193 228.708 3.72001 227.056C7.39066 220.38 11.0608 213.703 14.7315 207.027C15.9794 204.757 12.5427 202.721 11.2942 204.991" fill="#FFFFFE"/>
<path fill-rule="evenodd" clip-rule="evenodd" d="M48.598 138.369C36.9952 136.19 24.5906 143.875 22.4311 155.571C21.0357 163.129 23.4462 170.589 26.1614 177.576C28.9319 184.706 32.3133 192.318 31.1158 200.143C30.0097 207.373 23.2419 214.494 15.377 211.303C13.0112 210.344 11.9812 214.142 14.3196 215.091C19.8287 217.326 26.1778 215.229 30.1791 211.105C34.8874 206.254 35.8647 199.126 35.0032 192.711C33.1868 179.183 19.5483 162.675 29.3142 149.505C32.6692 144.98 38.2061 142.069 43.8648 141.885C43.9215 143.257 45.3095 144.547 46.7546 143.553C47.5276 143.022 48.3002 142.49 49.0732 141.959C50.3438 141.086 50.4194 138.712 48.598 138.369" fill="#FFFFFE"/>
<path fill-rule="evenodd" clip-rule="evenodd" d="M47.1118 136.416C44.5881 134.123 42.0563 131.839 39.5285 129.55C37.6112 127.814 34.7091 130.59 36.6315 132.331C38.2401 133.787 39.8486 135.243 41.4571 136.7C42.913 138.018 44.7524 139.326 45.9825 140.848C49.2589 144.901 42.7784 147.232 39.7119 148.115C37.1928 148.84 38.2662 152.637 40.8011 151.907C45.472 150.562 51.1584 148.092 50.9965 142.54C50.9197 139.903 48.9753 138.109 47.1118 136.416Z" fill="#FFFFFE"/>
<path fill-rule="evenodd" clip-rule="evenodd" d="M97.8823 149.074C101.729 145.133 108.381 144.792 112.258 149.156C116.664 154.12 115.561 161.742 110.375 165.62C105.087 169.576 96.9795 168.583 93.374 162.771C90.3323 157.867 92.5624 151.041 97.8823 149.074ZM97.2623 161.448C99.883 164.575 104.577 164.843 107.822 162.611C111.15 160.321 112.233 155.734 109.792 152.344C107.69 149.425 103.298 149.147 100.832 151.626C100.702 151.937 100.481 152.209 100.166 152.413C99.6753 153.098 98.9665 153.326 98.2989 153.245C95.6169 154.922 95.1468 158.924 97.2623 161.448V161.448Z" fill="#FFFFFE"/>
<path fill-rule="evenodd" clip-rule="evenodd" d="M170.57 206.254C169.888 206.133 169.2 206.013 168.513 205.892C167.722 205.753 167.079 206.039 166.644 206.505C159.662 207.213 152.556 208.181 145.594 208.089C141.965 208.042 138.325 207.061 136.535 203.674C135.057 200.87 135.141 197.376 135.947 194.391C137.866 187.303 143.522 181.841 145.673 174.81C147.483 168.887 146.801 161.97 141.485 158.021C136.09 154.014 128.456 154.521 122.369 156.502C119.961 157.285 120.994 161.054 123.422 160.264C128.683 158.552 136.031 157.712 140.239 162.128C145.812 167.972 140.941 176.798 137.564 182.367C134.167 187.969 130.745 193.836 131.581 200.613C132.342 206.812 136.708 211.048 142.978 211.814C147.122 212.32 151.37 211.671 155.503 211.32C160.349 210.909 165.2 210.498 170.046 210.086C172.098 209.912 172.929 206.668 170.57 206.254" fill="#FFFFFE"/>
<path fill-rule="evenodd" clip-rule="evenodd" d="M169.939 204.126C165.777 203.691 162.182 201.715 159.423 198.648C157.679 196.708 154.802 199.561 156.536 201.492C159.3 204.561 162.784 206.581 166.69 207.569C164.37 211.387 162.049 215.205 159.724 219.023C158.627 220.831 160.764 222.648 162.518 221.774L164.298 220.885C165.502 220.285 165.543 219.081 164.982 218.206C167.221 214.522 169.459 210.836 171.703 207.152C172.565 205.733 171.418 204.28 169.939 204.126" fill="#FFFFFE"/>
<path fill-rule="evenodd" clip-rule="evenodd" d="M138.68 105.113C135.893 106.091 133.102 107.069 130.31 108.048C128.007 108.856 128.992 112.702 131.32 111.887C134.107 110.908 136.898 109.93 139.69 108.952C141.993 108.144 141.008 104.298 138.68 105.113" fill="#FFFFFE"/>
<path fill-rule="evenodd" clip-rule="evenodd" d="M156.606 110.85C155.205 110.267 153.804 109.684 152.398 109.101C151.442 108.703 150.324 109.544 150.069 110.567C149.78 111.744 150.433 112.75 151.394 113.15C152.795 113.733 154.196 114.316 155.602 114.899C156.558 115.297 157.676 114.456 157.931 113.433C158.22 112.256 157.567 111.25 156.606 110.85Z" fill="#FFFFFE"/>
<path fill-rule="evenodd" clip-rule="evenodd" d="M173.409 126.575C171.743 124.911 170.072 123.248 168.406 121.585C166.581 119.766 163.766 122.605 165.591 124.425C167.262 126.088 168.928 127.752 170.594 129.415C172.419 131.233 175.234 128.395 173.409 126.575" fill="#FFFFFE"/>
<path fill-rule="evenodd" clip-rule="evenodd" d="M181.857 143.586C180.928 141.174 179.993 138.762 179.059 136.35C178.134 133.967 174.208 135.001 175.143 137.414C176.072 139.826 177.007 142.238 177.941 144.65C178.861 147.033 182.792 145.999 181.857 143.586Z" fill="#FFFFFE"/>
<path fill-rule="evenodd" clip-rule="evenodd" d="M186.917 159.523C186.334 157.487 185.747 155.451 185.164 153.415C184.455 150.934 180.369 151.987 181.084 154.477C181.666 156.513 182.248 158.55 182.836 160.586C183.545 163.065 187.631 162.013 186.917 159.523Z" fill="#FFFFFE"/>
<path fill-rule="evenodd" clip-rule="evenodd" d="M192.739 183.049L188.779 175.973C187.537 173.752 184.02 175.729 185.262 177.951L189.221 185.027C190.463 187.248 193.98 185.272 192.739 183.049" fill="#FFFFFE"/>
<path fill-rule="evenodd" clip-rule="evenodd" d="M210.601 192.586C207.542 192.067 204.487 191.547 201.428 191.027C198.997 190.614 197.943 194.996 200.399 195.414C203.458 195.934 206.513 196.453 209.572 196.972C212.003 197.386 213.057 193.004 210.601 192.586" fill="#FFFFFE"/>
<path fill-rule="evenodd" clip-rule="evenodd" d="M222.245 195H221.754C220.838 195 219.962 195.92 220.001 197C220.045 198.084 220.773 199 221.754 199H222.245C223.162 199 224.038 198.08 223.999 197C223.955 195.916 223.227 195 222.245 195Z" fill="#FFFFFE"/>
<path fill-rule="evenodd" clip-rule="evenodd" d="M227.911 196.948C227.241 192.142 223.299 188.992 219.713 186.355C217.747 184.908 215.874 188.26 217.822 189.694C220.05 191.333 222.602 193.195 223.758 195.856C224.985 198.677 223.777 202.109 220.884 203.153C218.623 203.969 219.596 207.706 221.881 206.882C225.874 205.44 228.529 201.363 227.911 196.948" fill="#FFFFFE"/>
<path fill-rule="evenodd" clip-rule="evenodd" d="M266.031 50.1967C263.691 51.2743 261.35 52.3518 259.005 53.4289C256.737 54.4738 258.709 57.8428 260.967 56.8033C263.312 55.7257 265.653 54.6486 267.993 53.5711C270.266 52.5262 268.289 49.1572 266.031 50.1967Z" fill="#FFFFFE"/>
<path fill-rule="evenodd" clip-rule="evenodd" d="M256.454 60.5502C255.716 59.8169 254.475 59.8164 253.742 60.5502C252.678 61.6142 251.615 62.6782 250.546 63.7423C249.818 64.4737 249.818 65.7186 250.546 66.45C251.284 67.1833 252.525 67.1833 253.258 66.45C254.322 65.386 255.385 64.3219 256.454 63.2579C257.182 62.5265 257.182 61.2815 256.454 60.5502" fill="#FFFFFE"/>
<path fill-rule="evenodd" clip-rule="evenodd" d="M247.071 74.2561C246.236 73.7594 244.805 73.9779 244.377 74.9752C243.66 76.6509 242.947 78.3261 242.229 80.0013C241.801 80.9926 241.939 82.1526 242.932 82.744C243.768 83.2406 245.198 83.0221 245.621 82.0248C246.339 80.3496 247.057 78.6739 247.774 76.9987C248.197 76.0075 248.06 74.8474 247.071 74.2561Z" fill="#FFFFFE"/>
<path fill-rule="evenodd" clip-rule="evenodd" d="M243.235 91C242.211 91 241.569 91.8668 241.477 92.8833C241.318 94.6278 241.164 96.3722 241.006 98.1167C240.914 99.1308 241.881 100 242.765 100C243.794 100 244.431 99.1337 244.523 98.1167C244.682 96.3722 244.836 94.6278 244.994 92.8833C245.086 91.8696 244.123 91 243.235 91Z" fill="#FFFFFE"/>
<path fill-rule="evenodd" clip-rule="evenodd" d="M248.719 114.145L245.549 109.937C244.933 109.12 243.916 108.694 242.96 109.256C242.156 109.726 241.659 111.031 242.279 111.854C243.339 113.257 244.394 114.66 245.454 116.063C246.069 116.88 247.086 117.306 248.042 116.745C248.842 116.274 249.344 114.969 248.719 114.145" fill="#FFFFFE"/>
<path fill-rule="evenodd" clip-rule="evenodd" d="M258.989 123.05C258.029 122.46 257.068 121.87 256.107 121.28C255.173 120.708 253.786 121.036 253.267 122.043C252.732 123.07 253.012 124.339 254.009 124.95C254.97 125.54 255.931 126.13 256.897 126.72C257.826 127.292 259.218 126.964 259.737 125.957C260.267 124.93 259.986 123.661 258.989 123.05" fill="#FFFFFE"/>
<path fill-rule="evenodd" clip-rule="evenodd" d="M271.608 133.162L268.412 132.08C267.459 131.757 266.275 132.452 266.055 133.441C265.815 134.516 266.376 135.492 267.392 135.837C268.46 136.198 269.524 136.559 270.588 136.92C271.541 137.243 272.725 136.548 272.945 135.559C273.184 134.484 272.624 133.508 271.608 133.162" fill="#FFFFFE"/>
<path fill-rule="evenodd" clip-rule="evenodd" d="M272.056 126.189C269.696 125.168 267.639 128.567 270.014 129.596C276.032 132.202 274.976 140.156 268.463 141.166C265.901 141.563 266.987 145.367 269.539 144.971C279.388 143.443 281.172 130.138 272.056 126.189" fill="#FFFFFE"/>
<path fill-rule="evenodd" clip-rule="evenodd" d="M221.49 3.444C223.156 1.52579 220.348 -1.28162 218.667 0.649431C206.171 15.0214 199.182 33.6063 199.157 52.4979C198.349 51.1947 197.541 49.8911 196.738 48.5879C195.795 47.0634 192.747 47.5233 193.017 49.5853C193.401 52.5073 193.845 55.6215 196.045 57.8129C196.838 58.6038 197.806 59.2089 198.843 59.5572C199.162 60.068 199.477 60.5788 199.791 61.0896C200.754 62.6413 203.717 62.1448 203.512 60.0922C203.482 59.8106 203.462 59.529 203.437 59.2475C207.263 57.2734 207.084 51.871 210.735 49.9815C213.015 48.8038 211 45.3917 208.72 46.5689C206.036 47.9585 204.954 50.6568 203.622 53.1786C203.482 53.4494 203.333 53.7463 203.163 54.0422C202.849 35.6648 209.314 17.445 221.49 3.444" fill="#FFFFFE"/>
</svg>
