<svg width="105" height="105" viewBox="0 0 105 105" fill="none" xmlns="http://www.w3.org/2000/svg">
<g clip-path="url(#clip0)">
<path d="M66.4714 38.0538C66.0899 37.6724 65.5631 37.4531 65.0217 37.4531C64.4825 37.4531 63.9534 37.6724 63.572 38.0538C63.1905 38.4352 62.9713 38.9621 62.9713 39.5035C62.9713 40.0429 63.1908 40.5718 63.572 40.953C63.9534 41.3344 64.4823 41.5539 65.0217 41.5539C65.5631 41.5539 66.0899 41.3344 66.4714 40.953C66.8549 40.5718 67.0721 40.0429 67.0721 39.5035C67.0721 38.9619 66.8549 38.4352 66.4714 38.0538Z" fill="#0A8900"/>
<path d="M100.446 14.9242C99.4644 14.359 98.211 14.6961 97.6458 15.6772L88.3453 31.8196C87.4993 31.7127 86.6495 31.714 85.8152 31.8227C85.8117 31.8233 85.8085 31.8233 85.805 31.8239C85.2289 31.8998 84.66 32.0245 84.1067 32.2053L83.0303 32.5568L80.5625 33.218C79.3066 33.3324 77.9578 33.0336 76.7782 32.3528L65.8457 26.0372C64.4663 25.2405 63.9924 23.47 64.7887 22.0907L66.8106 18.5885C66.8108 18.5883 66.811 18.5881 66.811 18.5877L75.79 3.07988C76.3572 2.10002 76.0229 0.845551 75.0429 0.278099C74.063 -0.288943 72.8085 0.0451295 72.2411 1.0252L64.2883 14.7607L63.354 14.2214C59.3513 11.9102 26.2631 5.75164 19.6704 4.54086C19.6565 4.53819 19.6425 4.53594 19.6286 4.53348C15.6931 3.89548 11.9673 5.52872 10.1384 8.69657L6.76441 14.5413C4.42139 18.5992 6.02777 23.962 10.3268 26.742L9.52046 28.139C8.82525 29.3433 8.64047 30.746 9.00038 32.0893C9.3603 33.4325 10.2218 34.5549 11.4261 35.2501L11.8532 35.4968C12.6555 35.9601 13.5455 36.1966 14.4479 36.1966C14.9001 36.1966 15.3552 36.1371 15.8039 36.0167C17.1469 35.6568 18.2695 34.7955 18.9647 33.5913L19.7637 32.2072L24.5935 34.9956C18.0657 37.1738 12.2111 41.2378 7.87573 46.6541C6.83947 47.9488 5.90021 49.3122 5.05877 50.7305C5.00422 50.8086 4.95624 50.8909 4.91296 50.9758C2.45141 55.2008 0.86861 59.9084 0.276753 64.7724C0.265884 64.8378 0.258091 64.9035 0.25358 64.9695C0.0950539 66.3314 0.0128174 67.7048 0.0128174 69.0836C0.0128174 78.4085 3.5857 86.9141 9.4331 93.3056C9.53297 93.4432 9.64884 93.5689 9.78009 93.6782C13.5837 97.7203 18.3101 100.885 23.6206 102.828C23.7045 102.864 23.79 102.894 23.8774 102.919C27.6469 104.266 31.7044 105.002 35.9311 105.002C40.6426 105.002 45.144 104.088 49.2702 102.432C49.3769 102.398 49.481 102.356 49.5811 102.304C54.6443 100.216 59.1292 97.0036 62.7228 92.9783C62.847 92.8682 62.9574 92.7439 63.0515 92.6079C68.5291 86.3014 71.8492 78.0728 71.8492 69.0834C71.8492 67.7579 71.7717 66.4262 71.6273 65.1128C71.6248 65.0839 71.6213 65.0552 71.6176 65.0265C71.5982 64.8536 71.5819 64.6801 71.56 64.5081C71.5575 64.488 71.5547 64.4683 71.5516 64.4484L71.316 62.9489L71.867 61.9942C72.9839 62.3894 74.1296 62.5844 75.2508 62.5844C78.343 62.5844 81.2401 61.1257 82.7803 58.4583L86.1548 52.6133L94.0867 38.8749C95.208 36.9322 94.4318 34.3769 92.356 33.1786C92.3406 33.1698 92.3248 33.162 92.3092 33.1532L101.199 17.7241C101.764 16.7432 101.427 15.4896 100.446 14.9242ZM51.4617 15.095L53.1807 21.5111L50.2456 21.0017L48.4866 14.4365C49.519 14.6613 50.5136 14.8813 51.4617 15.095ZM36.5082 11.9489L38.3531 18.8344L35.418 18.325L33.5522 11.3618C34.5376 11.5564 35.5246 11.7524 36.5082 11.9489ZM15.4126 31.5411C15.2649 31.7968 15.0266 31.9797 14.7418 32.0558C14.4567 32.1325 14.1591 32.0932 13.9034 31.9455L13.4762 31.6988C13.4762 31.6988 13.4762 31.6988 13.476 31.6988C13.2205 31.5511 13.0376 31.3128 12.9615 31.028C12.885 30.7429 12.9242 30.4451 13.0718 30.1896L13.8708 28.8053L16.212 30.157L15.4126 31.5411ZM25.081 39.1595L20.4144 47.2497L11.2236 48.9758C14.7922 44.5872 19.539 41.1533 25.081 39.1595ZM31.9881 46.3203C33.7884 46.3203 35.5421 45.3866 36.5053 43.7184L37.3043 42.3342L42.0439 45.0709C43.6812 46.0163 45.5601 46.3416 47.3339 45.9876C48.1255 45.8295 49.0208 45.9934 49.7903 46.4378L55.4605 49.7114C57.3522 50.8037 58.8099 52.5311 59.46 54.451C59.6197 54.9229 59.9456 55.3201 60.3769 55.5691L62.3329 56.6985L61.4964 58.1474C60.061 60.6333 60.916 63.8235 63.4018 65.2587L63.402 65.2589L63.829 65.5052C64.462 65.8708 65.141 66.0859 65.8248 66.1653L58.2469 73.8096L48.1398 71.5404L47.064 68.2292L44.7616 61.1436L48.2635 55.8222C48.8859 54.8764 48.6238 53.6049 47.678 52.9822C46.7326 52.3602 45.4607 52.6219 44.8381 53.5677L41.402 58.7892H30.4676L24.1235 49.0265L27.1978 43.6967C27.64 44.3819 28.2406 44.9577 28.967 45.3771L29.3942 45.6236C30.2117 46.0963 31.1054 46.3203 31.9881 46.3203ZM30.6126 40.3168L31.4116 38.9327L32.8393 39.7569L33.7528 40.2844L32.954 41.6685C32.6492 42.1961 31.9723 42.3776 31.4446 42.0733L31.0174 41.8266C31.0174 41.8264 31.0172 41.8264 31.017 41.8264C30.7613 41.6787 30.5785 41.4404 30.5023 41.1556C30.426 40.8707 30.4649 40.5725 30.6126 40.3168ZM44.1404 72.502L40.0524 75.4722L35.9643 78.4423L27.7882 72.502L30.9112 62.8902H41.0175L44.1404 72.502ZM8.01375 53.7513L20.7483 51.3595L27.1021 61.137L23.7215 71.5406L15.4214 73.4042L13.6261 73.8074L4.45523 64.3897C5.0114 60.5966 6.23326 57.0055 8.01375 53.7513ZM9.62464 86.9611C6.29663 82.0798 4.28973 76.2291 4.12485 69.9277L10.8077 76.7902L9.62464 86.9611ZM13.2408 91.3643L14.8254 77.7408L24.3889 75.5934L24.8554 75.4886L33.8467 82.0214V91.6726L24.1352 98.6331C20.0086 96.98 16.3065 94.4858 13.2408 91.3643ZM35.9309 100.901C33.5711 100.901 31.2713 100.641 29.0571 100.151L36.0176 95.1622L43.7903 99.9177C41.2756 100.559 38.6426 100.901 35.9309 100.901ZM48.8037 98.1777L38.0147 91.5766V82.0214L44.634 77.2123L47.0064 75.4888L47.6528 75.634L57.0997 77.7551L59.1829 90.7774C56.2743 93.8927 52.7492 96.425 48.8037 98.1777ZM62.6307 86.3694L61.094 76.7629L67.7318 70.0669C67.5485 76.063 65.6989 81.6463 62.6307 86.3694ZM67.3887 61.5496C67.084 62.0773 66.4068 62.259 65.8787 61.954L65.4517 61.7077C64.9245 61.4028 64.743 60.7256 65.0473 60.1979L65.8463 58.8137L68.1875 60.1653L67.3887 61.5496ZM72.15 57.6314L63.0613 52.384C61.996 49.8158 60.0494 47.6258 57.5111 46.1603L51.8411 42.8866C50.1976 41.9377 48.3117 41.6106 46.5312 41.9665C45.7459 42.124 44.8582 41.9607 44.0947 41.5198L37.5795 37.7584C37.5793 37.7584 37.5793 37.7582 37.5791 37.7582L35.5544 36.5893L20.04 27.6319C20.0394 27.6315 20.0389 27.6311 20.0383 27.6309L14.146 24.2288C14.1456 24.2286 14.145 24.2284 14.1446 24.2282L12.8452 23.478C10.308 22.0129 9.15583 19.1822 10.1199 16.9824C10.9864 18.6546 12.362 20.1406 14.1694 21.184L45.4195 39.2262C47.057 40.1716 48.9359 40.4969 50.7097 40.1429C51.5007 39.9838 52.3962 40.1484 53.1659 40.5928L58.8359 43.8665C60.7276 44.9588 62.1853 46.6861 62.8354 48.6061C62.9951 49.078 63.321 49.4752 63.7523 49.7242L73.4746 55.3376C75.0835 56.2664 76.8642 56.7471 78.6323 56.7471C78.7599 56.7471 78.8873 56.7428 79.0146 56.7379C77.6295 58.6549 74.6475 59.0735 72.15 57.6314ZM82.6037 50.5631C82.0149 51.583 80.986 52.2852 79.707 52.5409C78.3296 52.8163 76.8443 52.5483 75.5248 51.7862L66.4361 46.5387C65.3705 43.9705 63.4241 41.7804 60.8859 40.315L55.2155 37.0413C53.5717 36.0924 51.686 35.7659 49.9058 36.1213C49.1207 36.279 48.2327 36.1156 47.4692 35.6746L16.2191 17.6327C13.5293 16.0796 12.3948 12.9905 13.6905 10.7467C14.6571 9.07269 16.7212 8.22284 18.9526 8.57804C22.0108 9.13975 25.4741 9.7923 29.0722 10.4875L31.7957 20.6518C32.0024 21.4235 32.6384 22.0049 33.4254 22.1415L40.8132 23.4239C40.9301 23.4444 41.0474 23.454 41.1639 23.454C41.7342 23.454 42.2855 23.2157 42.6774 22.7869C43.1494 22.2703 43.3254 21.5488 43.1443 20.8731L40.9967 12.8584C42.0072 13.0658 43.0053 13.2725 43.9839 13.4772L46.6235 23.3289C46.8302 24.1006 47.4661 24.682 48.2532 24.8186L55.641 26.101C55.7579 26.1215 55.8752 26.1311 55.9917 26.1311C56.562 26.1311 57.1133 25.8928 57.5052 25.464C57.9772 24.9474 58.1532 24.2259 57.9721 23.5502L55.9923 16.161C58.7512 16.8447 60.6726 17.4085 61.3036 17.7727L62.2359 18.3109L61.2374 20.0403C59.3107 23.3773 60.4577 27.6606 63.7945 29.5881L73.4004 35.1371L70.4643 35.9238C69.3706 36.2171 68.7215 37.3413 69.0144 38.435C69.2598 39.3511 70.0882 39.9555 70.9936 39.9555C71.1691 39.9555 71.348 39.9327 71.5256 39.8849L81.323 37.2597C81.8912 37.1832 82.4525 37.0591 82.9989 36.8805L84.1959 36.4896L86.4965 35.8732C87.7587 35.7485 89.118 36.0448 90.3054 36.7304C90.4108 36.7913 90.4637 36.8629 90.4873 36.9078L82.6037 50.5631Z" fill="#0A8900"/>
<path d="M104.389 9.1419C104.008 8.76045 103.479 8.54102 102.939 8.54102C102.4 8.54102 101.871 8.76045 101.49 9.1419C101.108 9.52314 100.889 10.052 100.889 10.5914C100.889 11.1328 101.108 11.6596 101.49 12.0411C101.871 12.4225 102.4 12.6418 102.939 12.6418C103.478 12.6418 104.008 12.4225 104.389 12.0411C104.77 11.6594 104.99 11.131 104.99 10.5914C104.99 10.0522 104.77 9.52314 104.389 9.1419Z" fill="#0A8900"/>
</g>
<defs>
<clipPath id="clip0">
<rect width="105" height="105" fill="white"/>
</clipPath>
</defs>
</svg>
