<svg width="67" height="90" viewBox="0 0 67 90" fill="none" xmlns="http://www.w3.org/2000/svg">
<path d="M2.33113 81.4911C1.60138 81.4645 0.999722 82.0347 0.975572 82.759C0.966471 83.0324 0.962097 83.259 0.962097 83.4725V88.1886C0.962097 88.9135 1.54975 89.5011 2.27461 89.5011C2.99946 89.5011 3.58712 88.9135 3.58712 88.1886V83.4725C3.58712 83.2632 3.59202 83.0546 3.59902 82.8467C3.62335 82.1222 3.05546 81.5153 2.33113 81.4911Z" fill="url(#paint0_linear)"/>
<path d="M53.8035 63.8355L43.7476 59.7326V54.3387C44.8277 53.4975 45.817 52.5362 46.6909 51.4655C47.1494 50.9039 47.0658 50.0771 46.5044 49.6187C45.9428 49.1602 45.1159 49.2437 44.6576 49.8053C42.8374 52.0348 40.4425 53.7216 37.7317 54.6833L37.6022 54.7291C35.2042 55.5798 32.5648 55.5746 30.1702 54.7139C23.9409 52.4751 19.7557 46.5237 19.7557 39.9044V29.4825C19.7557 26.9816 20.5079 24.5389 21.8899 22.4743C23.8929 23.7232 26.2334 24.4031 28.601 24.4031H32.5391C34.186 25.4145 36.0454 25.9136 37.8992 25.9136C40.3069 25.9136 42.7051 25.0716 44.6156 23.4173L44.9692 23.1111H46.777C47.7029 24.5627 48.2069 26.2678 48.2069 27.995V39.8524C48.2069 41.7265 47.8762 43.5677 47.2238 45.3251C46.9716 46.0046 47.3179 46.7601 47.9975 47.0124C48.1481 47.0683 48.3023 47.0949 48.454 47.0949C48.9871 47.0949 49.4883 46.7678 49.6847 46.2388C50.0973 45.1273 50.3955 43.9865 50.5861 42.8271C53.8045 42.7043 56.3855 40.049 56.3855 36.8009C56.3855 35.2002 55.7576 33.7444 54.7366 32.6634L55.6401 18.5922C55.9541 17.791 56.1286 16.9204 56.1286 16.0094C56.1286 13.2631 54.5208 10.7374 52.0327 9.57491L51.6081 9.37645C51.1891 6.60811 48.7936 4.47956 45.9102 4.47956H44.9045L44.4376 4.06761C40.884 0.931233 36.1499 -0.495203 31.45 0.153527C30.7318 0.252578 30.2301 0.915133 30.3293 1.63316C30.4285 2.3512 31.0913 2.85327 31.809 2.75387C35.7509 2.20962 39.7208 3.40593 42.7007 6.0355L43.5397 6.77576C43.7796 6.98733 44.0883 7.10406 44.408 7.10406H45.9101C47.6403 7.10406 49.0478 8.5116 49.0478 10.2418C49.0478 10.7516 49.3431 11.2152 49.8049 11.431L50.9214 11.9527C52.4899 12.6856 53.5034 14.2775 53.5034 16.0088C53.5034 18.4774 51.495 20.4857 49.0265 20.4857H44.4798C44.1642 20.4857 43.8592 20.5995 43.6207 20.806L42.897 21.4325C40.3037 23.6777 36.5032 23.9112 33.6547 22.0004C33.4384 21.8553 33.1839 21.7778 32.9234 21.7778H28.6007C26.3993 21.7778 24.226 21.0386 22.4812 19.6963L21.8083 19.1786C21.5789 19.0022 21.2977 18.9065 21.008 18.9065H17.2396C15.6084 18.9065 14.2813 17.5795 14.2813 15.9481C14.2813 14.3167 15.6084 12.9899 17.2396 12.9899H17.3472C17.9536 12.9899 18.481 12.5744 18.6233 11.9849L18.9189 10.7577C19.4939 8.37125 21.4161 6.49575 23.8159 5.97915L24.7294 5.78245C24.9242 5.74062 25.1068 5.65487 25.2636 5.53185C25.7891 5.11954 26.3615 4.73699 26.9647 4.39486C27.5953 4.03733 27.8166 3.23635 27.4591 2.60565C27.1014 1.97494 26.3003 1.75374 25.6701 2.11127C25.0455 2.4653 24.4473 2.85712 23.888 3.27818L23.2636 3.41258C19.8838 4.13989 17.1766 6.78136 16.3666 10.1424L16.2938 10.4445C13.6639 10.8951 11.656 13.1913 11.656 15.9478C11.656 16.8791 11.8864 17.7573 12.2914 18.5301L13.1989 32.6623C12.178 33.7433 11.5501 35.1991 11.5501 36.7999C11.5501 40.0537 14.1399 42.7123 17.3663 42.8266C18.1119 47.4254 20.5894 51.5546 24.2142 54.3859V59.7319L14.1581 63.8348C8.41231 66.1791 3.99544 70.905 2.04068 76.8005C1.81248 77.4886 2.1854 78.2311 2.87334 78.4593C3.01036 78.5048 3.14966 78.5264 3.28651 78.5264C3.83689 78.5264 4.34947 78.1776 4.53217 77.6265C4.98228 76.2694 5.58236 74.9838 6.31212 73.7875L13.0231 80.4984V88.1878C13.0231 88.9127 13.6107 89.5003 14.3356 89.5003C15.0604 89.5003 15.6481 88.9127 15.6481 88.1878V80.1577C15.6481 79.6759 15.4605 79.2232 15.1201 78.8832L11.5853 75.3483C13.0182 73.4802 14.9171 72.0303 17.1332 71.1262C17.8043 70.8524 18.1265 70.0864 17.8526 69.4153C17.5787 68.7438 16.8122 68.4218 16.1416 68.6958C13.5994 69.7331 11.4066 71.374 9.71764 73.4807L7.8572 71.6203C9.78694 69.288 12.2784 67.4369 15.1499 66.2652L17.2182 65.4214L18.4086 66.4369C22.719 70.1146 28.2136 72.1398 33.8797 72.1398C39.5459 72.1398 45.0403 70.1146 49.3509 66.4369L50.6064 65.3657L52.8109 66.2652C55.6739 67.4334 58.1238 69.2476 60.0218 71.5007L58.0436 73.479C56.3541 71.3726 54.1601 69.7329 51.6179 68.6956C50.9473 68.4219 50.1808 68.7439 49.9069 69.4151C49.6332 70.0862 49.9552 70.8522 50.6263 71.1261C52.8422 72.0301 54.7422 73.4791 56.1753 75.3471L52.6406 78.8837C52.2999 79.2241 52.1121 79.677 52.1121 80.1588V88.1889C52.1121 88.9137 52.6998 89.5014 53.4246 89.5014C54.1495 89.5014 54.7371 88.9137 54.7371 88.1889V80.4995L61.5844 73.652C63.3736 76.5312 64.375 79.9101 64.375 83.4728V88.1889C64.375 88.9137 64.9626 89.5014 65.6875 89.5014C66.4124 89.5014 67 88.9137 67 88.1889V83.4728C67.0002 74.8144 61.8201 67.1063 53.8035 63.8355ZM50.8248 40.1713C50.8265 40.0649 50.8318 39.9588 50.8318 39.8523V33.4313C52.484 33.6651 53.7603 35.0849 53.7603 36.8008C53.7603 38.5189 52.4805 39.9405 50.8248 40.1713ZM52.7892 22.0282L52.2091 31.0619C51.7698 30.9195 51.3085 30.8269 50.8318 30.7893V27.9947C50.8318 26.294 50.4534 24.6096 49.7431 23.0747C50.8537 22.963 51.8885 22.5933 52.7892 22.0282ZM17.2399 21.5319H19.3772C17.9194 23.913 17.1305 26.6671 17.1305 29.4825V30.7875C16.6446 30.8238 16.1745 30.917 15.7272 31.0621L15.0874 21.1C15.7501 21.3779 16.4773 21.5319 17.2399 21.5319ZM14.1758 36.8008C14.1758 35.0758 15.4654 33.6497 17.1305 33.4273V39.9046C17.1305 39.9951 17.1346 40.0848 17.1358 40.1751C15.4682 39.955 14.1758 38.5275 14.1758 36.8008ZM29.2823 57.1846C30.7729 57.7204 32.3401 57.9882 33.9076 57.9882C35.456 57.9882 37.0049 57.7266 38.4797 57.2033L38.6092 57.1574C39.4772 56.8494 40.3161 56.4756 41.1224 56.0448V60.3659C41.1224 61.0528 41.5334 61.6644 42.1692 61.924L42.1818 61.929C37.1288 65.0057 30.7316 65.0246 25.6612 61.9777L25.7929 61.924C26.4291 61.6644 26.84 61.0528 26.84 60.3659V56.0961C27.6194 56.5134 28.4339 56.8795 29.2823 57.1846ZM47.648 64.4407C43.8121 67.7132 38.9228 69.5155 33.8806 69.5155C28.8385 69.5155 23.9491 67.7132 20.1133 64.4407L19.9551 64.3057L22.7348 63.1715C26.0278 65.6415 29.9539 66.8762 33.8804 66.8762C37.8362 66.8762 41.7917 65.6224 45.0975 63.1184L47.8713 64.2501L47.648 64.4407Z" fill="url(#paint1_linear)"/>
<path d="M29.2654 80.2363H27.4592C26.7344 80.2363 26.1467 80.824 26.1467 81.5488C26.1467 82.2737 26.7344 82.8613 27.4592 82.8613H27.9529V88.1887C27.9529 88.9136 28.5406 89.5013 29.2654 89.5013C29.9903 89.5013 30.5779 88.9136 30.5779 88.1887V81.5488C30.5779 80.824 29.9903 80.2363 29.2654 80.2363Z" fill="url(#paint2_linear)"/>
<path d="M37.3388 80.2363C35.0216 80.2363 33.1365 82.1214 33.1365 84.4386V87.95C33.1365 88.6749 33.7241 89.2625 34.449 89.2625C35.1738 89.2625 35.7615 88.6749 35.7615 87.95V84.4386C35.7615 83.5689 36.469 82.8614 37.3388 82.8614C38.2086 82.8614 38.9161 83.5689 38.9161 84.4386V87.95C38.9161 88.6749 39.5037 89.2625 40.2286 89.2625C40.9534 89.2625 41.5411 88.6749 41.5411 87.95V84.4386C41.5411 82.1214 39.656 80.2363 37.3388 80.2363Z" fill="url(#paint3_linear)"/>
<defs>
<linearGradient id="paint0_linear" x1="2.28094" y1="81.4902" x2="2.28094" y2="89.5011" gradientUnits="userSpaceOnUse">
<stop stop-color="#14CF00"/>
<stop offset="1" stop-color="#064E00"/>
</linearGradient>
<linearGradient id="paint1_linear" x1="34.4868" y1="0" x2="34.4868" y2="89.5014" gradientUnits="userSpaceOnUse">
<stop stop-color="#14CF00"/>
<stop offset="1" stop-color="#064E00"/>
</linearGradient>
<linearGradient id="paint2_linear" x1="28.3623" y1="80.2363" x2="28.3623" y2="89.5013" gradientUnits="userSpaceOnUse">
<stop stop-color="#14CF00"/>
<stop offset="1" stop-color="#064E00"/>
</linearGradient>
<linearGradient id="paint3_linear" x1="37.3388" y1="80.2363" x2="37.3388" y2="89.2625" gradientUnits="userSpaceOnUse">
<stop stop-color="#14CF00"/>
<stop offset="1" stop-color="#064E00"/>
</linearGradient>
</defs>
</svg>
