<svg width="26" height="26" viewBox="0 0 26 26" fill="none" xmlns="http://www.w3.org/2000/svg">
<path d="M13 13.0001C11.5634 13.0001 10.1857 12.4294 9.16984 11.4136C8.15402 10.3978 7.58333 9.02 7.58333 7.58342C7.58333 6.14683 8.15402 4.76908 9.16984 3.75325C10.1857 2.73743 11.5634 2.16675 13 2.16675C14.4366 2.16675 15.8143 2.73743 16.8302 3.75325C17.846 4.76908 18.4167 6.14683 18.4167 7.58342C18.4167 9.02 17.846 10.3978 16.8302 11.4136C15.8143 12.4294 14.4366 13.0001 13 13.0001ZM13 10.8334C13.4268 10.8334 13.8494 10.7494 14.2437 10.586C14.638 10.4227 14.9963 10.1833 15.2981 9.88151C15.5999 9.57972 15.8393 9.22144 16.0026 8.82714C16.1659 8.43283 16.25 8.01021 16.25 7.58342C16.25 7.15662 16.1659 6.734 16.0026 6.33969C15.8393 5.94539 15.5999 5.58711 15.2981 5.28532C14.9963 4.98353 14.638 4.74413 14.2437 4.58081C13.8494 4.41748 13.4268 4.33341 13 4.33341C12.138 4.33341 11.3114 4.67582 10.7019 5.28532C10.0924 5.89481 9.75 6.72146 9.75 7.58342C9.75 8.44537 10.0924 9.27202 10.7019 9.88151C11.3114 10.491 12.138 10.8334 13 10.8334ZM22.75 22.7501C22.75 23.0374 22.6359 23.313 22.4327 23.5161C22.2295 23.7193 21.954 23.8334 21.6667 23.8334C21.3793 23.8334 21.1038 23.7193 20.9006 23.5161C20.6975 23.313 20.5833 23.0374 20.5833 22.7501V20.5834C20.5833 19.7215 20.2409 18.8948 19.6314 18.2853C19.0219 17.6758 18.1953 17.3334 17.3333 17.3334H8.66667C7.80471 17.3334 6.97806 17.6758 6.36857 18.2853C5.75908 18.8948 5.41667 19.7215 5.41667 20.5834V22.7501C5.41667 23.0374 5.30253 23.313 5.09937 23.5161C4.8962 23.7193 4.62065 23.8334 4.33333 23.8334C4.04602 23.8334 3.77047 23.7193 3.5673 23.5161C3.36414 23.313 3.25 23.0374 3.25 22.7501V20.5834C3.25 19.1468 3.82068 17.7691 4.8365 16.7533C5.85233 15.7374 7.23008 15.1667 8.66667 15.1667H17.3333C18.7699 15.1667 20.1477 15.7374 21.1635 16.7533C22.1793 17.7691 22.75 19.1468 22.75 20.5834V22.7501Z" fill="#0A8900"/>
</svg>
