<svg width="28" height="27" viewBox="0 0 28 27" fill="none" xmlns="http://www.w3.org/2000/svg">
<path d="M7.38953 3.2425C5.08326 3.93969 3.41201 5.51637 2.6237 7.72025L5.6775 10.3328V9.22477C5.6775 8.88907 5.94962 8.61695 6.28531 8.61695C6.62101 8.61695 6.89313 8.88907 6.89313 9.22477V16.8932C6.89313 17.2289 6.62101 17.5011 6.28531 17.5011C5.94962 17.5011 5.6775 17.2289 5.6775 16.8932V15.1313L1.11621 11.2876L1.11614 11.2875L1.18058 11.2111C1.17291 11.2046 1.16626 11.1984 1.16016 11.1922L7.38953 3.2425ZM7.38953 3.2425C7.61357 4.39487 8.21916 5.50332 9.16243 6.48494L9.16249 6.485C9.75266 7.09806 10.5339 7.71316 11.3795 8.17551C12.2241 8.63733 13.1404 8.95081 13.9993 8.95081C14.8592 8.95081 15.776 8.63731 16.6206 8.17546C17.4662 7.71309 18.2469 7.09798 18.8362 6.48494C19.7802 5.50403 20.3864 4.39552 20.6105 3.2425C22.9168 3.93964 24.5881 5.51627 25.3765 7.7202L7.38953 3.2425ZM0.9 10.8228C0.9 10.9969 0.973631 11.1534 1.0904 11.2639L26.8825 11.2887L26.8194 11.2111L26.8839 11.2875L26.8837 11.2877C26.8866 11.2852 26.8891 11.2829 26.891 11.2809C27.0187 11.1698 27.1 11.0059 27.1 10.8228C27.1 8.11271 26.2067 5.80139 24.5097 4.14605L24.4399 4.21763L24.5097 4.14605C22.8809 2.55731 20.6459 1.69079 18.0492 1.63059C16.0697 1.14558 15.0391 0.89957 14.0052 0.900001C12.9714 0.900431 11.9374 1.14727 9.95125 1.63059C7.35431 1.69067 5.11918 2.55719 3.49031 4.14605C1.79324 5.8014 0.9 8.11272 0.9 10.8228ZM22.3225 15.1313V15.0848H22.2225L22.2869 15.1612L22.3225 15.1313ZM22.3225 10.4645L22.2225 10.55V10.4184L22.3225 10.3329V10.4645ZM15.9742 4.57797L16.0381 4.65491L15.9742 4.57797C15.551 4.92936 15.1269 5.18647 14.7712 5.35535C14.4109 5.52642 14.133 5.60116 13.9993 5.60116C13.8657 5.60116 13.5878 5.52642 13.2277 5.35536C12.8721 5.18649 12.4482 4.9294 12.0251 4.57804C11.5791 4.20757 10.8966 3.52475 10.6968 2.70035C12.2902 2.31424 13.1489 2.12416 14.0044 2.12372C14.8598 2.12328 15.7157 2.31243 17.3034 2.6996C17.1038 3.52429 16.4207 4.20736 15.9742 4.57797ZM17.9601 5.64218L17.96 5.64221C17.4598 6.16258 16.7863 6.68742 16.0769 7.08165C15.3658 7.47683 14.6287 7.73514 13.9992 7.73514C13.3708 7.73514 12.634 7.47682 11.9228 7.08162C11.2133 6.6874 10.5394 6.1626 10.0386 5.64233C9.46417 5.04456 8.78841 4.12628 8.57543 2.97204C8.87207 2.92456 9.17715 2.89008 9.49026 2.86882C9.68347 3.80274 10.2955 4.72174 11.2484 5.51321C11.7084 5.89528 12.2185 6.21996 12.7003 6.44954C13.1797 6.678 13.6403 6.81678 13.9992 6.81678C14.3582 6.81678 14.8189 6.678 15.2984 6.44955C15.7802 6.21997 16.2905 5.89531 16.7507 5.51327L16.6868 5.43633L16.7507 5.51327C17.704 4.72176 18.3163 3.80275 18.5096 2.86882C18.8227 2.89008 19.1278 2.92456 19.4245 2.97204C19.2115 4.12671 18.5351 5.04465 17.9601 5.64218ZM2.27557 9.02223L5.6775 11.9326V13.5416L2.11932 10.5432C2.13305 10.0141 2.186 9.5066 2.27557 9.02223ZM25.8807 10.5432L22.3225 13.5415V11.9326L25.7243 9.02237C25.8139 9.50669 25.8669 10.0142 25.8807 10.5432Z" fill="black" stroke="black" stroke-width="0.2"/>
<path d="M20.0856 13.7478V11.7939C20.0856 11.1354 19.5503 10.5997 18.892 10.5997H16.4277C15.7693 10.5997 15.234 11.1354 15.234 11.7939V13.7478C15.234 15.0864 16.322 16.1755 17.6598 16.1755C18.9976 16.1755 20.0856 15.0864 20.0856 13.7478ZM16.4496 13.7478V11.8153H18.87V13.7478C18.87 14.4162 18.3269 14.9598 17.6598 14.9598C16.9927 14.9598 16.4496 14.4161 16.4496 13.7478Z" fill="black" stroke="black" stroke-width="0.2"/>
<path d="M6.28516 19.7843C6.62103 19.7843 6.89297 19.5113 6.89297 19.1758C6.89297 18.8401 6.62085 18.568 6.28516 18.568C5.94946 18.568 5.67734 18.8401 5.67734 19.1758V19.1772C5.67734 19.5131 5.94965 19.7843 6.28516 19.7843Z" fill="black" stroke="black" stroke-width="0.2"/>
</svg>
