<svg width="140" height="140" viewBox="0 0 140 140" fill="none" xmlns="http://www.w3.org/2000/svg">
<g clip-path="url(#clip0)">
<path d="M128.743 114.712L128.71 114.727V112.6C128.71 102.554 122.074 93.7164 112.426 90.915L94.8391 85.8083C94.5204 86.1383 94.2034 86.4623 93.8873 86.7838C90.665 83.8562 90.3037 77.9146 90.2987 74.453C93.375 71.1059 95.8205 67.0631 97.6385 62.7135C102.19 65.743 106.13 56.1453 106.13 51.9563C106.13 48.8771 104.31 47.111 101.421 47.2442C101.549 45.7852 101.613 44.3409 101.613 42.9239C101.613 24.8409 87.4597 20.3406 70.0002 20.3406C52.5407 20.3406 38.387 24.8409 38.387 42.9239C38.387 44.353 38.4525 45.8101 38.5826 47.2818C35.707 46.9445 33.8709 48.7261 33.8709 51.9563C33.8709 56.3206 37.7886 66.5531 42.1761 62.2624C44.0105 66.7795 46.5167 70.9809 49.6949 74.4417C49.676 77.8904 49.2857 83.8139 46.0845 86.7547C45.7777 86.4428 45.4703 86.1281 45.1613 85.808L27.5745 90.915C17.9271 93.7164 11.2903 102.554 11.2903 112.6V114.727L11.2576 114.712C10.2155 114.238 9.03223 115 9.03223 116.145V119.159C9.03223 120.367 9.73844 121.463 10.8384 121.964L13.5484 123.195V133.226C13.5484 136.967 16.5813 140 20.3226 140H119.678C123.42 140 126.453 136.967 126.453 133.226V123.195L129.163 121.964C130.262 121.464 130.969 120.367 130.969 119.159V116.145C130.968 115 129.785 114.238 128.743 114.712Z" fill="#E6B47D"/>
<path d="M85.8066 97.0989L94.7461 87.4465C89.6961 84.1951 90.3227 74.5181 90.3227 72.26H49.6772C52.5936 80.644 71.8818 95.0288 85.8066 97.0989Z" fill="#D2A073"/>
<path d="M101.421 47.2442C101.55 45.7852 101.614 44.3409 101.614 42.9239C101.614 24.8409 87.4599 20.3406 70.0004 20.3406C52.5409 20.3406 38.3873 24.8409 38.3873 42.9239C38.3873 44.353 38.4527 45.8101 38.5829 47.2818C35.7072 46.9445 33.8711 48.7261 33.8711 51.9563C33.8711 56.3206 37.7889 66.5531 42.1763 62.2624C46.9279 73.9624 56.1668 83.5694 70.0004 83.5694C83.6559 83.5694 92.8344 74.2083 97.6388 62.7135C102.19 65.743 106.13 56.1453 106.13 51.9563C106.129 48.8771 104.31 47.1113 101.421 47.2442Z" fill="#F0C891"/>
<path d="M94.8388 85.8083C81.3857 99.7359 69.9999 106.131 69.9999 106.131C69.9999 106.131 58.6141 99.7359 45.161 85.8083L27.5742 90.915C17.9268 93.7162 11.29 102.554 11.29 112.6V118.448L33.8709 128.712V140H106.13V128.712L128.71 118.448V112.6C128.71 102.554 122.074 93.7164 112.426 90.915L94.8388 85.8083Z" fill="#0A8900"/>
<path d="M126.452 119.68H121.936V112.6C121.936 105.612 117.249 99.369 110.538 97.4208L95.539 93.0656L96.7982 88.7281L111.797 93.0834C120.425 95.5895 126.452 103.615 126.452 112.6V119.68ZM18.0645 119.68H13.5483V112.6C13.5483 103.615 19.5752 95.5893 28.2039 93.0831L43.2023 88.7278L44.4615 93.0653L29.463 97.4206C22.7517 99.3687 18.0645 105.612 18.0645 112.6V119.68Z" fill="#FFBE37"/>
<path d="M10.8379 121.963L33.8706 132.433V124.991L11.2571 114.712C10.215 114.238 9.03174 115 9.03174 116.145V119.158C9.03202 120.366 9.73795 121.463 10.8379 121.963Z" fill="#076000"/>
<path d="M129.162 121.963L106.129 132.433V124.991L128.743 114.712C129.785 114.238 130.968 115 130.968 116.145V119.158C130.968 120.366 130.262 121.463 129.162 121.963Z" fill="#076000"/>
<path d="M94.8391 85.8083C81.386 99.7359 70.0002 106.131 70.0002 106.131C70.0002 106.131 58.6143 99.7359 45.1612 85.8083L37.6709 87.9834C53.189 104.095 66.0369 111.663 66.5975 111.989L70.0002 113.965L73.4028 111.989C73.9634 111.663 86.8113 104.095 102.329 87.9834L94.8391 85.8083Z" fill="#076000"/>
<path d="M94.8388 124.193H81.2903C80.0433 124.193 79.0322 125.204 79.0322 126.451V128.709C79.0322 134.003 80.5387 137.587 82.3175 140H93.812C95.5905 137.587 97.0972 134.003 97.0972 128.709V126.451C97.0969 125.204 96.0861 124.193 94.8388 124.193Z" fill="#FFBE37"/>
<path d="M89.5035 140C91.8553 135.747 92.5807 130.93 92.5807 128.709H88.0645H83.5483C83.5483 130.93 84.274 135.747 86.6255 140H89.5035Z" fill="#076000"/>
<path d="M101.613 4.53402C86.6829 4.53402 63.3662 -7.03781 54.2486 6.7921C53.6406 6.7921 53.038 6.7921 51.9355 6.7921C43.2057 6.7921 36.1289 13.9491 36.1289 22.6788C36.1289 30.7842 38.387 42.924 38.387 42.924C38.387 42.924 40.9273 31.4924 51.9355 27.1174C51.9386 27.1163 51.9417 27.1146 51.9448 27.1131L51.9355 27.1975C74.1401 39.2407 94.8391 31.6335 94.8391 31.6335L101.613 42.924C105.424 30.0811 103.871 7.78001 101.613 4.53402Z" fill="#1C1B23"/>
<path fill-rule="evenodd" clip-rule="evenodd" d="M146 -18H-16V144H146V-18ZM65.8099 134.28C104.729 134.28 136.28 102.729 136.28 63.8099C136.28 24.8904 104.729 -6.66005 65.8099 -6.66005C26.8904 -6.66005 -4.66005 24.8904 -4.66005 63.8099C-4.66005 102.729 26.8904 134.28 65.8099 134.28Z" fill="white"/>
</g>
<defs>
<clipPath id="clip0">
<rect width="140" height="140" fill="white"/>
</clipPath>
</defs>
</svg>
