<svg width="24" height="24" viewBox="0 0 24 24" fill="none" xmlns="http://www.w3.org/2000/svg">
<g clip-path="url(#clip0)">
<path d="M23.2493 11.2504H13.7495C13.3355 11.2504 12.9995 10.9145 12.9995 10.5005C12.9995 10.0865 13.3355 9.75049 13.7495 9.75049H23.2493C23.6632 9.75049 23.9992 10.0865 23.9992 10.5005C23.9992 10.9145 23.6632 11.2504 23.2493 11.2504Z" fill="black"/>
<path d="M19.4993 15.0003C19.3072 15.0003 19.1153 14.9272 18.9692 14.7804C18.6763 14.4872 18.6763 14.0123 18.9692 13.7193L22.1892 10.4995L18.9692 7.27952C18.6763 6.98656 18.6763 6.5116 18.9692 6.21864C19.2624 5.92549 19.7373 5.92549 20.0303 6.21864L23.7802 9.96852C24.0731 10.2615 24.0731 10.7364 23.7802 11.0294L20.0303 14.7793C19.8833 14.9272 19.6914 15.0003 19.4993 15.0003Z" fill="black"/>
<path d="M7.99981 24.0002C7.78577 24.0002 7.58271 23.9702 7.37983 23.9072L1.3619 21.9023C0.543074 21.6163 0 20.8533 0 20.0004V2.00098C0 0.897982 0.897006 0.000976562 2 0.000976562C2.21386 0.000976562 2.41692 0.0310049 2.61997 0.0939913L8.63773 2.09893C9.45673 2.38494 9.99963 3.14791 9.99963 4.00079V22.0002C9.99963 23.1032 9.1028 24.0002 7.99981 24.0002ZM2 1.50093C1.72498 1.50093 1.49995 1.72596 1.49995 2.00098V20.0004C1.49995 20.2134 1.64295 20.4113 1.84693 20.4823L7.83667 22.4783C7.8797 22.4922 7.93573 22.5003 7.99981 22.5003C8.27483 22.5003 8.49967 22.2752 8.49967 22.0002V4.00079C8.49967 3.78785 8.35667 3.58991 8.1527 3.51887L2.16296 1.5229C2.11993 1.50899 2.0639 1.50093 2 1.50093Z" fill="black"/>
<path d="M15.2494 8.00055C14.8355 8.00055 14.4995 7.66456 14.4995 7.25057V2.75071C14.4995 2.0617 13.9386 1.50069 13.2496 1.50069H1.99998C1.58599 1.50069 1.25 1.1647 1.25 0.750709C1.25 0.336721 1.58599 0.000732422 1.99998 0.000732422H13.2496C14.7666 0.000732422 15.9994 1.23373 15.9994 2.75071V7.25057C15.9994 7.66456 15.6634 8.00055 15.2494 8.00055Z" fill="black"/>
<path d="M13.2495 21.0001H9.24949C8.8355 21.0001 8.49951 20.6641 8.49951 20.2501C8.49951 19.8361 8.8355 19.5001 9.24949 19.5001H13.2495C13.9385 19.5001 14.4993 18.9391 14.4993 18.2501V13.7502C14.4993 13.3362 14.8353 13.0002 15.2493 13.0002C15.6633 13.0002 15.9993 13.3362 15.9993 13.7502V18.2501C15.9993 19.7671 14.7665 21.0001 13.2495 21.0001Z" fill="black"/>
</g>
<defs>
<clipPath id="clip0">
<rect width="24" height="24" fill="white"/>
</clipPath>
</defs>
</svg>
